<svg width="40" height="40" viewBox="0 0 40 40" fill="none" xmlns="http://www.w3.org/2000/svg">
<path d="M20 40C31.0457 40 40 31.0457 40 20C40 8.95431 31.0457 0 20 0C8.9543 0 0 8.95431 0 20C0 31.0457 8.9543 40 20 40Z" fill="#FFE095"/>
<path d="M12.3827 16.9651C11.1991 18.3612 8.95329 18.3915 7.3448 17.0258C6.00944 15.9029 5.5542 14.1427 6.13084 12.777C6.25223 12.5038 6.40398 12.261 6.58607 12.0486C7.76968 10.6525 10.0155 10.6222 11.624 11.9879C11.9882 12.2914 12.2917 12.6556 12.5345 13.0501C13.2932 14.3551 13.2932 15.9029 12.3827 16.9651Z" fill="#FCB404"/>
<path d="M9.98685 18.1485C9.07638 18.1485 8.10521 17.8147 7.28579 17.1166C5.95043 15.9634 5.4345 14.1728 6.04148 12.7464C6.16288 12.4732 6.31462 12.2304 6.49672 11.9876C7.71068 10.5612 10.0476 10.5005 11.6864 11.8966C12.0506 12.2001 12.3844 12.5946 12.6272 12.9892C13.4466 14.3549 13.3859 15.933 12.4755 17.0256C11.8381 17.7843 10.9277 18.1485 9.98685 18.1485ZM9.01568 11.1075C8.10521 11.1075 7.25544 11.4414 6.67881 12.1394C6.49672 12.3518 6.34497 12.5946 6.25392 12.8374C5.67729 14.1728 6.16288 15.8723 7.43754 16.9649C8.98534 18.2699 11.1705 18.2395 12.3237 16.9042C13.1735 15.9027 13.2342 14.4156 12.4755 13.1106C12.2327 12.716 11.9292 12.3822 11.5953 12.0787C10.8063 11.4414 9.86546 11.1075 9.01568 11.1075Z" fill="#613A12"/>
<path d="M12.0792 17.6171C13.0106 16.5168 12.4691 14.5274 10.8699 13.1738C9.27066 11.8201 7.21923 11.6147 6.28789 12.7149C5.35656 13.8152 5.898 15.8045 7.49724 17.1582C9.09647 18.5119 11.1479 18.7173 12.0792 17.6171Z" fill="#6D3317"/>
<path d="M10.3547 18.422C9.41393 18.422 8.35171 18.0274 7.41089 17.2384C5.77205 15.8423 5.22576 13.7786 6.19693 12.6557C7.1681 11.5024 9.29253 11.7148 10.9314 13.1109C11.7205 13.7786 12.2971 14.6284 12.5095 15.4781C12.7523 16.3582 12.6309 17.1473 12.1453 17.6936C11.7205 18.1792 11.0831 18.422 10.3547 18.422ZM7.98753 12.1094C7.31985 12.1094 6.74322 12.3218 6.34868 12.7771C5.46856 13.8393 5.98449 15.7513 7.53229 17.0866C9.08009 18.3916 11.0831 18.6041 11.9632 17.5722C12.3881 17.0563 12.5095 16.3582 12.2971 15.5388C12.0846 14.7194 11.5384 13.9303 10.7796 13.2626C9.89951 12.5039 8.86765 12.1094 7.98753 12.1094Z" fill="#613A12"/>
<g opacity="0.99">
<path opacity="0.53" d="M9.5361 13.1106C9.56645 13.323 9.68784 13.5051 9.90029 13.5962C9.32365 13.6265 8.71667 13.6569 8.26144 13.323C8.50423 13.7783 8.89877 14.1121 9.38435 14.3246C8.86842 14.537 8.29179 14.5674 7.77586 14.3853C7.9883 14.5674 8.23109 14.6887 8.47388 14.8101C8.26144 14.7798 8.01865 14.8101 7.8062 14.8405C8.049 15.0226 8.32214 15.144 8.59528 15.1743C7.9883 15.235 7.35097 15.0833 6.80469 14.7494C7.13853 15.3564 7.62411 15.842 8.20074 16.2062C7.9883 16.2972 7.74551 16.3276 7.50271 16.3276C7.65446 16.5097 7.8669 16.6311 8.10969 16.6918C7.9276 16.6918 7.71516 16.6918 7.53306 16.6918C7.56341 17.056 7.8062 17.3595 8.07935 17.5719C8.38284 17.7843 8.74702 17.8754 9.08086 17.9664C9.4147 18.0575 9.77889 18.1485 10.052 17.9968C10.3555 17.8147 10.4769 17.4505 10.6287 17.1167C11.0232 16.2669 11.7819 15.6903 12.2675 14.9315C12.7227 14.2335 11.6605 13.8086 11.1142 13.6872C10.9322 13.6569 9.56645 13.3534 9.5361 13.1106Z" fill="#472702"/>
</g>
<path d="M32.3294 17.0564C30.7209 18.4221 28.4751 18.3918 27.2915 16.9957C26.472 16.0246 26.381 14.6588 26.9576 13.4449C27.2004 12.929 27.5646 12.4434 28.0502 12.0185C29.6587 10.6528 31.9045 10.7135 33.0881 12.0792C33.1488 12.1399 33.2095 12.2309 33.2702 12.322C34.2414 13.718 33.8468 15.7818 32.3294 17.0564Z" fill="#FCB404"/>
<path d="M29.7152 18.1485C28.7441 18.1485 27.8336 17.7844 27.2266 17.056C26.4072 16.0848 26.2554 14.6888 26.8624 13.3837C27.1052 12.8375 27.4998 12.3215 27.9853 11.927C29.6242 10.5309 31.9611 10.5916 33.175 12.018C33.2357 12.1091 33.2964 12.1698 33.3571 12.2608C34.3586 13.7176 33.9337 15.842 32.4163 17.147C31.5969 17.8147 30.6257 18.1485 29.7152 18.1485ZM30.6864 11.1076C29.8063 11.1076 28.8958 11.4414 28.1371 12.0787C27.6818 12.4733 27.3177 12.9589 27.0749 13.4748C26.4982 14.6888 26.6196 15.9938 27.4087 16.9042C28.562 18.2396 30.7471 18.2699 32.2949 16.9649C33.7516 15.751 34.1462 13.7176 33.2054 12.3519C33.1447 12.2912 33.084 12.2001 33.0233 12.1394C32.4163 11.4718 31.5665 11.1076 30.6864 11.1076Z" fill="#613A12"/>
<path d="M32.2332 17.1575C33.8324 15.8038 34.3738 13.8145 33.4425 12.7142C32.5112 11.614 30.4597 11.8194 28.8605 13.1731C27.2613 14.5268 26.7198 16.5161 27.6512 17.6164C28.5825 18.7166 30.6339 18.5112 32.2332 17.1575Z" fill="#6D3317"/>
<path d="M29.324 18.4219C28.5653 18.4219 27.9583 18.1488 27.5334 17.6632C27.0479 17.1169 26.9265 16.3279 27.1692 15.4477C27.412 14.598 27.9583 13.7482 28.7474 13.0805C30.3862 11.6845 32.5107 11.5024 33.4818 12.6253C33.9674 13.1716 34.0888 13.9606 33.846 14.8408C33.6032 15.6905 33.057 16.5403 32.2679 17.208C31.4788 17.8757 30.5683 18.3005 29.6579 18.3916C29.5668 18.4219 29.4454 18.4219 29.324 18.4219ZM31.7216 12.1093C30.8415 12.1093 29.8096 12.5039 28.9295 13.2626C28.1708 13.8999 27.6245 14.7194 27.412 15.5388C27.1996 16.3582 27.321 17.0562 27.7459 17.5722C28.1708 18.0881 28.8688 18.3005 29.6882 18.2398C30.538 18.1488 31.4181 17.7543 32.1768 17.1169C32.9356 16.4796 33.4818 15.6602 33.6943 14.8408C33.9067 14.0213 33.7853 13.3233 33.3604 12.8074C32.9659 12.3218 32.3893 12.1093 31.7216 12.1093Z" fill="#613A12"/>
<g opacity="0.99">
<path opacity="0.53" d="M28.2559 13.5051C29.2877 13.6569 30.3499 13.6872 31.4122 13.5658C31.139 13.7783 30.8355 13.93 30.5017 14.0211C30.8659 14.1728 31.2604 14.2335 31.6246 14.1425C31.3515 14.2335 31.1087 14.3549 30.8659 14.5066C31.5639 14.8405 32.4137 14.5066 33.1117 14.1728C32.8386 15.1743 32.0798 16.0544 31.1087 16.4793C31.7156 16.4793 32.3226 16.2972 32.8082 15.9634C32.444 16.8739 31.5639 17.5415 30.5624 17.6629C30.3196 16.8132 29.8644 16.0241 29.2877 15.3868C29.0753 15.144 28.8325 14.9315 28.6807 14.6584C28.4986 14.3852 28.4076 14.0514 28.4986 13.7479C28.62 13.7176 28.7414 13.6872 28.8628 13.6569" fill="#472702"/>
</g>
<path d="M32.4751 22.5493C32.4751 22.8224 32.4751 23.0956 32.4447 23.3687C32.4144 23.9757 32.293 24.5523 32.1716 25.0986C32.0198 25.6449 31.8377 26.1305 31.5949 26.5857C31.3521 27.0409 31.079 27.4355 30.7452 27.7997C30.5024 28.0425 30.2596 28.2852 29.9864 28.4977C27.7103 30.3186 24.0987 30.8649 20.032 30.8649C16.208 30.8649 12.7785 30.3793 10.5024 28.8012C10.1382 28.528 9.774 28.2549 9.47051 27.9211C9.13667 27.5872 8.86353 27.1927 8.62073 26.7981C8.31724 26.3126 8.07445 25.7359 7.92271 25.129C7.77096 24.5827 7.67991 24.006 7.61922 23.3687C7.58887 23.0956 7.58887 22.8528 7.58887 22.5493C7.58887 22.0334 7.61922 21.5478 7.67992 21.0622C7.98341 18.6646 8.95457 16.4795 10.4417 14.7192C10.5327 14.6282 10.6238 14.5068 10.7148 14.4157C11.8681 13.1411 13.2641 12.1092 14.8726 11.3808C15.0244 11.3201 15.1458 11.2595 15.2975 11.1988C15.9348 10.956 16.5722 10.7435 17.2399 10.5918C17.4826 10.5311 17.7254 10.5007 17.9682 10.44C18.2717 10.3793 18.6056 10.349 18.9091 10.3186C18.9697 10.3186 19.0608 10.3186 19.1215 10.2883C19.425 10.2579 19.7588 10.2579 20.0623 10.2579C20.5782 10.2579 21.0942 10.2883 21.5798 10.349C21.6101 10.349 21.6405 10.349 21.6708 10.349C21.9743 10.3793 22.2474 10.44 22.5206 10.5007C22.7027 10.5311 22.8848 10.5614 23.0669 10.6221C23.7952 10.8042 24.4933 11.047 25.1609 11.3202C25.252 11.3505 25.343 11.3808 25.4037 11.4415C26.1625 11.8057 26.8605 12.2003 27.5282 12.6859C27.5889 12.7466 27.6496 12.7769 27.7103 12.8376C30.3506 14.871 32.1716 17.9362 32.4751 21.396C32.4751 21.7906 32.4751 22.1851 32.4751 22.5493Z" fill="#FCB404"/>
<path d="M20.0089 30.9562C15.5172 30.9562 12.452 30.2885 10.4186 28.8925C10.0241 28.6193 9.65989 28.3158 9.3564 28.0123C9.02256 27.6482 8.71907 27.284 8.47628 26.8591C8.17279 26.3431 7.93 25.7665 7.7479 25.1595C7.59616 24.6133 7.50511 24.0063 7.44441 23.3689C7.41406 23.0958 7.41406 22.8227 7.41406 22.5495C7.41406 22.0639 7.44441 21.548 7.50511 21.0624C8.05139 16.6315 10.9952 12.8378 15.1834 11.1079C16.0332 10.7438 16.9437 10.501 17.8541 10.3492C18.2487 10.2885 18.6432 10.2278 19.0377 10.1975C19.8875 10.1368 20.7676 10.1671 21.5871 10.2582C21.8602 10.2885 22.1637 10.3492 22.4368 10.4099C23.3473 10.592 24.2578 10.8651 25.1075 11.2293C29.2654 13.0503 32.0878 16.9653 32.5127 21.3963C32.543 21.7604 32.5734 22.155 32.5734 22.5192C32.5734 22.7923 32.5734 23.0958 32.543 23.3386C32.5127 23.9456 32.3913 24.5526 32.2699 25.0685C32.1182 25.6148 31.9361 26.1004 31.6629 26.5556C31.4201 27.0108 31.1166 27.4054 30.7828 27.7999C30.54 28.0427 30.2972 28.3158 30.0241 28.5283C28.021 30.1975 24.8344 30.9562 20.0089 30.9562ZM20.0089 10.3796C19.7054 10.3796 19.4019 10.3796 19.0681 10.4099C18.6735 10.4403 18.3094 10.4706 17.9148 10.5617C17.0044 10.7134 16.1242 10.9562 15.2745 11.3204C11.147 12.9896 8.26383 16.7529 7.71755 21.0928C7.65685 21.5784 7.6265 22.0639 7.6265 22.5495C7.6265 22.8227 7.6265 23.0958 7.65685 23.3386C7.6872 23.9456 7.8086 24.5526 7.96034 25.0685C8.11209 25.6755 8.35488 26.2218 8.65837 26.7073C8.90116 27.1019 9.17431 27.4661 9.50814 27.8302C9.81164 28.1337 10.1455 28.4372 10.54 28.7104C12.543 30.1064 15.5476 30.7438 20.0089 30.7438C24.7737 30.7438 27.8996 29.985 29.9027 28.4069C30.1758 28.1944 30.4186 27.9516 30.6614 27.7089C30.9952 27.3447 31.2684 26.9501 31.5112 26.5252C31.754 26.07 31.9361 25.5844 32.0878 25.0685C32.2396 24.5526 32.3306 23.9759 32.361 23.3689C32.3913 23.1262 32.3913 22.853 32.3913 22.5495C32.3913 22.1853 32.361 21.7908 32.3306 21.4266C31.9361 17.0564 29.144 13.2324 25.0772 11.4418C24.2274 11.0776 23.3776 10.8045 22.4672 10.6224C22.194 10.5617 21.8905 10.5313 21.6174 10.4706C21.1015 10.4099 20.5552 10.3796 20.0089 10.3796Z" fill="#613A12"/>
<path d="M17.351 18.0575C15.4997 15.7207 14.9838 12.8982 14.832 11.3807C14.9838 11.32 15.1052 11.2594 15.2569 11.1987C15.8942 10.9559 16.5316 10.7434 17.1993 10.5917C16.653 13.3534 17.351 18.0575 17.351 18.0575Z" fill="#613A12"/>
<path d="M17.3542 18.1487C17.3239 18.1487 17.2935 18.1487 17.2632 18.1184C15.4119 15.7512 14.8656 12.8984 14.7139 11.4113C14.7139 11.3809 14.7442 11.3202 14.7746 11.3202C14.9263 11.2595 15.0781 11.1988 15.1995 11.1381C15.8368 10.865 16.5045 10.6829 17.1721 10.5311C17.2025 10.5311 17.2328 10.5311 17.2632 10.5615C17.2935 10.5918 17.2935 10.6222 17.2935 10.6525C16.7776 13.3536 17.4453 18.0273 17.4453 18.088C17.4453 18.1487 17.4149 18.1791 17.3846 18.2094C17.3846 18.1487 17.3542 18.1487 17.3542 18.1487ZM14.9263 11.4416C15.0781 12.868 15.5636 15.4477 17.1721 17.6631C17.0204 16.4795 16.6562 12.9894 17.0204 10.7132C16.4134 10.865 15.8368 11.0471 15.2602 11.2899C15.1691 11.3506 15.0477 11.4112 14.9263 11.4416Z" fill="#613A12"/>
<path d="M25.3451 11.4721C25.1934 12.9896 24.6471 15.7513 22.8262 18.0579C22.8262 18.0579 23.4939 13.3841 23.0083 10.6527" fill="#613A12"/>
<path d="M22.8616 18.1487H22.8312C22.8009 18.1184 22.7705 18.088 22.7705 18.0273C22.7705 17.9666 23.4382 13.3536 22.9526 10.6525C22.9526 10.5918 22.9829 10.5311 23.0436 10.5311C23.1043 10.5311 23.165 10.5615 23.165 10.6222C23.5899 12.8984 23.1954 16.4795 23.0436 17.6631C24.6521 15.4477 25.1377 12.8377 25.2895 11.4416C25.2895 11.3809 25.3502 11.3506 25.4109 11.3506C25.4716 11.3506 25.5019 11.4113 25.5019 11.4719C25.3502 12.9591 24.8039 15.7815 22.9526 18.1184C22.9223 18.1487 22.8919 18.1487 22.8616 18.1487Z" fill="#613A12"/>
<path d="M21.5582 10.3793C21.4975 17.7237 20.1318 18.8163 20.1318 18.8163C18.3108 16.1456 18.6447 12.0484 18.8875 10.3489C18.9482 10.3489 19.0392 10.3489 19.0999 10.3186C19.4034 10.2882 19.7373 10.2882 20.0407 10.2882C20.5263 10.2882 21.0423 10.3186 21.5582 10.3793Z" fill="#613A12"/>
<path d="M20.1269 18.9074C20.0966 18.9074 20.0966 18.9074 20.1269 18.9074C20.0966 18.9074 20.0662 18.877 20.0359 18.8467C18.1846 16.1456 18.5488 11.9574 18.7612 10.2882C18.7612 10.2275 18.7916 10.1972 18.8523 10.1972C18.913 10.1972 19.004 10.1972 19.0647 10.1668C19.8841 10.1061 20.7339 10.1365 21.5533 10.2275C21.614 10.2275 21.6444 10.2882 21.6444 10.3186C21.5837 17.6327 20.2483 18.786 20.1876 18.8467C20.1573 18.9074 20.1269 18.9074 20.1269 18.9074ZM18.9737 10.44C18.7309 12.1092 18.4274 16.0242 20.1269 18.6342C20.4001 18.27 21.3713 16.5098 21.4319 10.4703C20.6732 10.3793 19.8538 10.3793 19.0951 10.44C19.0344 10.44 19.004 10.44 18.9737 10.44Z" fill="#613A12"/>
<path d="M32.4786 22.5489C32.4786 22.8221 32.4786 23.0952 32.4483 23.3684C30.1114 23.2773 28.8975 21.7599 28.8975 21.7599C30.0507 22.3972 31.4164 21.9723 32.4483 21.426C32.4786 21.7902 32.4786 22.1847 32.4786 22.5489Z" fill="#613A12"/>
<path d="M32.4478 23.4596C30.0806 23.3685 28.8667 21.8814 28.806 21.7904C28.7756 21.76 28.7756 21.6993 28.806 21.669C28.8363 21.6386 28.897 21.6083 28.9274 21.6386C30.0503 22.276 31.416 21.8207 32.3568 21.3048C32.3872 21.2745 32.4175 21.2745 32.4478 21.3048C32.4782 21.3352 32.5085 21.3655 32.5085 21.3959C32.5389 21.76 32.5692 22.1546 32.5692 22.5188C32.5692 22.7919 32.5692 23.0954 32.5389 23.3382C32.5692 23.4292 32.5085 23.4596 32.4478 23.4596ZM29.3522 22.0635C29.8682 22.4884 30.8697 23.1561 32.3568 23.2775C32.3568 23.065 32.3871 22.8223 32.3871 22.5795C32.3871 22.2456 32.3872 21.9421 32.3568 21.6083C31.507 22.0028 30.3841 22.367 29.3522 22.0635Z" fill="#613A12"/>
<path d="M32.1657 25.099C32.0139 25.6452 31.8318 26.1308 31.589 26.5861C30.6786 26.1308 29.3736 25.2507 29.3736 23.8243C29.3432 23.794 30.6482 24.8562 32.1657 25.099Z" fill="#613A12"/>
<path d="M31.5897 26.677C31.5594 26.677 31.5594 26.677 31.5594 26.677C30.7096 26.2825 29.2832 25.3417 29.2832 23.7939C29.2832 23.7635 29.3136 23.7028 29.3439 23.7028C29.3742 23.6725 29.435 23.7028 29.4653 23.7028C29.4653 23.7028 30.7703 24.765 32.2271 24.9775C32.2574 24.9775 32.2878 25.0078 32.2878 25.0382C32.3181 25.0685 32.3181 25.0989 32.2878 25.1292C32.136 25.6755 31.9539 26.1611 31.6808 26.6163C31.6504 26.6467 31.6201 26.677 31.5897 26.677ZM29.4653 24.0063C29.5867 25.1899 30.6186 25.979 31.529 26.4342C31.7415 26.0397 31.8932 25.6148 32.0146 25.1899C30.8614 24.9775 29.8598 24.3098 29.4653 24.0063Z" fill="#613A12"/>
<path d="M30.715 27.7698C30.4722 28.0126 30.2294 28.2553 29.9563 28.4981C29.6225 28.0429 29.2279 27.3449 29.0762 26.4041C29.1065 26.4041 29.7742 27.3752 30.715 27.7698Z" fill="#613A12"/>
<path d="M29.9595 28.5893C29.9292 28.5893 29.8988 28.5589 29.8685 28.5589C29.5346 28.1341 29.1098 27.4057 28.958 26.4345C28.958 26.3738 28.9884 26.3435 29.0187 26.3131C29.0794 26.2828 29.1098 26.3131 29.1401 26.3435C29.1401 26.3435 29.8078 27.3146 30.7183 27.6788C30.7486 27.6788 30.7789 27.7092 30.7789 27.7395C30.7789 27.7699 30.779 27.8002 30.7486 27.8306C30.5058 28.0734 30.263 28.3465 29.9899 28.5589C30.0202 28.5893 29.9899 28.5893 29.9595 28.5893ZM29.2918 26.829C29.4739 27.4967 29.7471 28.0127 29.9899 28.3465C30.2023 28.1948 30.3844 28.0127 30.5362 27.8306C29.9899 27.5574 29.565 27.1325 29.2918 26.829Z" fill="#613A12"/>
<path d="M11.8056 21.7604C11.8056 21.7604 10.3488 23.551 7.55672 23.3689C7.52637 23.0958 7.52637 22.853 7.52637 22.5495C7.52637 22.0335 7.55671 21.548 7.61741 21.0624C8.64928 21.7301 10.3792 22.5191 11.8056 21.7604Z" fill="#613A12"/>
<path d="M7.98281 23.4901C7.83106 23.4901 7.70967 23.4901 7.55792 23.4597C7.49722 23.4597 7.46687 23.4294 7.46687 23.3687C7.43652 23.0956 7.43652 22.8224 7.43652 22.5493C7.43652 22.0637 7.46687 21.5478 7.52757 21.0622C7.52757 21.0318 7.55792 21.0015 7.58827 20.9711C7.61862 20.9408 7.64897 20.9711 7.67932 20.9711C8.58979 21.5478 10.35 22.4279 11.7461 21.6388C11.7764 21.6085 11.8371 21.6388 11.8675 21.6692C11.8978 21.6995 11.8978 21.7602 11.8675 21.7906C11.8675 21.8513 10.5018 23.4901 7.98281 23.4901ZM7.67932 23.2473C9.50026 23.3384 10.7749 22.5493 11.3515 22.0333C10.0465 22.4279 8.58979 21.7602 7.74001 21.2139C7.67932 21.6388 7.67932 22.094 7.67932 22.5189C7.64897 22.7921 7.64897 23.0349 7.67932 23.2473Z" fill="#613A12"/>
<path d="M11.3553 23.7937C11.3553 25.5539 9.41296 26.4948 8.59354 26.7983C8.29005 26.3127 8.04725 25.736 7.89551 25.1291C9.6254 25.1898 11.3553 23.7937 11.3553 23.7937Z" fill="#613A12"/>
<path d="M8.59286 26.8895C8.56251 26.8895 8.53216 26.8591 8.50181 26.8288C8.19832 26.3128 7.95553 25.7362 7.77344 25.1292C7.77344 25.0989 7.77344 25.0685 7.80379 25.0382C7.83414 25.0078 7.86449 25.0078 7.89483 25.0078C9.59438 25.0685 11.2939 23.7028 11.2939 23.7028C11.3243 23.6725 11.3546 23.6725 11.4153 23.7028C11.4457 23.7332 11.476 23.7635 11.476 23.7939C11.476 25.6452 9.50333 26.586 8.65356 26.8895C8.59286 26.8895 8.59286 26.8895 8.59286 26.8895ZM8.01623 25.2203C8.16798 25.7362 8.38042 26.2218 8.62321 26.6467C9.44263 26.3432 11.0815 25.4934 11.2332 24.0063C10.7476 24.3705 9.41229 25.2203 8.01623 25.2203Z" fill="#613A12"/>
<path d="M11.5903 26.4035C11.4082 27.5871 10.8316 28.4065 10.4674 28.8011C10.1032 28.5279 9.73904 28.2548 9.43555 27.921C10.6799 27.7692 11.5903 26.4035 11.5903 26.4035Z" fill="#613A12"/>
<path d="M10.4716 28.9227C10.4413 28.9227 10.4413 28.9227 10.4109 28.8923C10.0164 28.6192 9.6522 28.3157 9.34871 28.0122C9.31836 27.9819 9.31836 27.9515 9.31836 27.8908C9.31836 27.8605 9.37906 27.8301 9.40941 27.8301C10.593 27.6784 11.5035 26.3734 11.5035 26.3734C11.5338 26.343 11.5945 26.3127 11.6249 26.343C11.6856 26.3734 11.6856 26.4037 11.6856 26.4644C11.5035 27.6784 10.8662 28.5281 10.5323 28.9227C10.5323 28.8923 10.502 28.9227 10.4716 28.9227ZM9.6522 27.9819C9.89499 28.2247 10.1681 28.4371 10.4716 28.6495C10.7751 28.3157 11.2 27.6784 11.4428 26.7983C11.0786 27.2231 10.4413 27.7998 9.6522 27.9819Z" fill="#613A12"/>
<path d="M27.1974 21.0927C27.1974 21.6996 27.0153 22.2156 26.6815 22.6101C26.4083 22.944 26.0138 23.1564 25.5889 23.1564C24.7088 23.1564 24.0107 22.2459 24.0107 21.0927C24.0107 20.9713 24.0107 20.8195 24.0411 20.6981C24.1928 19.7573 24.8302 19.0289 25.5889 19.0289C26.4994 19.0289 27.1974 19.9394 27.1974 21.0927Z" fill="#472702"/>
<path d="M25.6183 23.2167C24.7079 23.2167 23.9795 22.2759 23.9795 21.0922C23.9795 20.9405 23.9795 20.8191 24.0098 20.6977C24.1616 19.6962 24.8293 18.9982 25.6183 18.9982C26.5288 18.9982 27.2572 19.939 27.2572 21.1226C27.2572 21.6992 27.0751 22.2759 26.7413 22.6704C26.4378 23.0042 26.0432 23.2167 25.6183 23.2167ZM25.6183 19.0892C24.89 19.0892 24.2526 19.7569 24.1009 20.6977C24.0705 20.8191 24.0705 20.9709 24.0705 21.0922C24.0705 22.2152 24.7686 23.0953 25.6183 23.0953C26.0129 23.0953 26.3771 22.9132 26.6502 22.549C26.9537 22.1848 27.1358 21.6385 27.1358 21.0619C27.1358 19.9693 26.4681 19.0892 25.6183 19.0892Z" fill="#472702"/>
<path d="M21.4017 26.9194C21.1893 27.6477 20.7037 28.3154 20.1574 28.3154C19.8843 28.3154 19.6415 28.1637 19.429 27.8905C19.2166 27.6174 19.0345 27.2836 18.9131 26.889C19.2469 26.8587 19.6718 26.7676 20.1574 26.5552C20.4002 26.6766 20.6126 26.7373 20.8251 26.798C21.0375 26.889 21.2196 26.9194 21.4017 26.9194Z" fill="#EF5823"/>
<path d="M20.1586 28.437C19.8855 28.437 19.582 28.2852 19.3392 27.9817C19.1267 27.7086 18.9143 27.3444 18.8232 26.9499C18.8232 26.9195 18.8232 26.8892 18.8232 26.8588C18.8232 26.8285 18.8839 26.8285 18.9143 26.8285C19.2785 26.7981 19.673 26.7071 20.0979 26.4946C20.1282 26.4946 20.1586 26.4946 20.1889 26.4946C20.4014 26.5857 20.6442 26.6767 20.8566 26.7374C21.0387 26.7981 21.2512 26.8285 21.4333 26.8285C21.4636 26.8285 21.494 26.8588 21.5243 26.8588C21.5547 26.8892 21.5547 26.9195 21.5243 26.9499C21.2815 27.6782 20.7959 28.437 20.1586 28.437ZM19.066 27.0106C19.1874 27.3444 19.3392 27.6175 19.5213 27.83C19.673 28.0121 19.8855 28.1942 20.1889 28.1942C20.6745 28.1942 21.0994 27.5872 21.2815 26.9802C21.1298 26.9802 20.978 26.9499 20.8263 26.8892C20.6138 26.8285 20.4014 26.7678 20.1889 26.6767C19.7641 26.8588 19.3999 26.9802 19.066 27.0106Z" fill="#613A12"/>
<g opacity="0.5">
<path opacity="0.43" d="M25.1671 21.9727C25.4017 21.9727 25.592 21.6738 25.592 21.305C25.592 20.9363 25.4017 20.6373 25.1671 20.6373C24.9324 20.6373 24.7422 20.9363 24.7422 21.305C24.7422 21.6738 24.9324 21.9727 25.1671 21.9727Z" fill="white"/>
</g>
<path d="M16.4259 21.0928C16.4259 21.457 16.3349 21.8212 16.2135 22.1247C15.9403 22.7317 15.4244 23.1566 14.8174 23.1566C13.9373 23.1566 13.2393 22.2461 13.2393 21.0928C13.2393 19.9396 13.9373 19.0291 14.8174 19.0291C15.6672 19.0291 16.3349 19.8789 16.3956 20.9411C16.4259 20.9715 16.4259 21.0321 16.4259 21.0928Z" fill="#472702"/>
<path d="M14.8469 23.217C13.9364 23.217 13.208 22.2762 13.208 21.0926C13.208 19.9393 13.9364 18.9681 14.8469 18.9681C15.6966 18.9681 16.425 19.8179 16.4857 20.9105C16.4857 20.9712 16.4857 21.0319 16.4857 21.0926C16.4857 21.4568 16.425 21.8209 16.2733 22.1244C15.9698 22.7921 15.4235 23.217 14.8469 23.217ZM14.8469 19.0895C13.9971 19.0895 13.2991 20 13.2991 21.0926C13.2991 22.2155 13.9971 23.0956 14.8469 23.0956C15.3931 23.0956 15.9091 22.7011 16.1822 22.0941C16.3036 21.7906 16.3947 21.4568 16.3947 21.0926C16.3947 21.0319 16.3947 20.9712 16.3947 20.9408C16.3036 19.8786 15.6359 19.0895 14.8469 19.0895Z" fill="#472702"/>
<path d="M18.7621 27.0107C17.6696 27.0107 17.2143 26.3127 17.184 26.2823C17.1536 26.2216 17.1536 26.1609 17.2143 26.1306C17.275 26.1002 17.3357 26.1002 17.3661 26.1609C17.3964 26.1913 17.8517 26.859 18.9139 26.7983C19.2781 26.7679 19.6423 26.6769 20.0368 26.4948V24.8863C20.0368 24.8256 20.0975 24.7952 20.1279 24.7952C20.1886 24.7952 20.2189 24.8559 20.2189 24.8863V26.5555C20.2189 26.5858 20.1885 26.6465 20.1582 26.6465C19.703 26.859 19.2781 26.95 18.8835 26.9804C18.8532 27.0107 18.8228 27.0107 18.7621 27.0107Z" fill="#613A12"/>
<path d="M21.5203 27.0106C21.49 27.0106 21.4293 27.0106 21.3989 27.0106C21.0044 26.9802 20.5491 26.8892 20.0939 26.6767C20.0636 26.6464 20.0332 26.616 20.0332 26.5857V24.9165C20.0332 24.8558 20.0939 24.8254 20.1243 24.8254C20.1849 24.8254 20.2153 24.8861 20.2153 24.9165V26.525C20.6402 26.7071 21.0044 26.7981 21.3686 26.8285C22.4308 26.8892 22.8557 26.2215 22.886 26.1911C22.9164 26.1304 22.9771 26.1304 23.0378 26.1608C23.0985 26.1911 23.0985 26.2518 23.0681 26.3125C23.0681 26.3125 22.6129 27.0106 21.5203 27.0106Z" fill="#613A12"/>
<path d="M22.1506 23.2169C22.1506 23.8542 21.2401 25.0985 20.1476 25.0985C19.055 25.0985 18.1445 23.8542 18.1445 23.2169C18.1445 22.5795 19.055 22.0636 20.1476 22.0636C21.2401 22.0636 22.1506 22.5795 22.1506 23.2169Z" fill="#472702"/>
<path d="M20.1526 25.159C18.9993 25.159 18.0889 23.8844 18.0889 23.2167C18.0889 22.549 18.9993 22.0027 20.1526 22.0027C21.3059 22.0027 22.2163 22.549 22.2163 23.2167C22.186 23.854 21.3059 25.159 20.1526 25.159ZM20.1526 22.0938C19.0904 22.0938 18.2103 22.5794 18.2103 23.1864C18.2103 23.7933 19.0904 25.0073 20.1526 25.0073C21.2148 25.0073 22.0949 23.7933 22.0949 23.1864C22.0949 22.6097 21.2148 22.0938 20.1526 22.0938Z" fill="#472702"/>
<g opacity="0.5">
<path opacity="0.43" d="M15.2393 21.9727C15.474 21.9727 15.6642 21.6738 15.6642 21.305C15.6642 20.9363 15.474 20.6373 15.2393 20.6373C15.0047 20.6373 14.8145 20.9363 14.8145 21.305C14.8145 21.6738 15.0047 21.9727 15.2393 21.9727Z" fill="white"/>
</g>
<g opacity="0.62">
<path opacity="0.14" d="M19.942 22.7013C19.6689 22.7013 19.3654 22.7317 19.153 22.9138C18.9102 23.1565 18.9405 23.6118 19.2137 23.8242C19.0012 23.8546 18.8191 23.7028 18.7281 23.5207C18.0604 22.4889 19.7296 22.2157 20.3669 22.3068C20.6401 22.3371 21.6719 22.5496 21.6416 22.9138C21.6112 23.1262 21.2167 23.0048 21.0953 22.9441C20.7008 22.8227 20.3669 22.7013 19.942 22.7013Z" fill="white"/>
</g>
<g opacity="0.11">
<path opacity="0.11" d="M21.4024 26.9195C21.1899 27.6479 20.7043 28.3156 20.1581 28.3156C19.8849 28.3156 19.6421 28.1638 19.4297 27.8907C19.7939 27.8907 20.1581 27.7086 20.4009 27.4658C20.5829 27.2837 20.7043 27.0713 20.8257 26.8285C21.0382 26.8892 21.2203 26.9195 21.4024 26.9195Z" fill="#472702"/>
</g>
<g opacity="0.11">
<path opacity="0.11" d="M32.4751 22.5491C32.4751 22.8223 32.4751 23.0954 32.4447 23.3686C32.4144 23.9755 32.293 24.5522 32.1716 25.0985C32.0198 25.6447 31.8377 26.1303 31.5949 26.5856C31.3521 27.0408 31.079 27.4353 30.7452 27.7995C30.5024 28.0423 30.2596 28.2851 29.9864 28.4976C27.7103 30.3185 24.0987 30.8648 20.032 30.8648C16.208 30.8648 12.7785 30.3792 10.5024 28.801C10.1382 28.5279 9.774 28.2548 9.47051 27.9209C9.13667 27.5871 8.86353 27.1925 8.62073 26.798C8.31724 26.3124 8.07445 25.7358 7.92271 25.1288C7.77096 24.5825 7.67991 24.0059 7.61922 23.3686C7.58887 23.0954 7.58887 22.8526 7.58887 22.5491C7.58887 22.0332 7.61922 21.5476 7.67992 21.062C7.98341 18.6645 8.95457 16.4793 10.4417 14.7191C10.381 14.9619 10.2596 15.1743 10.1382 15.3868C8.49934 18.3913 7.52817 23.3382 9.95609 26.191C10.8666 27.2836 12.1412 28.0423 13.4462 28.5886C16.6632 29.9543 20.3051 30.2578 23.7042 29.408C24.6754 29.1652 25.5858 28.8314 26.466 28.3458C28.4386 27.2229 29.8347 25.3109 30.5327 23.1865C31.2611 20.8799 30.8969 18.5127 29.9257 16.3276C29.4098 15.1743 28.7421 14.1121 27.8924 13.1409C27.771 12.9892 27.6496 12.8678 27.5282 12.7161C30.2899 14.7494 32.1716 17.8754 32.4751 21.4262C32.4751 21.7904 32.4751 22.185 32.4751 22.5491Z" fill="#613A12"/>
</g>
<g opacity="0.16">
<path opacity="0.16" d="M28.2301 13.6874C23.9508 11.563 18.8522 11.1381 14.2695 12.5038C13.9053 12.6252 13.5108 12.7466 13.1769 12.9287C12.9645 13.0501 12.7521 13.1715 12.5396 13.3232C11.9326 13.7178 11.356 14.082 10.749 14.4765V14.4461C11.9023 13.1715 13.2983 12.1396 14.9068 11.4112C15.0586 11.3505 15.18 11.2898 15.3317 11.2291C15.9691 10.9864 16.6064 10.7739 17.2741 10.6222C17.5169 10.5615 17.7596 10.5311 18.0024 10.4704C18.3059 10.4097 18.6398 10.3794 18.9433 10.349C19.004 10.349 19.095 10.349 19.1557 10.3187C19.4592 10.2883 19.793 10.2883 20.0965 10.2883C20.6125 10.2883 21.1284 10.3187 21.614 10.3794C21.6443 10.3794 21.6747 10.3794 21.705 10.3794C22.0085 10.4097 22.2816 10.4704 22.5548 10.5311C22.7369 10.5615 22.919 10.5918 23.1011 10.6525C23.8294 10.8346 24.5275 11.0774 25.1952 11.3505C25.2862 11.3809 25.3772 11.4112 25.4379 11.4719C26.1967 11.8361 26.8947 12.2307 27.5624 12.7163C27.6231 12.7769 27.6838 12.8073 27.7445 12.868C27.8659 13.1108 28.048 13.3839 28.2301 13.6874Z" fill="#613A12"/>
</g>
<g opacity="0.26">
<path opacity="0.26" d="M26.6736 22.6102C26.8253 22.246 26.795 21.7908 26.7343 21.3659C26.6736 20.941 26.5522 20.4857 26.3094 20.1216C26.0666 19.7574 25.6114 19.4842 25.1865 19.5753C24.8526 19.636 24.5795 19.9091 24.367 20.1823C24.2456 20.334 24.1243 20.5161 24.0332 20.6982C24.1849 19.7574 24.8223 19.029 25.581 19.029C26.4611 19.029 27.1592 19.9395 27.1592 21.0927C27.1895 21.6694 27.0074 22.2156 26.6736 22.6102Z" fill="#231F20"/>
</g>
<g opacity="0.26">
<path opacity="0.26" d="M13.6974 20.9106C13.6671 21.3355 13.6974 21.7604 13.9099 22.1246C14.092 22.4888 14.4865 22.7923 14.881 22.7923C15.397 22.8226 15.8219 22.4584 16.186 22.0942C16.186 22.0942 16.186 22.1246 16.2164 22.1246C15.9433 22.7316 15.4273 23.1565 14.8203 23.1565C13.9402 23.1565 13.2422 22.246 13.2422 21.0927C13.2422 19.9395 13.9402 19.029 14.8203 19.029C15.6701 19.029 16.3378 19.8788 16.3985 20.941C16.3985 20.9106 16.3985 20.9106 16.3681 20.8803C16.1557 20.1216 15.3059 19.2111 14.4561 19.5753C13.9706 19.7574 13.7581 20.3644 13.6974 20.9106Z" fill="#231F20"/>
</g>
<g opacity="0.43">
<path opacity="0.43" d="M26.3149 24.4005C26.588 24.5219 26.8611 24.6737 27.0129 24.9164C27.1646 25.1592 27.195 25.5234 27.0432 25.7662C26.9218 25.9483 26.7094 26.0394 26.497 26.1001C25.6472 26.3428 24.676 26.1001 24.0387 25.4931C23.8566 25.311 23.7048 25.0985 23.7655 24.8558C23.8566 24.4916 24.4636 24.3702 24.7671 24.2791C25.2526 24.1274 25.8293 24.1881 26.3149 24.4005Z" fill="#EF5823"/>
</g>
<g opacity="0.43">
<path opacity="0.43" d="M14.2715 24.4007C13.9984 24.5221 13.7252 24.6738 13.5735 24.9166C13.4217 25.1594 13.3914 25.5236 13.5431 25.7664C13.6645 25.9485 13.877 26.0395 14.0894 26.1002C14.9392 26.343 15.9103 26.1002 16.5477 25.4933C16.7298 25.3112 16.8815 25.0987 16.8208 24.8559C16.7298 24.4917 16.1228 24.3703 15.8193 24.2793C15.3034 24.1276 14.7571 24.1883 14.2715 24.4007Z" fill="#EF5823"/>
</g>
<g opacity="0.11">
<path opacity="0.11" d="M12.231 12.8377L12.2007 12.8681C11.9882 13.0502 11.6847 12.5039 11.533 12.4128C11.3205 12.2611 11.0777 12.1093 10.835 11.9879C10.319 11.7148 9.77274 11.5631 9.19611 11.5024C8.10355 11.4113 6.91993 11.8362 6.22191 12.686C6.19156 12.7163 6.16121 12.7467 6.13086 12.8074C6.25226 12.5342 6.404 12.2914 6.58609 12.079C7.76971 10.6829 10.0155 10.6526 11.624 12.0183C11.7758 12.1093 12.3828 12.5949 12.231 12.8377Z" fill="#613A12"/>
</g>
<g opacity="0.11">
<path opacity="0.11" d="M33.2649 12.2913C33.0524 12.1092 32.84 11.9271 32.5972 11.7754C31.7474 11.3202 30.6852 11.3202 29.7747 11.654C29.3498 11.8058 28.9856 12.0182 28.6215 12.261C28.3787 12.4431 27.9841 12.868 27.6806 12.8983C27.013 12.959 27.9538 12.1092 28.0752 11.9878C29.6837 10.6221 31.9295 10.6828 33.1131 12.0485C33.1435 12.1396 33.2042 12.2306 33.2649 12.2913Z" fill="#613A12"/>
</g>
</svg>
