<svg width="116" height="148" viewBox="0 0 116 148" fill="none" xmlns="http://www.w3.org/2000/svg">
<g clip-path="url(#clip0)">
<path opacity="0.4" d="M57.6165 99.2985C84.9726 99.2985 107.149 77.122 107.149 49.7659C107.149 22.4099 84.9726 0.233398 57.6165 0.233398C30.2605 0.233398 8.08398 22.4099 8.08398 49.7659C8.08398 77.122 30.2605 99.2985 57.6165 99.2985Z" fill="#C9B8A5"/>
<path d="M14.7213 25C21.2641 13.5885 32.0678 5.23943 44.7605 1.78576C57.5475 -1.72097 71.2035 -0.00917022 82.7293 6.54519C94.2551 13.0995 102.708 23.9605 106.232 36.7428C108.892 46.3585 108.605 56.5514 105.408 66.0022C102.211 75.4531 96.2515 83.727 88.3002 89.7532C83.0325 93.7542 77.0329 96.6858 70.6394 98.3826C61.0533 100.879 50.9422 100.473 41.5868 97.2175C32.2314 93.962 24.0528 88.003 18.087 80.0954C14.1701 74.878 11.303 68.9501 9.6446 62.6403C6.28175 49.9166 8.10771 36.3782 14.7213 25ZM14.7213 25C8.18903 36.3771 6.44362 49.8829 9.86898 62.5468C11.586 68.7907 14.5256 74.6316 18.5171 79.7308C24.475 87.3701 32.5638 93.0718 41.7612 96.1154C50.9586 99.159 60.8518 99.4079 70.1906 96.8306C82.6426 93.4367 93.25 85.2618 99.7041 74.0853C106.158 62.9088 107.937 49.6354 104.652 37.1541C101.359 24.5723 93.2106 13.8102 81.9932 7.22882C70.7759 0.6474 57.406 -1.21595 44.8166 2.04754C32.1429 5.41472 21.3207 13.6684 14.7213 25Z" fill="#C9B8A5"/>
<path d="M38.0299 40.3232C34.9352 43.9881 29.0171 44.0629 24.8193 40.5195C21.2946 37.5277 20.1447 32.9279 21.6406 29.3658C21.9389 28.6715 22.3391 28.0255 22.8279 27.4492C25.9225 23.7936 31.8406 23.7095 36.0385 27.2529C36.9848 28.0501 37.7934 28.9977 38.4319 30.0576C40.4326 33.4234 40.4046 37.5184 38.0299 40.3232Z" fill="#FCB404"/>
<path d="M31.6997 43.3987C29.1047 43.3699 26.6038 42.4226 24.641 40.7248C21.0976 37.7331 19.7606 33.0117 21.3874 29.2533C21.6961 28.536 22.1088 27.8681 22.6122 27.2712C25.8003 23.5315 31.9054 23.4006 36.2154 27.0468C37.1857 27.8635 38.0162 28.833 38.6742 29.9171C40.8059 33.5072 40.6376 37.6583 38.2442 40.4911C37.4323 41.4248 36.4255 42.1691 35.2947 42.6715C34.164 43.1738 32.9368 43.4221 31.6997 43.3987ZM29.1567 24.9245C28.0005 24.8998 26.8529 25.129 25.7949 25.5958C24.7368 26.0627 23.794 26.7558 23.0329 27.6265C22.5592 28.1877 22.1745 28.8183 21.8923 29.4963C20.359 33.0304 21.6398 37.4806 24.9962 40.3228C29.0725 43.7727 34.8223 43.6979 37.8235 40.1639C40.0673 37.5087 40.2169 33.6194 38.1974 30.2256C37.5732 29.1909 36.7836 28.2655 35.8601 27.4862C33.9971 25.8694 31.6231 24.9622 29.1567 24.9245Z" fill="#613A12"/>
<path d="M37.1705 41.9962C39.6159 39.1075 38.1928 33.8827 33.9917 30.3262C29.7907 26.7698 24.4027 26.2285 21.9572 29.1172C19.5117 32.0059 20.9349 37.2307 25.1359 40.7871C29.337 44.3436 34.725 44.8849 37.1705 41.9962Z" fill="#6D3317"/>
<path d="M32.6725 44.1192C29.8173 44.0034 27.0909 42.8996 24.9593 40.9965C20.6493 37.397 19.2188 31.9371 21.7525 28.9827C24.2861 26.0283 29.8583 26.4677 34.1777 30.1139C36.1553 31.7253 37.6072 33.89 38.3475 36.3312C38.6861 37.3051 38.778 38.3478 38.6148 39.366C38.4516 40.3841 38.0386 41.3458 37.4125 42.1652C36.817 42.8223 36.0827 43.3385 35.2628 43.6765C34.4429 44.0145 33.558 44.1657 32.6725 44.1192ZM26.4458 27.5335C25.6474 27.4943 24.8501 27.6324 24.1114 27.9379C23.3726 28.2435 22.7107 28.7088 22.1732 29.3006C19.8265 32.1053 21.2383 37.1259 25.3146 40.5758C29.3909 44.0257 34.6078 44.5773 36.9825 41.8099C37.5517 41.0602 37.9272 40.1815 38.0756 39.252C38.224 38.3224 38.1408 37.3705 37.8333 36.4808C37.1247 34.1453 35.7346 32.0747 33.8411 30.5347C31.7978 28.7083 29.184 27.6476 26.4458 27.5335Z" fill="#613A12"/>
<g opacity="0.53">
<path opacity="0.53" d="M30.5505 30.1699C30.5857 30.4497 30.6894 30.7164 30.8525 30.9464C31.0156 31.1764 31.2331 31.3625 31.4854 31.4882C29.9896 31.6004 28.3441 31.6658 27.1567 30.7402C27.8092 31.9134 28.8411 32.8299 30.0831 33.3393C28.7496 33.9196 27.2501 33.9927 25.8665 33.545C26.4434 33.9939 27.071 34.3736 27.7364 34.6763C27.1388 34.6291 26.5376 34.6668 25.9507 34.7885C26.5552 35.2521 27.2709 35.5487 28.0262 35.6486C26.3927 35.8048 24.7526 35.4276 23.3516 34.5734C24.2359 36.1407 25.4952 37.4641 27.0165 38.4253C26.447 38.6776 25.8236 38.7837 25.2027 38.7339C25.6221 39.2036 26.1778 39.5305 26.7921 39.6688H25.2588C25.3 40.1424 25.4517 40.5998 25.7017 41.0041C25.9518 41.4084 26.2932 41.7484 26.6986 41.9968C27.524 42.4732 28.4204 42.8141 29.3538 43.0065C30.183 43.3327 31.105 43.3327 31.9342 43.0065C32.7569 42.5577 33.0748 41.5667 33.4768 40.7253C34.5146 38.5188 36.4686 36.9856 37.7869 34.9474C39.0023 33.0776 36.2255 32.0024 34.7483 31.6565C34.178 31.591 30.6253 30.8524 30.5505 30.1699Z" fill="#472702"/>
</g>
<path d="M90.413 40.5193C86.2058 44.072 80.2971 43.9879 77.1931 40.323C76.1507 39.0215 75.5076 37.4459 75.3417 35.7867C75.1757 34.1275 75.4941 32.4558 76.2582 30.9737C76.9448 29.5361 77.9296 28.2613 79.1471 27.234C83.345 23.6812 89.2631 23.7747 92.367 27.4303C92.526 27.6266 92.6849 27.8323 92.8251 28.038C95.3962 31.731 94.3865 37.1536 90.413 40.5193Z" fill="#FCB404"/>
<path d="M83.5321 43.3992C82.2953 43.427 81.0675 43.1816 79.9363 42.6807C78.8051 42.1797 77.7983 41.4355 76.9876 40.501C75.9192 39.1609 75.2623 37.5397 75.0963 35.8339C74.9304 34.1281 75.2626 32.4108 76.0527 30.8899C76.7657 29.4085 77.7892 28.0979 79.0538 27.0473C83.3638 23.4011 89.4689 23.504 92.657 27.2717C92.827 27.4719 92.9862 27.681 93.1338 27.8981C95.7516 31.6939 94.6484 37.3222 90.6376 40.7253C88.6609 42.4306 86.1427 43.3782 83.5321 43.3992ZM86.0658 24.925C83.6012 24.9551 81.2267 25.8559 79.3623 27.4681C78.1793 28.4744 77.2233 29.7204 76.5576 31.1236C75.8136 32.5497 75.4989 34.1608 75.6515 35.762C75.8042 37.3632 76.4176 38.8859 77.4177 40.1457C80.4095 43.6797 86.1686 43.7545 90.2449 40.3046C94.0127 37.0885 95.0878 31.7874 92.6383 28.216C92.4993 28.0119 92.3495 27.8153 92.1896 27.627C91.4284 26.7563 90.4856 26.0632 89.4276 25.5963C88.3695 25.1295 87.222 24.9003 86.0658 24.925Z" fill="#613A12"/>
<path d="M90.0953 40.7783C94.2963 37.2218 95.7195 31.997 93.274 29.1083C90.8285 26.2196 85.4405 26.7609 81.2394 30.3173C77.0384 33.8738 75.6153 39.0986 78.0607 41.9873C80.5062 44.876 85.8942 44.3347 90.0953 40.7783Z" fill="#6D3317"/>
<path d="M82.5414 44.1287C81.6657 44.1663 80.7925 44.0097 79.9843 43.6703C79.1762 43.3309 78.4531 42.817 77.8667 42.1654C77.2407 41.346 76.8277 40.3843 76.6645 39.3662C76.5013 38.348 76.5932 37.3053 76.9318 36.3314C77.6685 33.8909 79.1172 31.726 81.0923 30.1141C85.4023 26.4679 90.9745 25.935 93.5175 28.9361C94.1435 29.7555 94.5565 30.7172 94.7197 31.7354C94.8829 32.7535 94.791 33.7962 94.4524 34.7701C93.681 37.2011 92.2422 39.3665 90.2999 41.0195C88.3576 42.6725 85.99 43.7466 83.467 44.1194C83.1397 44.11 82.7938 44.1287 82.5414 44.1287ZM88.7774 27.5337C86.0493 27.6557 83.4469 28.7158 81.4101 30.5349C79.5227 32.0726 78.1334 34.1353 77.418 36.4623C77.1105 37.352 77.0272 38.3039 77.1756 39.2335C77.324 40.163 77.6995 41.0417 78.2688 41.7914C78.9149 42.4781 79.7207 42.9944 80.6146 43.2946C81.5084 43.5947 82.4626 43.6693 83.3922 43.5117C85.8001 43.1496 88.0592 42.123 89.9156 40.5474C91.772 38.9717 93.1521 36.9095 93.9008 34.5925C94.2121 33.7039 94.2982 32.7519 94.1513 31.8219C94.0045 30.8919 93.6293 30.0128 93.0593 29.2634C92.5161 28.6787 91.8509 28.2207 91.1109 27.9217C90.371 27.6228 89.5743 27.4904 88.7774 27.5337Z" fill="#613A12"/>
<g opacity="0.53">
<path opacity="0.53" d="M79.709 31.1699C82.4512 31.592 85.2383 31.636 87.9925 31.3008C87.2873 31.865 86.4721 32.2758 85.599 32.5069C86.5264 32.9299 87.5641 33.0478 88.5628 32.8434C87.8642 33.0824 87.1934 33.3958 86.562 33.7784C88.4319 34.6292 90.6009 33.7784 92.4521 32.8995C92.0644 34.2328 91.3945 35.4672 90.488 36.5189C89.5814 37.5707 88.4593 38.4152 87.1978 38.9953C88.7985 38.9938 90.3618 38.5117 91.6854 37.6116C91.1927 38.8016 90.3947 39.8406 89.372 40.6236C88.3494 41.4066 87.1382 41.906 85.8608 42.0712C85.2023 39.841 84.0522 37.7867 82.4951 36.0596C81.8997 35.4846 81.3554 34.8589 80.8683 34.1897C80.6238 33.8456 80.4549 33.4535 80.3727 33.0394C80.2905 32.6253 80.2969 32.1984 80.3915 31.787L81.3919 31.5813" fill="#472702"/>
</g>
<path d="M90.8144 54.9644C90.8144 55.703 90.8144 56.4229 90.7396 57.1054C90.635 58.6311 90.3846 60.1432 89.9917 61.6211C89.6318 62.9706 89.114 64.2729 88.449 65.5011C87.8295 66.6537 87.0729 67.7273 86.1959 68.6985C85.5861 69.3737 84.9233 69.999 84.2138 70.5684C78.2303 75.3833 68.7501 76.7857 58.0358 76.7857C47.9853 76.7857 38.9819 75.5422 32.9797 71.3818C31.9986 70.704 31.0873 69.9304 30.259 69.0725C29.3922 68.176 28.6329 67.1813 27.9965 66.1088C27.1799 64.7341 26.551 63.2562 26.1267 61.7146C25.7108 60.187 25.4539 58.6204 25.36 57.04C25.3039 56.3575 25.2852 55.6469 25.2852 54.9177C25.2825 53.6177 25.3605 52.3187 25.519 51.0284C26.2754 44.8832 28.8099 39.0927 32.8114 34.3679C33.0358 34.0875 33.2695 33.8163 33.5126 33.5546C36.5777 30.1915 40.305 27.4987 44.4606 25.6451L45.5545 25.1776C47.2098 24.5046 48.917 23.9668 50.6592 23.5695C51.2763 23.4293 51.912 23.3077 52.5291 23.1955C53.3518 23.0647 54.1932 22.9525 55.0347 22.8777H55.5863C56.3997 22.8216 57.2224 22.7842 58.0451 22.7842C59.3795 22.7845 60.7127 22.8657 62.0373 23.0273H62.243C63.0003 23.1301 63.7482 23.2516 64.4961 23.3919C64.973 23.4854 65.4311 23.5976 65.9172 23.7098C67.8022 24.1664 69.6422 24.7922 71.4146 25.5796L72.0784 25.8788C74.0539 26.7887 75.9331 27.8943 77.688 29.1791L78.1835 29.5531C81.7157 32.2347 84.6529 35.6201 86.8094 39.4953C88.9658 43.3705 90.2946 47.651 90.7116 52.0662C90.7677 52.9917 90.8144 53.9734 90.8144 54.9644Z" fill="#FCB404"/>
<path d="M58.0641 77.066C46.2373 77.066 38.2249 75.327 32.821 71.606C31.8102 70.9193 30.8706 70.1332 30.0162 69.2594C29.1377 68.3465 28.3661 67.3365 27.7163 66.2489C26.8982 64.8518 26.2694 63.3521 25.8465 61.7893C25.4319 60.2606 25.1689 58.6948 25.0611 57.1146C25.0611 56.4228 24.9863 55.7029 24.9863 54.9736C24.9953 48.4913 26.951 42.1611 30.6001 36.8034C34.2491 31.4457 39.4233 27.3074 45.4519 24.925C47.7201 23.9983 50.0845 23.3272 52.5013 22.9243C53.5204 22.756 54.5488 22.6345 55.5772 22.5597C57.818 22.3952 60.0696 22.4516 62.2993 22.7279C63.0473 22.8214 63.8139 22.943 64.5712 23.0926C66.9794 23.564 69.3279 24.3009 71.5738 25.2896C76.8922 27.6099 81.4935 31.3099 84.9011 36.0063C88.3088 40.7027 90.3989 46.2248 90.9549 52.0006C91.0484 52.9355 91.0858 53.9733 91.0858 54.9643C91.0858 55.7122 91.0858 56.4415 91.011 57.1333C90.9184 58.6781 90.6709 60.2097 90.2724 61.7051C89.9078 63.0737 89.3837 64.3948 88.7111 65.6412C87.632 67.6284 86.1666 69.3798 84.4011 70.7926C79.0533 75.0653 70.7044 77.066 58.0641 77.066ZM58.0641 23.0178C57.2601 23.0178 56.4373 23.0178 55.6239 23.1019C54.6142 23.1767 53.5952 23.3076 52.5948 23.4665C50.2176 23.8657 47.8914 24.5241 45.6576 25.4299C40.3672 27.5581 35.7404 31.0593 32.2546 35.5723C28.7688 40.0853 26.5502 45.4466 25.8278 51.103C25.6748 52.3845 25.5968 53.6738 25.594 54.9643C25.594 55.6748 25.594 56.3854 25.6688 57.0679C25.7704 58.6137 26.0273 60.1453 26.4355 61.6397C26.8636 63.1593 27.4924 64.615 28.3053 65.9684C28.9356 67.018 29.682 67.9934 30.5305 68.876C31.3471 69.7235 32.2459 70.4876 33.2137 71.1573C38.44 74.7941 46.3308 76.5144 58.0641 76.5144C70.5735 76.5144 78.8289 74.5511 84.0364 70.3532C84.7374 69.784 85.3909 69.1586 85.9904 68.4834C86.8525 67.529 87.5964 66.4743 88.2062 65.342C88.8592 64.1334 89.3706 62.8534 89.7302 61.5275C90.1159 60.0647 90.3601 58.5681 90.4594 57.0585C90.5155 56.3854 90.5342 55.6748 90.5342 54.9362C90.5342 54.0013 90.5342 52.9822 90.4033 52.0193C89.8464 46.3448 87.784 40.922 84.4293 36.3115C81.0746 31.7011 76.5493 28.0703 71.3214 25.7945C69.1203 24.8246 66.8189 24.1003 64.459 23.6348C63.7204 23.4946 62.9631 23.373 62.2245 23.2796C60.8448 23.1028 59.4551 23.0153 58.0641 23.0178Z" fill="#613A12"/>
<path d="M51.0896 43.1561C46.2467 37.0043 44.863 29.5809 44.4609 25.6449L45.5548 25.1774C47.2102 24.5044 48.9173 23.9666 50.6595 23.5693C49.2945 30.787 51.0896 43.1561 51.0896 43.1561Z" fill="#613A12"/>
<path d="M51.0894 43.4276C51.0468 43.4274 51.0048 43.4181 50.9661 43.4004C50.9274 43.3827 50.8929 43.3569 50.865 43.3248C45.9847 37.1075 44.5823 29.6 44.1803 25.6733C44.1767 25.6174 44.1899 25.5617 44.2182 25.5134C44.2465 25.4651 44.2887 25.4263 44.3392 25.4022C44.7412 25.2152 45.1245 25.0563 45.4518 24.9254C47.1188 24.2444 48.8385 23.7004 50.5939 23.2986C50.6389 23.2894 50.6854 23.2915 50.7294 23.3045C50.7734 23.3176 50.8136 23.3412 50.8463 23.3734C50.8783 23.4065 50.9024 23.4464 50.917 23.4901C50.9316 23.5337 50.9362 23.5801 50.9305 23.6258C49.5842 30.7126 51.3418 42.9882 51.3605 43.1191C51.3674 43.1791 51.3547 43.2397 51.3244 43.2919C51.2941 43.3441 51.2477 43.3851 51.1922 43.4089C51.16 43.4235 51.1247 43.4299 51.0894 43.4276ZM44.7506 25.8135C45.1526 29.5533 46.4521 36.3221 50.678 42.1561C50.2947 39.0802 49.3037 29.9179 50.3134 23.9343C48.7213 24.3202 47.1591 24.8202 45.6388 25.4302L44.7506 25.8135Z" fill="#613A12"/>
<path d="M72.0982 25.8413C71.6682 29.8148 70.2284 37.0605 65.4883 43.1562C65.4883 43.1562 67.2646 30.918 65.937 23.6816" fill="#613A12"/>
<path d="M65.4877 43.4269C65.4541 43.4365 65.4185 43.4365 65.3849 43.4269C65.3274 43.4059 65.279 43.3654 65.2483 43.3125C65.2175 43.2595 65.2063 43.1975 65.2166 43.1371C65.2166 43.0155 66.9649 30.8521 65.6654 23.7467C65.6587 23.711 65.6592 23.6744 65.6669 23.6389C65.6747 23.6035 65.6894 23.5699 65.7103 23.5403C65.7313 23.5106 65.7579 23.4855 65.7887 23.4663C65.8196 23.4472 65.8539 23.4344 65.8897 23.4288C65.9247 23.422 65.9607 23.4222 65.9957 23.4293C66.0306 23.4365 66.0638 23.4504 66.0933 23.4704C66.1228 23.4904 66.1481 23.516 66.1677 23.5457C66.1873 23.5755 66.2009 23.6088 66.2076 23.6438C67.3015 29.618 66.2918 39.0515 65.8991 42.1741C70.1437 36.3121 71.4339 29.4778 71.8265 25.8316C71.8289 25.7951 71.8385 25.7594 71.855 25.7268C71.8714 25.6941 71.8943 25.6651 71.9223 25.6415C71.9502 25.6179 71.9827 25.6003 72.0176 25.5895C72.0526 25.5788 72.0894 25.5753 72.1257 25.5791C72.1986 25.5885 72.2648 25.626 72.3103 25.6837C72.3557 25.7414 72.3767 25.8146 72.3688 25.8876C71.9574 29.777 70.4989 37.2096 65.7028 43.3428C65.6757 43.3723 65.6423 43.3952 65.605 43.4098C65.5677 43.4244 65.5276 43.4303 65.4877 43.4269Z" fill="#613A12"/>
<path d="M62.0562 22.9807C61.9066 42.2589 58.3164 45.1292 58.3164 45.1292C53.5109 38.1359 54.3991 27.3655 55.0535 22.8779H55.6051C56.4185 22.8218 57.2413 22.7844 58.064 22.7844C59.3975 22.7692 60.7306 22.8348 62.0562 22.9807Z" fill="#613A12"/>
<path d="M58.3169 45.4093C58.242 45.3927 58.1755 45.3496 58.1299 45.2878C53.2403 38.173 54.1845 27.2156 54.8203 22.8495C54.83 22.7894 54.8589 22.7342 54.9028 22.692C54.9466 22.6499 55.003 22.6231 55.0634 22.6158L55.6056 22.569C57.7867 22.4021 59.979 22.4522 62.1501 22.7186C62.2179 22.7234 62.2812 22.7544 62.3265 22.805C62.3719 22.8556 62.3958 22.9218 62.3932 22.9897C62.2249 42.1745 58.6442 45.2223 58.4852 45.3439C58.4387 45.385 58.379 45.4082 58.3169 45.4093ZM55.2971 23.13C54.6894 27.5148 53.8667 37.8364 58.345 44.6801C59.0929 43.6891 61.6359 39.136 61.7855 23.2235C59.7397 22.9945 57.6771 22.957 55.6243 23.1113L55.2971 23.13Z" fill="#613A12"/>
<path d="M90.8147 54.964C90.8147 55.7026 90.8147 56.4225 90.7399 57.1143C88.979 57.0563 87.2468 56.6516 85.6425 55.9232C84.0382 55.1949 82.5934 54.1573 81.3906 52.8698C84.4291 54.5339 88.0193 53.4214 90.7399 52.0283C90.768 52.9913 90.8147 53.973 90.8147 54.964Z" fill="#613A12"/>
<path d="M90.7408 57.3859C88.9358 57.3359 87.1591 56.9255 85.515 56.1789C83.8709 55.4323 82.3926 54.3646 81.1671 53.0385C81.1284 52.9891 81.1074 52.9283 81.1074 52.8655C81.1074 52.8028 81.1284 52.7419 81.1671 52.6926C81.2075 52.6423 81.2646 52.6081 81.328 52.5961C81.3914 52.5841 81.457 52.5951 81.513 52.6271C84.4861 54.2633 88.0575 53.0666 90.5538 51.7764C90.5944 51.7558 90.6392 51.7451 90.6847 51.7451C90.7302 51.7451 90.775 51.7558 90.8156 51.7764C90.8549 51.7978 90.8883 51.8287 90.9128 51.8662C90.9372 51.9037 90.952 51.9468 90.9558 51.9914C91.0493 52.9263 91.0867 53.9641 91.0867 54.9551C91.0867 55.7031 91.0867 56.4323 91.0119 57.1242C91.0095 57.1944 90.9799 57.261 90.9293 57.3099C90.8787 57.3587 90.8111 57.386 90.7408 57.3859ZM82.5975 53.6462C84.8183 55.5153 87.5817 56.62 90.479 56.7969C90.479 56.1986 90.5351 55.5722 90.5351 54.9271C90.5351 54.0856 90.5351 53.2442 90.4416 52.4215C88.2352 53.5434 85.3088 54.469 82.5975 53.6743V53.6462Z" fill="#613A12"/>
<path d="M89.9929 61.6209C89.633 62.9704 89.1153 64.2727 88.4503 65.5009C86.0288 64.3509 82.607 62.0416 82.5977 58.2178C84.7557 59.9262 87.2915 61.0932 89.9929 61.6209Z" fill="#613A12"/>
<path d="M88.4497 65.7814C88.4128 65.7898 88.3745 65.7898 88.3375 65.7814C86.0937 64.7155 82.326 62.3128 82.326 58.2458C82.3075 58.2151 82.2953 58.1811 82.2901 58.1457C82.2848 58.1103 82.2866 58.0742 82.2952 58.0395C82.3039 58.0047 82.3194 57.9721 82.3407 57.9433C82.362 57.9145 82.3888 57.8903 82.4194 57.8719C82.4501 57.8534 82.4842 57.8412 82.5196 57.836C82.555 57.8307 82.5911 57.8325 82.6258 57.8411C82.6605 57.8498 82.6932 57.8653 82.722 57.8866C82.7507 57.9079 82.775 57.9346 82.7934 57.9653C84.9133 59.6386 87.3996 60.7856 90.0485 61.3124C90.0879 61.3176 90.1259 61.3311 90.1597 61.352C90.1936 61.373 90.2226 61.4009 90.2448 61.4339C90.273 61.4726 90.2904 61.5181 90.2954 61.5657C90.3003 61.6133 90.2925 61.6614 90.2728 61.7051C89.9082 63.0736 89.3842 64.3947 88.7115 65.6411C88.6863 65.6874 88.648 65.7253 88.6015 65.7503C88.555 65.7752 88.5023 65.786 88.4497 65.7814ZM82.9056 58.7974C83.2141 61.9294 85.9348 63.9489 88.3375 65.1362C88.8753 64.0824 89.3135 62.9806 89.6464 61.8453C87.2029 61.3369 84.9014 60.2962 82.9056 58.7974Z" fill="#613A12"/>
<path d="M86.1976 68.6981C85.5878 69.3733 84.925 69.9986 84.2155 70.568C83.0122 68.9599 82.2195 67.0825 81.9062 65.0986C83.0094 66.642 84.4858 67.8804 86.1976 68.6981Z" fill="#613A12"/>
<path d="M84.214 70.8488C84.1409 70.8395 84.074 70.8028 84.027 70.7459C82.7983 69.0949 81.9897 67.1696 81.671 65.1364C81.6589 65.0743 81.6689 65.0099 81.6993 64.9545C81.7297 64.899 81.7785 64.8558 81.8373 64.8325C81.8961 64.8092 81.9612 64.8072 82.0213 64.8269C82.0814 64.8465 82.1328 64.8865 82.1665 64.94C83.2427 66.4355 84.6762 67.6376 86.3363 68.4367C86.3776 68.4541 86.4144 68.481 86.4436 68.515C86.4728 68.5491 86.4937 68.5895 86.5046 68.633C86.515 68.6758 86.5144 68.7204 86.503 68.7629C86.4916 68.8054 86.4696 68.8443 86.4391 68.8761C85.8198 69.5551 85.1443 70.1806 84.4197 70.7459C84.395 70.7771 84.3638 70.8025 84.3283 70.8203C84.2928 70.838 84.2537 70.8478 84.214 70.8488ZM82.4096 66.1741C82.7806 67.6119 83.4146 68.9686 84.2795 70.1756C84.8005 69.7493 85.2939 69.2902 85.7566 68.8013C84.4765 68.1541 83.3386 67.2577 82.4096 66.1648V66.1741Z" fill="#613A12"/>
<path d="M36.5154 52.8703C35.1049 54.3745 33.3692 55.5365 31.441 56.2673C29.5127 56.998 27.4429 57.2784 25.3897 57.0868C25.343 56.4043 25.3243 55.6937 25.3243 54.9645C25.3215 53.6645 25.3996 52.3655 25.558 51.0752C28.2506 52.7768 32.8037 54.8991 36.5154 52.8703Z" fill="#613A12"/>
<path d="M26.4828 57.4044C26.1275 57.4044 25.7535 57.4044 25.3702 57.4044C25.3047 57.4 25.243 57.372 25.1966 57.3256C25.1501 57.2792 25.1221 57.2175 25.1178 57.152C25.1178 56.4601 25.043 55.7402 25.043 55.011C25.0442 53.6984 25.1254 52.3871 25.2861 51.0843C25.2916 51.039 25.3081 50.9957 25.3342 50.9582C25.3603 50.9208 25.3951 50.8902 25.4356 50.8693C25.4778 50.8486 25.5242 50.8379 25.5712 50.8379C25.6182 50.8379 25.6646 50.8486 25.7068 50.8693C28.1189 52.3932 32.7187 54.6651 36.3837 52.655C36.4382 52.6236 36.5023 52.6129 36.5641 52.6249C36.626 52.637 36.6814 52.6709 36.7202 52.7204C36.7605 52.7691 36.7826 52.8302 36.7826 52.8934C36.7826 52.9565 36.7605 53.0177 36.7202 53.0663C35.4066 54.4581 33.8185 55.5622 32.0564 56.3089C30.2943 57.0556 28.3964 57.4286 26.4828 57.4044ZM25.6507 56.8248C29.1493 57.0533 32.6015 55.9249 35.2898 53.6741C31.8679 54.6744 28.0721 52.9261 25.7816 51.5331C25.6584 52.6727 25.596 53.818 25.5946 54.9643C25.5946 55.6 25.6133 56.2171 25.6507 56.8248Z" fill="#613A12"/>
<path d="M35.2905 58.2178C35.2905 62.8924 30.1858 65.2952 28.0261 66.1086C27.2057 64.7358 26.5766 63.2574 26.1562 61.7144C30.8028 61.9201 35.2905 58.2178 35.2905 58.2178Z" fill="#613A12"/>
<path d="M28.0263 66.3793C27.9781 66.3794 27.9307 66.3675 27.8882 66.3446C27.8458 66.3218 27.8097 66.2887 27.7833 66.2484C26.9651 64.8513 26.3363 63.3516 25.9134 61.7888C25.8997 61.7476 25.8967 61.7037 25.9049 61.6611C25.9131 61.6185 25.9321 61.5788 25.9601 61.5457C25.9895 61.5129 26.0256 61.4867 26.0659 61.4689C26.1062 61.4512 26.1498 61.4423 26.1939 61.4428C30.6535 61.6392 35.1131 58.0397 35.1131 57.9649C35.153 57.9302 35.2022 57.908 35.2546 57.9009C35.3071 57.8938 35.3604 57.9022 35.4081 57.9251C35.4558 57.9479 35.4958 57.9842 35.5231 58.0295C35.5504 58.0748 35.5639 58.1271 35.5619 58.1799C35.5619 63.0042 30.3543 65.4817 28.0824 66.3232C28.0685 66.3461 28.0492 66.3653 28.0263 66.3793ZM26.5398 62.0038C26.9252 63.3099 27.465 64.5653 28.1479 65.7435C30.2702 64.9114 34.5895 62.7424 34.9822 58.7783C33.7388 59.7132 30.2515 61.9851 26.5679 61.9851L26.5398 62.0038Z" fill="#613A12"/>
<path d="M35.9824 65.0986C35.6132 67.4343 34.5813 69.6149 33.0093 71.3814C32.0271 70.7012 31.1129 69.9279 30.2793 69.0721C33.5328 68.6607 35.9824 65.0986 35.9824 65.0986Z" fill="#613A12"/>
<path d="M33.0093 71.6524C32.9578 71.6702 32.9018 71.6702 32.8503 71.6524C31.8395 70.9657 30.8999 70.1795 30.0455 69.3058C30.01 69.2695 29.9857 69.2237 29.9758 69.1739C29.9658 69.1241 29.9706 69.0724 29.9894 69.0253C30.0051 68.9759 30.0345 68.9321 30.0743 68.899C30.1141 68.8659 30.1625 68.8448 30.2138 68.8383C33.2991 68.455 35.6925 65.0238 35.7205 64.9864C35.756 64.9355 35.8074 64.8977 35.8666 64.8791C35.9258 64.8605 35.9895 64.8621 36.0478 64.8835C36.1072 64.9048 36.1569 64.9467 36.1878 65.0017C36.2187 65.0567 36.2287 65.1209 36.2161 65.1827C35.8481 67.5493 34.8173 69.7633 33.243 71.5683C33.2127 71.5988 33.176 71.6221 33.1356 71.6367C33.0952 71.6512 33.052 71.6566 33.0093 71.6524ZM30.8496 69.2497C31.5103 69.9004 32.2163 70.5034 32.9625 71.0541C34.1554 69.6502 35.0152 67.9945 35.4775 66.2111C34.2738 67.6645 32.6616 68.723 30.8496 69.2497Z" fill="#613A12"/>
<path d="M76.9415 51.1125C76.9678 52.5515 76.4954 53.9554 75.6046 55.0859C75.271 55.5174 74.8471 55.8706 74.3626 56.121C73.8781 56.3713 73.3447 56.5126 72.7998 56.535C70.4905 56.535 68.6113 54.1136 68.6113 51.1125C68.6113 50.7617 68.6394 50.4116 68.6955 50.0653C69.0694 47.5784 70.7617 45.6992 72.7998 45.6992C75.0623 45.6992 76.9415 48.1207 76.9415 51.1125Z" fill="#472702"/>
<path d="M72.7627 56.6749C70.3787 56.6749 68.4434 54.1786 68.4434 51.1121C68.445 50.7555 68.47 50.3995 68.5182 50.0463C68.9108 47.4471 70.6965 45.5586 72.7627 45.5586C75.1374 45.5586 77.0728 48.0549 77.0728 51.1121C77.0938 52.5778 76.612 54.0065 75.7078 55.1603C75.3613 55.6169 74.9169 55.9899 74.4072 56.2521C73.8976 56.5142 73.3356 56.6587 72.7627 56.6749ZM72.7627 45.8391C70.8368 45.8391 69.1633 47.6248 68.7893 50.093C68.7411 50.4306 68.7162 50.7711 68.7145 51.1121C68.7145 54.029 70.5282 56.3944 72.7627 56.3944C73.2947 56.3783 73.8165 56.2442 74.2903 56.0016C74.7641 55.7591 75.178 55.4142 75.5021 54.992C76.366 53.8852 76.8246 52.5159 76.8016 51.1121C76.8016 48.2044 74.9879 45.811 72.7627 45.811V45.8391Z" fill="#472702"/>
<path d="M61.6914 66.4265C61.1304 68.2964 59.8776 70.1102 58.4285 70.1102C58.046 70.0828 57.6743 69.9714 57.3398 69.7839C57.0053 69.5965 56.7162 69.3376 56.4932 69.0257C55.8747 68.2597 55.4197 67.3751 55.1562 66.4265C56.2785 66.3428 57.3755 66.0511 58.3911 65.5664C58.9622 65.8226 59.5532 66.0321 60.1581 66.1928C60.6597 66.3237 61.1736 66.402 61.6914 66.4265Z" fill="#EF5823"/>
<path d="M58.4302 70.3906C58.0061 70.3613 57.594 70.2378 57.2236 70.0292C56.8533 69.8206 56.5341 69.532 56.2892 69.1846C55.643 68.3886 55.1658 67.4692 54.8868 66.4826C54.8755 66.4428 54.8739 66.4008 54.882 66.3602C54.8902 66.3195 54.9078 66.2814 54.9336 66.2489C54.9577 66.2156 54.9884 66.1876 55.0237 66.1667C55.0591 66.1458 55.0984 66.1324 55.1392 66.1274C56.2289 66.0475 57.2942 65.7653 58.2806 65.2953C58.315 65.2765 58.3536 65.2666 58.3928 65.2666C58.432 65.2666 58.4706 65.2765 58.505 65.2953C59.0604 65.5457 59.6358 65.749 60.2253 65.903C60.7092 66.0273 61.2038 66.1056 61.7024 66.1367C61.7447 66.1367 61.7863 66.1469 61.8237 66.1664C61.8612 66.186 61.8933 66.2143 61.9175 66.2489C61.9357 66.2868 61.9452 66.3284 61.9452 66.3705C61.9452 66.4125 61.9357 66.4541 61.9175 66.492C61.3846 68.4366 60.0757 70.3906 58.4302 70.3906ZM55.5226 66.6509C55.7779 67.4452 56.1807 68.1843 56.7099 68.8293C56.9095 69.1075 57.1662 69.3399 57.4629 69.5108C57.7596 69.6817 58.0894 69.7873 58.4302 69.8203C59.6923 69.8203 60.7862 68.2403 61.3285 66.6603C60.9115 66.6202 60.4987 66.5451 60.0944 66.4359C59.5123 66.2855 58.9433 66.0885 58.3928 65.8469C57.4836 66.266 56.5157 66.5435 55.5226 66.6696V66.6509Z" fill="#613A12"/>
<g opacity="0.43">
<path opacity="0.43" d="M71.6027 53.5061C72.2429 53.5061 72.762 52.7025 72.762 51.7111C72.762 50.7197 72.2429 49.916 71.6027 49.916C70.9624 49.916 70.4434 50.7197 70.4434 51.7111C70.4434 52.7025 70.9624 53.5061 71.6027 53.5061Z" fill="white"/>
</g>
<path d="M48.6415 51.1125C48.6442 52.0383 48.4564 52.9548 48.0899 53.8051C47.8167 54.5639 47.3279 55.2264 46.6835 55.7114C46.0391 56.1963 45.2671 56.4826 44.4623 56.535C42.1531 56.535 40.2832 54.1136 40.2832 51.1125C40.2832 48.1113 42.1531 45.6992 44.4623 45.6992C46.7716 45.6992 48.4545 47.8963 48.6228 50.6824C48.6321 50.8226 48.6415 50.9722 48.6415 51.1125Z" fill="#472702"/>
<path d="M44.4619 56.6749C42.0779 56.6749 40.1426 54.1786 40.1426 51.1121C40.1426 48.0455 42.0779 45.5586 44.4619 45.5586C46.6964 45.5586 48.585 47.8118 48.7626 50.6727C48.7626 50.8222 48.7626 50.9718 48.7626 51.1121C48.7699 52.0574 48.5788 52.9938 48.2017 53.8608C47.9197 54.6428 47.4157 55.3256 46.7514 55.8254C46.0871 56.3253 45.2915 56.6205 44.4619 56.6749ZM44.4619 45.811C42.2275 45.811 40.4137 48.1764 40.4137 51.084C40.4137 53.9917 42.2275 56.3664 44.4619 56.3664C45.2394 56.3147 45.9847 56.0366 46.606 55.5665C47.2274 55.0963 47.6975 54.4546 47.9586 53.7205C48.3201 52.8888 48.5047 51.9909 48.5008 51.084C48.5008 50.9438 48.5008 50.8035 48.5008 50.6633C48.3232 47.9707 46.5562 45.811 44.4619 45.811Z" fill="#472702"/>
<path d="M54.7451 66.7163C53.9504 66.7542 53.1584 66.5988 52.437 66.2633C51.7157 65.9279 51.0864 65.4224 50.6033 64.7903C50.5849 64.7578 50.5731 64.7219 50.5685 64.6848C50.564 64.6477 50.5668 64.6101 50.5767 64.574C50.5867 64.538 50.6037 64.5043 50.6267 64.4748C50.6497 64.4454 50.6783 64.4207 50.7109 64.4023C50.7434 64.3839 50.7792 64.3721 50.8163 64.3675C50.8535 64.3629 50.8911 64.3657 50.9271 64.3757C50.9632 64.3857 50.9969 64.4027 51.0263 64.4257C51.0558 64.4487 51.0804 64.4773 51.0989 64.5098C51.5718 65.1121 52.1918 65.5824 52.8992 65.8755C53.6066 66.1686 54.3775 66.2746 55.1377 66.1834C56.1693 66.0995 57.1785 65.8369 58.1202 65.4074V61.2002C58.1321 61.1357 58.1662 61.0775 58.2166 61.0356C58.267 60.9937 58.3304 60.9707 58.396 60.9707C58.4615 60.9707 58.525 60.9937 58.5754 61.0356C58.6258 61.0775 58.6599 61.1357 58.6718 61.2002V65.5944C58.6715 65.6471 58.6553 65.6985 58.6252 65.7419C58.5952 65.7853 58.5528 65.8186 58.5035 65.8374C57.4584 66.353 56.3266 66.67 55.1658 66.7724L54.7451 66.7163Z" fill="#613A12"/>
<path d="M62.0104 66.7167H61.6832C60.5006 66.6191 59.3465 66.302 58.28 65.7818C58.2332 65.7605 58.1934 65.7263 58.1653 65.6833C58.1371 65.6403 58.1218 65.5901 58.1211 65.5387V61.1445C58.133 61.0801 58.1671 61.0218 58.2175 60.9799C58.2679 60.938 58.3314 60.915 58.3969 60.915C58.4624 60.915 58.5259 60.938 58.5763 60.9799C58.6267 61.0218 58.6608 61.0801 58.6727 61.1445V65.3517C59.6308 65.7906 60.66 66.0535 61.7112 66.1277C62.4576 66.2155 63.2141 66.1133 63.9104 65.8305C64.6067 65.5478 65.2202 65.0936 65.694 64.5103C65.7106 64.4728 65.7352 64.4394 65.7661 64.4125C65.797 64.3855 65.8334 64.3657 65.8728 64.3544C65.9122 64.343 65.9536 64.3404 65.9941 64.3468C66.0345 64.3532 66.0731 64.3683 66.1071 64.3912C66.1411 64.4141 66.1697 64.4442 66.1908 64.4793C66.2119 64.5144 66.2251 64.5537 66.2294 64.5945C66.2337 64.6353 66.229 64.6765 66.2156 64.7152C66.2023 64.754 66.1806 64.7893 66.1521 64.8188C65.665 65.4446 65.0342 65.9438 64.3133 66.2741C63.5924 66.6045 62.8024 66.7563 62.0104 66.7167Z" fill="#613A12"/>
<path d="M63.6547 56.7036C63.6547 58.3771 61.2986 61.64 58.391 61.64C55.4834 61.64 53.1367 58.3771 53.1367 56.7036C53.1367 55.03 55.4927 53.665 58.391 53.665C61.2893 53.665 63.6547 55.0207 63.6547 56.7036Z" fill="#472702"/>
<path d="M58.3926 61.7705C55.3354 61.7705 52.998 58.3954 52.998 56.7032C52.998 55.011 55.4195 53.5244 58.3926 53.5244C61.3657 53.5244 63.7965 54.9455 63.7965 56.7032C63.7965 58.4608 61.4592 61.7705 58.3926 61.7705ZM58.3926 53.8049C55.5878 53.8049 53.2785 55.1044 53.2785 56.7032C53.2785 58.3019 55.5972 61.4994 58.3926 61.4994C61.188 61.4994 63.516 58.3206 63.516 56.7032C63.516 55.0857 61.2161 53.8049 58.3926 53.8049Z" fill="#472702"/>
<g opacity="0.43">
<path opacity="0.43" d="M45.546 53.5061C46.1863 53.5061 46.7053 52.7025 46.7053 51.7111C46.7053 50.7197 46.1863 49.916 45.546 49.916C44.9058 49.916 44.3867 50.7197 44.3867 51.7111C44.3867 52.7025 44.9058 53.5061 45.546 53.5061Z" fill="white"/>
</g>
<g opacity="0.14">
<path opacity="0.14" d="M57.8772 55.348C57.5117 55.3017 57.1405 55.3309 56.7867 55.4338C56.4329 55.5367 56.104 55.7112 55.8204 55.9463C55.6724 56.1122 55.5594 56.3061 55.488 56.5166C55.4166 56.7271 55.3884 56.9498 55.405 57.1714C55.4216 57.393 55.4826 57.6091 55.5845 57.8066C55.6864 58.0041 55.827 58.1791 55.998 58.3211C55.7396 58.3175 55.4869 58.2444 55.2665 58.1095C55.046 57.9746 54.866 57.7829 54.7452 57.5544C53.0156 54.8805 57.4191 54.1513 59.0739 54.3289C59.7564 54.4037 62.4957 54.9273 62.4116 55.9463C62.4116 56.526 61.271 56.1707 60.9438 56.0585C59.9641 55.6657 58.9298 55.4261 57.8772 55.348Z" fill="white"/>
</g>
<g opacity="0.11">
<path opacity="0.11" d="M61.6923 66.4261C61.1314 68.296 59.8786 70.1097 58.4294 70.1097C58.047 70.0823 57.6753 69.9709 57.3408 69.7835C57.0062 69.596 56.7172 69.3371 56.4941 69.0252C57.4715 68.994 58.3978 68.5812 59.0745 67.8752C59.5355 67.385 59.903 66.8147 60.1591 66.1924C60.6607 66.3232 61.1745 66.4016 61.6923 66.4261Z" fill="#472702"/>
</g>
<g opacity="0.11">
<path opacity="0.11" d="M90.8144 54.9639C90.8144 55.7025 90.8144 56.4224 90.7396 57.1049C90.635 58.6306 90.3846 60.1427 89.9917 61.6206C89.6318 62.9701 89.114 64.2724 88.449 65.5006C87.8295 66.6532 87.0729 67.7268 86.1959 68.698C85.5861 69.3732 84.9233 69.9985 84.2138 70.5679C78.2303 75.3828 68.7501 76.7852 58.0358 76.7852C47.9853 76.7852 38.9819 75.5417 32.9797 71.3813C31.9986 70.7035 31.0873 69.9299 30.259 69.072C29.3922 68.1754 28.6329 67.1808 27.9965 66.1083C27.1799 64.7336 26.551 63.2557 26.1267 61.7141C25.7108 60.1865 25.4539 58.6199 25.36 57.0395C25.3039 56.357 25.2852 55.6464 25.2852 54.9172C25.2825 53.6172 25.3605 52.3182 25.519 51.0279C26.2754 44.8827 28.8099 39.0922 32.8114 34.3674C32.6157 34.9747 32.3523 35.5581 32.0261 36.1064C27.7628 44.0533 25.173 57.0301 31.5866 64.5095C34.1084 67.2866 37.2332 69.4487 40.7209 70.8297C49.2184 74.4508 58.6649 75.2024 67.6282 72.9707C70.1565 72.369 72.5911 71.4254 74.8645 70.1659C79.9753 67.1292 83.7742 62.3006 85.5227 56.6187C87.4674 50.5791 86.4576 44.3431 83.9333 38.612C82.5927 35.5717 80.7921 32.7557 78.5949 30.2631C78.277 29.8985 77.9404 29.5339 77.6599 29.1318C81.3273 31.8095 84.3845 35.235 86.6296 39.182C88.8747 43.129 90.2564 47.5076 90.6835 52.0282C90.7677 52.9912 90.8144 53.9729 90.8144 54.9639Z" fill="#613A12"/>
</g>
<g opacity="0.16">
<path opacity="0.16" d="M79.5966 31.6567C68.1823 26.0726 55.0907 24.9652 42.9006 28.5527C41.8998 28.8312 40.9266 29.2004 39.993 29.6559C39.4039 29.963 38.8326 30.3032 38.2821 30.675C36.7114 31.6785 35.1532 32.682 33.6074 33.6854V33.6013C36.6407 30.2318 40.3357 27.5234 44.4619 25.6451L45.5558 25.1776C47.2112 24.5046 48.9183 23.9668 50.6605 23.5695C51.2776 23.4293 51.9133 23.3077 52.5304 23.1955C53.3531 23.0647 54.1946 22.9525 55.036 22.8777H55.5876C56.401 22.8216 57.2237 22.7842 58.0465 22.7842C59.3809 22.7845 60.714 22.8657 62.0386 23.0273H62.2443C63.0016 23.1301 63.7495 23.2516 64.4975 23.3919C64.9743 23.4854 65.4324 23.5976 65.9186 23.7098C67.8036 24.1664 69.6435 24.7922 71.416 25.5796L72.0798 25.8788C74.0552 26.7887 75.9344 27.8943 77.6893 29.1791L78.1848 29.5531C78.7006 30.2229 79.1722 30.9255 79.5966 31.6567Z" fill="#613A12"/>
</g>
<g opacity="0.26">
<path opacity="0.26" d="M75.6047 55.086C75.9581 54.033 76.0035 52.901 75.7356 51.8231C75.6009 50.6877 75.2247 49.5943 74.6324 48.6163C74.3257 48.1234 73.885 47.7279 73.3618 47.4763C72.8386 47.2246 72.2546 47.1271 71.678 47.1952C70.8047 47.4512 70.0477 48.0032 69.537 48.7566C69.1939 49.1739 68.8991 49.6286 68.6582 50.1122C69.0322 47.6253 70.7244 45.7461 72.7625 45.7461C75.0625 45.7461 76.9417 48.1676 76.9417 51.1593C76.9572 52.5824 76.4854 53.968 75.6047 55.086Z" fill="#231F20"/>
</g>
<g opacity="0.26">
<path opacity="0.26" d="M41.4799 50.6263C41.3474 51.7121 41.5325 52.813 42.0128 53.7957C42.2554 54.2859 42.6203 54.7053 43.0724 55.0132C43.5244 55.3211 44.0482 55.5071 44.5932 55.5534C45.9302 55.6095 47.0614 54.6184 48.0525 53.6835C48.0525 53.6835 48.0525 53.7303 48.0525 53.7583C47.7892 54.5203 47.3093 55.189 46.6716 55.6822C46.0339 56.1755 45.2661 56.4719 44.4623 56.535C42.1531 56.535 40.2832 54.1136 40.2832 51.1125C40.2832 48.1113 42.1531 45.6992 44.4623 45.6992C46.7716 45.6992 48.4545 47.8963 48.6228 50.6824C48.6228 50.6356 48.6228 50.5795 48.576 50.5235C48.0525 48.5321 45.7712 46.1293 43.5461 47.0549C42.2092 47.6065 41.6015 49.1865 41.4799 50.6263Z" fill="#231F20"/>
</g>
<g opacity="0.2">
<path d="M74.5758 59.7788C75.3244 60.036 75.9767 60.5155 76.4456 61.1532C76.6706 61.4745 76.7967 61.8545 76.8083 62.2466C76.8199 62.6387 76.7166 63.0256 76.5111 63.3596C76.1461 63.798 75.6465 64.1037 75.09 64.2291C73.9667 64.552 72.7784 64.5752 71.6434 64.2964C70.5083 64.0176 69.466 63.4464 68.6203 62.6397C68.3646 62.4436 68.164 62.1847 68.0379 61.8882C67.9118 61.5917 67.8644 61.2677 67.9004 60.9475C68.1434 60.0126 69.7141 59.6573 70.5649 59.4423C71.9051 59.1458 73.3037 59.2631 74.5758 59.7788Z" fill="#EF5823"/>
</g>
<path opacity="0.2" d="M42.9837 59.7794C42.2351 60.0366 41.5828 60.516 41.1139 61.1537C40.8911 61.476 40.7664 61.8557 40.7548 62.2473C40.7432 62.6388 40.8452 63.0253 41.0484 63.3602C41.4148 63.797 41.9138 64.1023 42.4695 64.2297C43.5943 64.5524 44.784 64.5756 45.9205 64.2968C47.057 64.018 48.1008 63.447 48.9486 62.6403C49.2025 62.4431 49.4013 62.1838 49.5257 61.8874C49.6502 61.5909 49.6961 61.2674 49.6591 60.9481C49.416 60.0131 47.8547 59.6579 46.9946 59.4428C45.6543 59.1469 44.2559 59.2643 42.9837 59.7794Z" fill="#EF5823"/>
<g opacity="0.11">
<path opacity="0.11" d="M37.5905 29.478C37.5644 29.5166 37.5329 29.5512 37.497 29.5808C36.8987 30.1044 36.1694 28.6459 35.7767 28.3561C35.199 27.9272 34.5895 27.5428 33.9536 27.2061C32.6202 26.5039 31.1625 26.0688 29.6623 25.9253C28.2052 25.7866 26.7361 26.0004 25.3791 26.5488C24.022 27.0972 22.8167 27.9639 21.865 29.076L21.6406 29.3658C21.9389 28.6715 22.3391 28.0255 22.828 27.4492C25.9226 23.7936 31.8407 23.7095 36.0385 27.2529C36.4032 27.5614 38.0393 28.8142 37.5905 29.478Z" fill="#613A12"/>
</g>
<g opacity="0.11">
<path opacity="0.11" d="M92.8622 28.0478C92.3273 27.532 91.7269 27.0888 91.0765 26.7295C89.933 26.1584 88.6828 25.8327 87.406 25.7731C86.1293 25.7135 84.8542 25.9215 83.6625 26.3836C82.5864 26.7759 81.5676 27.3104 80.6333 27.973C79.9602 28.4311 78.9879 29.5624 78.1277 29.6278C76.3794 29.7774 78.8102 27.5616 79.1842 27.2437C83.382 23.691 89.3001 23.7845 92.4041 27.4401C92.563 27.6458 92.722 27.8514 92.8622 28.0478Z" fill="#613A12"/>
</g>
</g>
<path d="M1.2642 143H4.33949V137.844H6.58381L9.33949 143H12.7344L9.64489 137.347C11.2997 136.636 12.2159 135.195 12.2159 133.206C12.2159 130.315 10.3054 128.455 7.00284 128.455H1.2642V143ZM4.33949 135.372V130.969H6.41335C8.18892 130.969 9.0483 131.757 9.0483 133.206C9.0483 134.648 8.18892 135.372 6.42756 135.372H4.33949ZM14.3324 143H17.358V132.091H14.3324V143ZM15.8523 130.685C16.7543 130.685 17.4929 129.996 17.4929 129.151C17.4929 128.312 16.7543 127.624 15.8523 127.624C14.9574 127.624 14.2188 128.312 14.2188 129.151C14.2188 129.996 14.9574 130.685 15.8523 130.685ZM19.7816 143H22.8072V136.452C22.8072 135.244 23.5742 134.442 24.5827 134.442C25.5771 134.442 26.2447 135.124 26.2447 136.196V143H29.1779V136.338C29.1779 135.209 29.8242 134.442 30.9251 134.442C31.891 134.442 32.6154 135.045 32.6154 136.26V143H35.6339V135.663C35.6339 133.298 34.2276 131.949 32.1964 131.949C30.5984 131.949 29.3555 132.766 28.908 134.016H28.7944C28.4464 132.751 27.3313 131.949 25.8327 131.949C24.3626 131.949 23.2475 132.73 22.793 134.016H22.6651V132.091H19.7816V143ZM41.1346 143.206C42.7468 143.206 43.7908 142.503 44.3235 141.487H44.4087V143H47.2781V135.642C47.2781 133.043 45.0763 131.949 42.6474 131.949C40.0337 131.949 38.315 133.199 37.896 135.188L40.6942 135.415C40.9002 134.69 41.5465 134.158 42.6332 134.158C43.663 134.158 44.2525 134.676 44.2525 135.571V135.614C44.2525 136.317 43.5067 136.409 41.6104 136.594C39.4513 136.793 37.5124 137.517 37.5124 139.953C37.5124 142.112 39.0536 143.206 41.1346 143.206ZM42.0011 141.118C41.0707 141.118 40.4031 140.685 40.4031 139.854C40.4031 139.001 41.1062 138.582 42.1715 138.433C42.832 138.341 43.9116 138.185 44.2738 137.943V139.101C44.2738 140.244 43.3292 141.118 42.0011 141.118ZM56.6211 138.355C56.6282 139.818 55.6268 140.585 54.5401 140.585C53.3967 140.585 52.658 139.783 52.6509 138.497V132.091H49.6254V139.037C49.6325 141.587 51.1239 143.142 53.3185 143.142C54.9592 143.142 56.1381 142.297 56.6282 141.018H56.7418V143H59.6467V132.091H56.6211V138.355ZM70.0142 132.638H72.9616C72.919 130.045 70.7884 128.256 67.5497 128.256C64.3608 128.256 62.0241 130.017 62.0384 132.659C62.0312 134.804 63.544 136.033 66.0014 136.622L67.5852 137.02C69.169 137.403 70.0497 137.858 70.0568 138.838C70.0497 139.903 69.0412 140.628 67.4787 140.628C65.8807 140.628 64.7301 139.889 64.6307 138.433H61.6548C61.733 141.58 63.9844 143.206 67.5142 143.206C71.0653 143.206 73.1534 141.509 73.1605 138.845C73.1534 136.423 71.3281 135.138 68.7997 134.57L67.4929 134.257C66.2287 133.966 65.1705 133.497 65.1918 132.453C65.1918 131.516 66.0227 130.827 67.5284 130.827C68.9986 130.827 69.9006 131.494 70.0142 132.638ZM77.3242 143H80.5202L82.3952 136.139H82.5302L84.4052 143H87.6083L90.57 132.091H87.516L85.854 139.378H85.7617L83.9719 132.091H80.9677L79.2063 139.42H79.1069L77.4165 132.091H74.3555L77.3242 143ZM95.2947 143.206C96.907 143.206 97.951 142.503 98.4837 141.487H98.5689V143H101.438V135.642C101.438 133.043 99.2365 131.949 96.8075 131.949C94.1939 131.949 92.4751 133.199 92.0561 135.188L94.8544 135.415C95.0604 134.69 95.7067 134.158 96.7933 134.158C97.8232 134.158 98.4126 134.676 98.4126 135.571V135.614C98.4126 136.317 97.6669 136.409 95.7706 136.594C93.6115 136.793 91.6726 137.517 91.6726 139.953C91.6726 142.112 93.2138 143.206 95.2947 143.206ZM96.1612 141.118C95.2308 141.118 94.5632 140.685 94.5632 139.854C94.5632 139.001 95.2663 138.582 96.3317 138.433C96.9922 138.341 98.0717 138.185 98.4339 137.943V139.101C98.4339 140.244 97.4893 141.118 96.1612 141.118ZM103.786 147.091H106.811V141.253H106.903C107.322 142.162 108.239 143.178 110 143.178C112.486 143.178 114.425 141.21 114.425 137.56C114.425 133.81 112.401 131.949 110.007 131.949C108.182 131.949 107.308 133.036 106.903 133.923H106.768V132.091H103.786V147.091ZM106.747 137.545C106.747 135.599 107.571 134.357 109.041 134.357C110.54 134.357 111.335 135.656 111.335 137.545C111.335 139.449 110.526 140.77 109.041 140.77C107.585 140.77 106.747 139.491 106.747 137.545Z" fill="white"/>
<defs>
<clipPath id="clip0">
<rect width="99.9906" height="100" fill="white" transform="translate(8)"/>
</clipPath>
</defs>
</svg>
