<svg width="116" height="148" viewBox="0 0 116 148" fill="none" xmlns="http://www.w3.org/2000/svg">
<path d="M1.2642 143H4.33949V137.844H6.58381L9.33949 143H12.7344L9.64489 137.347C11.2997 136.636 12.2159 135.195 12.2159 133.206C12.2159 130.315 10.3054 128.455 7.00284 128.455H1.2642V143ZM4.33949 135.372V130.969H6.41335C8.18892 130.969 9.0483 131.757 9.0483 133.206C9.0483 134.648 8.18892 135.372 6.42756 135.372H4.33949ZM14.3324 143H17.358V132.091H14.3324V143ZM15.8523 130.685C16.7543 130.685 17.4929 129.996 17.4929 129.151C17.4929 128.312 16.7543 127.624 15.8523 127.624C14.9574 127.624 14.2188 128.312 14.2188 129.151C14.2188 129.996 14.9574 130.685 15.8523 130.685ZM19.7816 143H22.8072V136.452C22.8072 135.244 23.5742 134.442 24.5827 134.442C25.5771 134.442 26.2447 135.124 26.2447 136.196V143H29.1779V136.338C29.1779 135.209 29.8242 134.442 30.9251 134.442C31.891 134.442 32.6154 135.045 32.6154 136.26V143H35.6339V135.663C35.6339 133.298 34.2276 131.949 32.1964 131.949C30.5984 131.949 29.3555 132.766 28.908 134.016H28.7944C28.4464 132.751 27.3313 131.949 25.8327 131.949C24.3626 131.949 23.2475 132.73 22.793 134.016H22.6651V132.091H19.7816V143ZM41.1346 143.206C42.7468 143.206 43.7908 142.503 44.3235 141.487H44.4087V143H47.2781V135.642C47.2781 133.043 45.0763 131.949 42.6474 131.949C40.0337 131.949 38.315 133.199 37.896 135.188L40.6942 135.415C40.9002 134.69 41.5465 134.158 42.6332 134.158C43.663 134.158 44.2525 134.676 44.2525 135.571V135.614C44.2525 136.317 43.5067 136.409 41.6104 136.594C39.4513 136.793 37.5124 137.517 37.5124 139.953C37.5124 142.112 39.0536 143.206 41.1346 143.206ZM42.0011 141.118C41.0707 141.118 40.4031 140.685 40.4031 139.854C40.4031 139.001 41.1062 138.582 42.1715 138.433C42.832 138.341 43.9116 138.185 44.2738 137.943V139.101C44.2738 140.244 43.3292 141.118 42.0011 141.118ZM56.6211 138.355C56.6282 139.818 55.6268 140.585 54.5401 140.585C53.3967 140.585 52.658 139.783 52.6509 138.497V132.091H49.6254V139.037C49.6325 141.587 51.1239 143.142 53.3185 143.142C54.9592 143.142 56.1381 142.297 56.6282 141.018H56.7418V143H59.6467V132.091H56.6211V138.355ZM70.0142 132.638H72.9616C72.919 130.045 70.7884 128.256 67.5497 128.256C64.3608 128.256 62.0241 130.017 62.0384 132.659C62.0312 134.804 63.544 136.033 66.0014 136.622L67.5852 137.02C69.169 137.403 70.0497 137.858 70.0568 138.838C70.0497 139.903 69.0412 140.628 67.4787 140.628C65.8807 140.628 64.7301 139.889 64.6307 138.433H61.6548C61.733 141.58 63.9844 143.206 67.5142 143.206C71.0653 143.206 73.1534 141.509 73.1605 138.845C73.1534 136.423 71.3281 135.138 68.7997 134.57L67.4929 134.257C66.2287 133.966 65.1705 133.497 65.1918 132.453C65.1918 131.516 66.0227 130.827 67.5284 130.827C68.9986 130.827 69.9006 131.494 70.0142 132.638ZM77.3242 143H80.5202L82.3952 136.139H82.5302L84.4052 143H87.6083L90.57 132.091H87.516L85.854 139.378H85.7617L83.9719 132.091H80.9677L79.2063 139.42H79.1069L77.4165 132.091H74.3555L77.3242 143ZM95.2947 143.206C96.907 143.206 97.951 142.503 98.4837 141.487H98.5689V143H101.438V135.642C101.438 133.043 99.2365 131.949 96.8075 131.949C94.1939 131.949 92.4751 133.199 92.0561 135.188L94.8544 135.415C95.0604 134.69 95.7067 134.158 96.7933 134.158C97.8232 134.158 98.4126 134.676 98.4126 135.571V135.614C98.4126 136.317 97.6669 136.409 95.7706 136.594C93.6115 136.793 91.6726 137.517 91.6726 139.953C91.6726 142.112 93.2138 143.206 95.2947 143.206ZM96.1612 141.118C95.2308 141.118 94.5632 140.685 94.5632 139.854C94.5632 139.001 95.2663 138.582 96.3317 138.433C96.9922 138.341 98.0717 138.185 98.4339 137.943V139.101C98.4339 140.244 97.4893 141.118 96.1612 141.118ZM103.786 147.091H106.811V141.253H106.903C107.322 142.162 108.239 143.178 110 143.178C112.486 143.178 114.425 141.21 114.425 137.56C114.425 133.81 112.401 131.949 110.007 131.949C108.182 131.949 107.308 133.036 106.903 133.923H106.768V132.091H103.786V147.091ZM106.747 137.545C106.747 135.599 107.571 134.357 109.041 134.357C110.54 134.357 111.335 135.656 111.335 137.545C111.335 139.449 110.526 140.77 109.041 140.77C107.585 140.77 106.747 139.491 106.747 137.545Z" fill="#202020"/>
<g clip-path="url(#clip0)">
<path opacity="0.4" d="M57.6165 99.2988C84.9726 99.2988 107.149 77.1224 107.149 49.7663C107.149 22.4102 84.9726 0.233765 57.6165 0.233765C30.2605 0.233765 8.08398 22.4102 8.08398 49.7663C8.08398 77.1224 30.2605 99.2988 57.6165 99.2988Z" fill="#C9B8A5"/>
<path d="M14.7222 25.0003C21.2651 13.5887 32.0688 5.23967 44.7615 1.78601C57.5485 -1.72072 71.2045 -0.00892607 82.7302 6.54543C94.256 13.0998 102.709 23.9608 106.233 36.743C108.893 46.3588 108.606 56.5516 105.409 66.0025C102.212 75.4533 96.2525 83.7272 88.3011 89.7535C83.0335 93.7545 77.0338 96.686 70.6403 98.3829C61.0543 100.879 50.9432 100.473 41.5878 97.2178C32.2324 93.9623 24.0538 88.0033 18.088 80.0956C14.1711 74.8783 11.3039 68.9503 9.64557 62.6405C6.28272 49.9168 8.10868 36.3785 14.7222 25.0003ZM14.7222 25.0003C8.19001 36.3773 6.4446 49.8832 9.86996 62.547C11.587 68.7909 14.5265 74.6318 18.5181 79.731C24.476 87.3703 32.5647 93.0721 41.7621 96.1157C50.9595 99.1593 60.8528 99.4082 70.1916 96.8309C82.6435 93.437 93.251 85.2621 99.7051 74.0856C106.159 62.909 107.938 49.6356 104.653 37.1544C101.36 24.5726 93.2116 13.8105 81.9942 7.22907C70.7769 0.647644 57.407 -1.2157 44.8176 2.04779C32.1439 5.41496 21.3217 13.6686 14.7222 25.0003Z" fill="#C9B8A5"/>
<path d="M38.0299 40.3235C34.9352 43.9884 29.0171 44.0632 24.8193 40.5199C21.2946 37.5281 20.1447 32.9282 21.6406 29.3662C21.9389 28.6718 22.3391 28.0258 22.8279 27.4496C25.9225 23.794 31.8406 23.7098 36.0385 27.2532C36.9848 28.0505 37.7934 28.9981 38.4319 30.058C40.4326 33.4238 40.4046 37.5187 38.0299 40.3235Z" fill="#FCB404"/>
<path d="M31.7007 43.3995C29.1056 43.3707 26.6047 42.4233 24.6419 40.7256C21.0986 37.7338 19.7616 33.0124 21.3884 29.254C21.697 28.5367 22.1097 27.8689 22.6131 27.2719C25.8013 23.5322 31.9063 23.4013 36.2164 27.0476C37.1866 27.8642 38.0172 28.8337 38.6752 29.9178C40.8069 33.5079 40.6386 37.659 38.2452 40.4918C37.4333 41.4255 36.4264 42.1698 35.2957 42.6722C34.1649 43.1746 32.9378 43.4228 31.7007 43.3995ZM29.1576 24.9253C28.0015 24.9006 26.8539 25.1297 25.7959 25.5966C24.7378 26.0634 23.795 26.7566 23.0339 27.6272C22.5602 28.1884 22.1755 28.8191 21.8932 29.4971C20.36 33.0311 21.6408 37.4814 24.9972 40.3236C29.0735 43.7734 34.8233 43.6986 37.8244 40.1646C40.0683 37.5094 40.2179 33.6201 38.1984 30.2263C37.5742 29.1917 36.7846 28.2663 35.8611 27.487C33.9981 25.8702 31.6241 24.9629 29.1576 24.9253Z" fill="#613A12"/>
<path d="M37.1715 41.9967C39.6169 39.108 38.1937 33.8832 33.9927 30.3267C29.7917 26.7703 24.4036 26.229 21.9582 29.1177C19.5127 32.0064 20.9359 37.2312 25.1369 40.7876C29.3379 44.3441 34.726 44.8854 37.1715 41.9967Z" fill="#6D3317"/>
<path d="M32.6734 44.1193C29.8182 44.0035 27.0919 42.8997 24.9603 40.9966C20.6502 37.3972 19.2198 31.9372 21.7535 28.9828C24.2871 26.0284 29.8593 26.4678 34.1787 30.1141C36.1563 31.7254 37.6082 33.8902 38.3485 36.3313C38.6871 37.3053 38.7789 38.348 38.6158 39.3661C38.4526 40.3842 38.0395 41.346 37.4135 42.1653C36.818 42.8224 36.0836 43.3387 35.2638 43.6766C34.4439 44.0146 33.559 44.1658 32.6734 44.1193ZM26.4468 27.5337C25.6483 27.4944 24.8511 27.6325 24.1123 27.9381C23.3736 28.2436 22.7117 28.7089 22.1742 29.3007C19.8275 32.1055 21.2393 37.126 25.3155 40.5759C29.3918 44.0258 34.6087 44.5774 36.9835 41.81C37.5527 41.0603 37.9282 40.1817 38.0766 39.2521C38.225 38.3225 38.1418 37.3706 37.8342 36.4809C37.1257 34.1454 35.7355 32.0748 33.8421 30.5348C31.7988 28.7084 29.185 27.6477 26.4468 27.5337Z" fill="#613A12"/>
<g opacity="0.53">
<path opacity="0.53" d="M30.5505 30.1702C30.5857 30.4499 30.6894 30.7167 30.8525 30.9466C31.0156 31.1766 31.2331 31.3627 31.4854 31.4884C29.9896 31.6006 28.3441 31.6661 27.1567 30.7405C27.8092 31.9137 28.8411 32.8302 30.0831 33.3396C28.7496 33.9198 27.2501 33.993 25.8665 33.5453C26.4434 33.9941 27.071 34.3738 27.7364 34.6765C27.1388 34.6293 26.5376 34.6671 25.9507 34.7887C26.5552 35.2523 27.2709 35.549 28.0262 35.6489C26.3927 35.8051 24.7526 35.4279 23.3516 34.5737C24.2359 36.1409 25.4952 37.4644 27.0165 38.4256C26.447 38.6779 25.8236 38.7839 25.2027 38.7341C25.6221 39.2038 26.1778 39.5307 26.7921 39.669H25.2588C25.3 40.1427 25.4517 40.6 25.7017 41.0043C25.9518 41.4087 26.2932 41.7487 26.6986 41.997C27.524 42.4734 28.4204 42.8143 29.3538 43.0067C30.183 43.3329 31.105 43.3329 31.9342 43.0067C32.7569 42.558 33.0748 41.567 33.4768 40.7255C34.5146 38.5191 36.4686 36.9858 37.7869 34.9477C39.0023 33.0778 36.2255 32.0026 34.7483 31.6567C34.178 31.5913 30.6253 30.8527 30.5505 30.1702Z" fill="#472702"/>
</g>
<path d="M90.414 40.5198C86.2068 44.0725 80.2981 43.9884 77.1941 40.3235C76.1516 39.022 75.5086 37.4464 75.3426 35.7872C75.1767 34.128 75.4951 32.4563 76.2592 30.9742C76.9457 29.5366 77.9305 28.2618 79.1481 27.2345C83.3459 23.6817 89.264 23.7752 92.368 27.4308C92.5269 27.6271 92.6859 27.8328 92.8261 28.0385C95.3972 31.7315 94.3875 37.1541 90.414 40.5198Z" fill="#FCB404"/>
<path d="M83.5331 43.3994C82.2963 43.4271 81.0685 43.1817 79.9373 42.6808C78.8061 42.1798 77.7993 41.4356 76.9886 40.5011C75.9202 39.161 75.2632 37.5399 75.0973 35.8341C74.9314 34.1282 75.2636 32.4109 76.0537 30.89C76.7666 29.4086 77.7902 28.0981 79.0548 27.0475C83.3648 23.4012 89.4699 23.5041 92.658 27.2718C92.828 27.472 92.9871 27.6811 93.1348 27.8982C95.7526 31.6941 94.6494 37.3223 90.6386 40.7255C88.6618 42.4307 86.1436 43.3784 83.5331 43.3994ZM86.0668 24.9252C83.6022 24.9552 81.2277 25.856 79.3633 27.4682C78.1803 28.4745 77.2243 29.7205 76.5585 31.1237C75.8146 32.5498 75.4998 34.1609 75.6525 35.7622C75.8052 37.3634 76.4186 38.886 77.4187 40.1458C80.4104 43.6798 86.1696 43.7546 90.2459 40.3048C94.0137 37.0886 95.0888 31.7875 92.6393 28.2161C92.5002 28.012 92.3504 27.8154 92.1905 27.6271C91.4294 26.7564 90.4866 26.0633 89.4285 25.5964C88.3705 25.1296 87.223 24.9005 86.0668 24.9252Z" fill="#613A12"/>
<path d="M90.0962 40.7785C94.2973 37.2221 95.7204 31.9972 93.275 29.1085C90.8295 26.2198 85.4415 26.7612 81.2404 30.3176C77.0394 33.874 75.6162 39.0988 78.0617 41.9875C80.5072 44.8762 85.8952 44.3349 90.0962 40.7785Z" fill="#6D3317"/>
<path d="M82.5424 44.1287C81.6666 44.1663 80.7934 44.0097 79.9853 43.6703C79.1771 43.3309 78.454 42.817 77.8677 42.1654C77.2417 41.346 76.8286 40.3843 76.6655 39.3662C76.5023 38.348 76.5942 37.3053 76.9328 36.3314C77.6695 33.8909 79.1182 31.726 81.0932 30.1141C85.4033 26.4679 90.9754 25.935 93.5184 28.9361C94.1444 29.7555 94.5575 30.7172 94.7207 31.7354C94.8838 32.7535 94.792 33.7962 94.4534 34.7701C93.682 37.2011 92.2432 39.3665 90.3009 41.0195C88.3586 42.6725 85.991 43.7466 83.4679 44.1194C83.1407 44.11 82.7948 44.1287 82.5424 44.1287ZM88.7783 27.5337C86.0502 27.6557 83.4479 28.7158 81.4111 30.5349C79.5237 32.0726 78.1344 34.1353 77.419 36.4623C77.1114 37.352 77.0282 38.3039 77.1766 39.2335C77.325 40.163 77.7005 41.0417 78.2697 41.7914C78.9159 42.4781 79.7217 42.9944 80.6155 43.2946C81.5094 43.5947 82.4635 43.6693 83.3932 43.5117C85.801 43.1496 88.0602 42.123 89.9166 40.5474C91.773 38.9717 93.1531 36.9095 93.9018 34.5925C94.2131 33.7039 94.2991 32.7519 94.1523 31.8219C94.0055 30.8919 93.6303 30.0128 93.0603 29.2634C92.5171 28.6787 91.8519 28.2207 91.1119 27.9217C90.3719 27.6228 89.5752 27.4904 88.7783 27.5337Z" fill="#613A12"/>
<g opacity="0.53">
<path opacity="0.53" d="M79.709 31.1705C82.4512 31.5926 85.2383 31.6366 87.9925 31.3014C87.2873 31.8656 86.4721 32.2764 85.599 32.5075C86.5264 32.9306 87.5641 33.0484 88.5628 32.8441C87.8642 33.083 87.1934 33.3964 86.562 33.779C88.4319 34.6298 90.6009 33.779 92.4521 32.9001C92.0644 34.2335 91.3945 35.4678 90.488 36.5196C89.5814 37.5713 88.4593 38.4158 87.1978 38.9959C88.7985 38.9944 90.3618 38.5123 91.6854 37.6122C91.1927 38.8022 90.3947 39.8412 89.372 40.6242C88.3494 41.4072 87.1382 41.9066 85.8608 42.0718C85.2023 39.8416 84.0522 37.7873 82.4951 36.0602C81.8997 35.4852 81.3554 34.8596 80.8683 34.1904C80.6238 33.8462 80.4549 33.4541 80.3727 33.04C80.2905 32.6259 80.2969 32.1991 80.3915 31.7876L81.3919 31.5819" fill="#472702"/>
</g>
<path d="M90.8164 54.9646C90.8164 55.7032 90.8164 56.423 90.7416 57.1055C90.637 58.6312 90.3865 60.1433 89.9936 61.6213C89.6337 62.9707 89.1159 64.273 88.451 65.5012C87.8314 66.6539 87.0749 67.7275 86.1978 68.6987C85.5881 69.3738 84.9253 69.9991 84.2157 70.5685C78.2322 75.3834 68.752 76.7858 58.0377 76.7858C47.9873 76.7858 38.9839 75.5423 32.9816 71.3819C32.0006 70.7041 31.0892 69.9305 30.261 69.0726C29.3941 68.1761 28.6348 67.1814 27.9985 66.1089C27.1819 64.7342 26.553 63.2564 26.1286 61.7147C25.7128 60.1871 25.4559 58.6206 25.362 57.0401C25.3059 56.3576 25.2872 55.6471 25.2872 54.9178C25.2844 53.6178 25.3625 52.3188 25.5209 51.0285C26.2773 44.8833 28.8119 39.0928 32.8134 34.3681C33.0377 34.0876 33.2715 33.8165 33.5146 33.5547C36.5796 30.1917 40.307 27.4988 44.4626 25.6452L45.5564 25.1777C47.2118 24.5047 48.919 23.9669 50.6612 23.5696C51.2782 23.4294 51.914 23.3079 52.531 23.1957C53.3537 23.0648 54.1952 22.9526 55.0366 22.8778H55.5882C56.4016 22.8217 57.2244 22.7843 58.0471 22.7843C59.3815 22.7847 60.7146 22.8658 62.0392 23.0274H62.2449C63.0022 23.1302 63.7502 23.2518 64.4981 23.392C64.9749 23.4855 65.433 23.5977 65.9192 23.7099C67.8042 24.1665 69.6441 24.7923 71.4166 25.5797L72.0804 25.8789C74.0558 26.7888 75.9351 27.8944 77.6899 29.1792L78.1855 29.5532C81.7177 32.2348 84.6549 35.6202 86.8113 39.4954C88.9678 43.3706 90.2965 47.6511 90.7135 52.0663C90.7696 52.9919 90.8164 53.9735 90.8164 54.9646Z" fill="#FCB404"/>
<path d="M58.0661 77.0663C46.2392 77.0663 38.2269 75.3273 32.823 71.6063C31.8121 70.9195 30.8725 70.1334 30.0182 69.2596C29.1396 68.3468 28.368 67.3368 27.7183 66.2491C26.9001 64.852 26.2713 63.3523 25.8484 61.7895C25.4339 60.2609 25.1708 58.6951 25.0631 57.1149C25.0631 56.423 24.9883 55.7031 24.9883 54.9739C24.9972 48.4916 26.953 42.1613 30.602 36.8036C34.2511 31.4459 39.4252 27.3077 45.4539 24.9253C47.722 23.9985 50.0864 23.3275 52.5032 22.9245C53.5223 22.7562 54.5507 22.6347 55.5792 22.5599C57.82 22.3955 60.0715 22.4518 62.3013 22.7282C63.0492 22.8217 63.8159 22.9432 64.5732 23.0928C66.9814 23.5643 69.3299 24.3011 71.5758 25.2899C76.8941 27.6102 81.4954 31.3101 84.9031 36.0066C88.3108 40.703 90.4008 46.2251 90.9569 52.0008C91.0504 52.9357 91.0878 53.9735 91.0878 54.9645C91.0878 55.7125 91.0878 56.4417 91.013 57.1336C90.9203 58.6784 90.6729 60.21 90.2744 61.7054C89.9097 63.074 89.3857 64.395 88.713 65.6414C87.634 67.6286 86.1686 69.3801 84.403 70.7929C79.0552 75.0655 70.7063 77.0663 58.0661 77.0663ZM58.0661 23.018C57.262 23.018 56.4393 23.018 55.6259 23.1022C54.6162 23.177 53.5971 23.3078 52.5967 23.4668C50.2196 23.8659 47.8933 24.5243 45.6596 25.4301C40.3692 27.5584 35.7424 31.0596 32.2566 35.5725C28.7708 40.0855 26.5522 45.4468 25.8297 51.1033C25.6768 52.3847 25.5987 53.674 25.596 54.9645C25.596 55.6751 25.596 56.3856 25.6708 57.0681C25.7724 58.6139 26.0292 60.1456 26.4374 61.6399C26.8656 63.1595 27.4944 64.6152 28.3073 65.9687C28.9375 67.0183 29.6839 67.9936 30.5324 68.8763C31.3491 69.7237 32.2479 70.4879 33.2157 71.1575C38.4419 74.7944 46.3327 76.5146 58.0661 76.5146C70.5754 76.5146 78.8308 74.5513 84.0384 70.3535C84.7394 69.7842 85.3928 69.1589 85.9924 68.4836C86.8544 67.5293 87.5984 66.4745 88.2082 65.3423C88.8612 64.1336 89.3726 62.8536 89.7321 61.5277C90.1178 60.0649 90.362 58.5684 90.4614 57.0588C90.5174 56.3856 90.5361 55.6751 90.5361 54.9365C90.5361 54.0016 90.5361 52.9825 90.4053 52.0195C89.8483 46.345 87.7859 40.9222 84.4312 36.3118C81.0765 31.7013 76.5513 28.0705 71.3234 25.7948C69.1222 24.8248 66.8209 24.1006 64.461 23.6351C63.7224 23.4948 62.9651 23.3733 62.2265 23.2798C60.8468 23.103 59.4571 23.0156 58.0661 23.018Z" fill="#613A12"/>
<path d="M51.0915 43.1563C46.2486 37.0045 44.8649 29.5812 44.4629 25.6451L45.5568 25.1777C47.2121 24.5047 48.9193 23.9669 50.6615 23.5696C49.2965 30.7872 51.0915 43.1563 51.0915 43.1563Z" fill="#613A12"/>
<path d="M51.0913 43.4275C51.0488 43.4273 51.0067 43.418 50.9681 43.4003C50.9294 43.3825 50.8949 43.3568 50.867 43.3246C45.9866 37.1074 44.5842 29.5999 44.1822 25.6732C44.1786 25.6173 44.1918 25.5616 44.2201 25.5133C44.2485 25.4649 44.2906 25.4262 44.3412 25.4021C44.7432 25.2151 45.1265 25.0561 45.4537 24.9252C47.1208 24.2443 48.8405 23.7003 50.5958 23.2985C50.6408 23.2893 50.6874 23.2914 50.7314 23.3044C50.7754 23.3174 50.8155 23.3411 50.8483 23.3733C50.8802 23.4064 50.9044 23.4463 50.9189 23.4899C50.9335 23.5336 50.9381 23.58 50.9324 23.6257C49.5861 30.7125 51.3438 42.9881 51.3625 43.119C51.3694 43.1789 51.3567 43.2396 51.3264 43.2918C51.2961 43.344 51.2497 43.385 51.1942 43.4088C51.162 43.4234 51.1266 43.4298 51.0913 43.4275ZM44.7525 25.8134C45.1546 29.5531 46.4541 36.322 50.68 42.156C50.2967 39.0801 49.3056 29.9178 50.3154 23.9342C48.7233 24.3201 47.161 24.82 45.6407 25.4301L44.7525 25.8134Z" fill="#613A12"/>
<path d="M72.0992 25.8414C71.6691 29.8149 70.2294 37.0606 65.4893 43.1563C65.4893 43.1563 67.2656 30.9181 65.938 23.6818" fill="#613A12"/>
<path d="M65.4887 43.4275C65.4551 43.4371 65.4195 43.4371 65.3859 43.4275C65.3283 43.4065 65.28 43.366 65.2493 43.3131C65.2185 43.2601 65.2073 43.1981 65.2176 43.1377C65.2176 43.0162 66.9659 30.8527 65.6663 23.7473C65.6596 23.7116 65.6602 23.675 65.6679 23.6395C65.6756 23.6041 65.6904 23.5705 65.7113 23.5409C65.7322 23.5112 65.7589 23.4861 65.7897 23.4669C65.8205 23.4478 65.8549 23.435 65.8907 23.4294C65.9257 23.4226 65.9617 23.4228 65.9966 23.4299C66.0316 23.4371 66.0647 23.451 66.0943 23.471C66.1238 23.491 66.1491 23.5166 66.1687 23.5463C66.1883 23.5761 66.2019 23.6094 66.2086 23.6444C67.3025 29.6186 66.2927 39.0521 65.9001 42.1747C70.1446 36.3127 71.4348 29.4784 71.8275 25.8322C71.8298 25.7957 71.8395 25.76 71.856 25.7274C71.8724 25.6947 71.8953 25.6657 71.9233 25.6421C71.9512 25.6185 71.9836 25.6009 72.0186 25.5901C72.0536 25.5794 72.0903 25.5759 72.1267 25.5797C72.1995 25.5891 72.2658 25.6267 72.3113 25.6843C72.3567 25.742 72.3777 25.8152 72.3698 25.8883C71.9584 29.7776 70.4999 37.2103 65.7037 43.3434C65.6767 43.3729 65.6433 43.3959 65.606 43.4104C65.5687 43.425 65.5286 43.4309 65.4887 43.4275Z" fill="#613A12"/>
<path d="M62.0581 22.9806C61.9085 42.2588 58.3184 45.129 58.3184 45.129C53.5129 38.1358 54.401 27.3654 55.0555 22.8777H55.6071C56.4205 22.8216 57.2432 22.7842 58.066 22.7842C59.3994 22.7691 60.7326 22.8346 62.0581 22.9806Z" fill="#613A12"/>
<path d="M58.3179 45.4096C58.2429 45.393 58.1765 45.3498 58.1309 45.288C53.2412 38.1732 54.1855 27.2159 54.8213 22.8497C54.831 22.7897 54.8599 22.7344 54.9038 22.6923C54.9476 22.6501 55.004 22.6233 55.0644 22.616L55.6066 22.5693C57.7877 22.4023 59.9799 22.4524 62.1511 22.7188C62.2189 22.7237 62.2822 22.7546 62.3275 22.8052C62.3729 22.8558 62.3968 22.9221 62.3942 22.99C62.2259 42.1747 58.6451 45.2226 58.4862 45.3441C58.4396 45.3852 58.38 45.4084 58.3179 45.4096ZM55.2981 23.1302C54.6904 27.515 53.8676 37.8366 58.3459 44.6803C59.0939 43.6893 61.6369 39.1362 61.7865 23.2237C59.7407 22.9948 57.6781 22.9572 55.6253 23.1115L55.2981 23.1302Z" fill="#613A12"/>
<path d="M90.8167 54.9645C90.8167 55.7031 90.8167 56.423 90.7419 57.1148C88.9809 57.0568 87.2487 56.6521 85.6445 55.9237C84.0402 55.1954 82.5953 54.1577 81.3926 52.8702C84.4311 54.5344 88.0212 53.4219 90.7419 52.0288C90.7699 52.9918 90.8167 53.9735 90.8167 54.9645Z" fill="#613A12"/>
<path d="M90.7418 57.3859C88.9368 57.3359 87.16 56.9255 85.5159 56.1789C83.8718 55.4323 82.3936 54.3646 81.1681 53.0385C81.1294 52.9891 81.1084 52.9283 81.1084 52.8655C81.1084 52.8028 81.1294 52.7419 81.1681 52.6926C81.2085 52.6423 81.2656 52.6081 81.329 52.5961C81.3924 52.5841 81.458 52.5951 81.514 52.6271C84.4871 54.2633 88.0585 53.0666 90.5548 51.7764C90.5954 51.7558 90.6402 51.7451 90.6857 51.7451C90.7311 51.7451 90.776 51.7558 90.8166 51.7764C90.8559 51.7978 90.8893 51.8287 90.9137 51.8662C90.9382 51.9037 90.953 51.9468 90.9568 51.9914C91.0503 52.9263 91.0877 53.9641 91.0877 54.9551C91.0877 55.7031 91.0877 56.4323 91.0129 57.1242C91.0105 57.1944 90.9808 57.261 90.9302 57.3099C90.8797 57.3587 90.8121 57.386 90.7418 57.3859ZM82.5985 53.6462C84.8193 55.5153 87.5827 56.62 90.48 56.7969C90.48 56.1986 90.5361 55.5722 90.5361 54.9271C90.5361 54.0856 90.5361 53.2442 90.4426 52.4215C88.2361 53.5434 85.3098 54.469 82.5985 53.6743V53.6462Z" fill="#613A12"/>
<path d="M89.9939 61.6212C89.634 62.9706 89.1162 64.2729 88.4513 65.5011C86.0298 64.3512 82.608 62.0419 82.5986 58.218C84.7567 59.9265 87.2925 61.0934 89.9939 61.6212Z" fill="#613A12"/>
<path d="M88.4507 65.7816C88.4138 65.79 88.3754 65.79 88.3385 65.7816C86.0947 64.7158 82.3269 62.313 82.3269 58.2461C82.3085 58.2154 82.2963 58.1813 82.2911 58.1459C82.2858 58.1105 82.2875 58.0744 82.2962 58.0397C82.3049 58.005 82.3203 57.9723 82.3417 57.9436C82.363 57.9148 82.3897 57.8905 82.4204 57.8721C82.4511 57.8537 82.4851 57.8415 82.5205 57.8362C82.556 57.831 82.592 57.8327 82.6268 57.8414C82.6615 57.8501 82.6942 57.8655 82.7229 57.8868C82.7517 57.9081 82.776 57.9349 82.7944 57.9656C84.9143 59.6388 87.4006 60.7859 90.0494 61.3126C90.0889 61.3178 90.1268 61.3313 90.1607 61.3523C90.1945 61.3732 90.2236 61.4011 90.2458 61.4342C90.274 61.4729 90.2914 61.5183 90.2964 61.566C90.3013 61.6136 90.2935 61.6617 90.2738 61.7053C89.9092 63.0739 89.3851 64.3949 88.7125 65.6414C88.6872 65.6877 88.649 65.7256 88.6025 65.7505C88.556 65.7754 88.5033 65.7862 88.4507 65.7816ZM82.9066 58.7977C83.2151 61.9297 85.9358 63.9491 88.3385 65.1365C88.8762 64.0826 89.3145 62.9809 89.6474 61.8455C87.2039 61.3371 84.9023 60.2965 82.9066 58.7977Z" fill="#613A12"/>
<path d="M86.1976 68.6986C85.5878 69.3738 84.925 69.999 84.2155 70.5685C83.0122 68.9604 82.2195 67.083 81.9062 65.0991C83.0094 66.6425 84.4858 67.8809 86.1976 68.6986Z" fill="#613A12"/>
<path d="M84.216 70.8489C84.1428 70.8397 84.076 70.8029 84.029 70.7461C82.8003 69.095 81.9917 67.1698 81.673 65.1365C81.6609 65.0744 81.6709 65.0101 81.7013 64.9546C81.7316 64.8991 81.7804 64.856 81.8392 64.8327C81.898 64.8094 81.9631 64.8074 82.0232 64.827C82.0834 64.8466 82.1347 64.8867 82.1685 64.9402C83.2446 66.4356 84.6782 67.6377 86.3383 68.4368C86.3796 68.4543 86.4163 68.4811 86.4455 68.5152C86.4747 68.5492 86.4956 68.5896 86.5065 68.6331C86.5169 68.6759 86.5164 68.7206 86.505 68.7631C86.4935 68.8055 86.4716 68.8445 86.4411 68.8762C85.8218 69.5552 85.1462 70.1807 84.4216 70.7461C84.397 70.7772 84.3658 70.8026 84.3303 70.8204C84.2947 70.8381 84.2557 70.8479 84.216 70.8489ZM82.4115 66.1743C82.7826 67.612 83.4166 68.9687 84.2814 70.1758C84.8024 69.7494 85.2958 69.2903 85.7586 68.8014C84.4785 68.1542 83.3405 67.2579 82.4115 66.1649V66.1743Z" fill="#613A12"/>
<path d="M36.5154 52.8703C35.1049 54.3745 33.3692 55.5365 31.441 56.2673C29.5127 56.998 27.4429 57.2784 25.3897 57.0868C25.343 56.4043 25.3243 55.6937 25.3243 54.9645C25.3215 53.6645 25.3996 52.3655 25.558 51.0752C28.2506 52.7768 32.8037 54.8991 36.5154 52.8703Z" fill="#613A12"/>
<path d="M26.4837 57.4047C26.1285 57.4047 25.7545 57.4047 25.3712 57.4047C25.3057 57.4003 25.244 57.3723 25.1975 57.3259C25.1511 57.2794 25.1231 57.2177 25.1187 57.1522C25.1187 56.4604 25.0439 55.7405 25.0439 55.0112C25.0452 53.6986 25.1263 52.3873 25.287 51.0845C25.2926 51.0392 25.3091 50.996 25.3352 50.9585C25.3612 50.921 25.3961 50.8905 25.4366 50.8695C25.4788 50.8489 25.5252 50.8381 25.5722 50.8381C25.6192 50.8381 25.6655 50.8489 25.7077 50.8695C28.1199 52.3934 32.7197 54.6653 36.3846 52.6552C36.4392 52.6238 36.5033 52.6132 36.5651 52.6252C36.6269 52.6372 36.6824 52.6711 36.7212 52.7207C36.7615 52.7693 36.7835 52.8305 36.7835 52.8936C36.7835 52.9568 36.7615 53.018 36.7212 53.0666C35.4076 54.4583 33.8195 55.5625 32.0574 56.3091C30.2952 57.0558 28.3974 57.4289 26.4837 57.4047ZM25.6516 56.825C29.1503 57.0535 32.6025 55.9251 35.2908 53.6743C31.8689 54.6747 28.0731 52.9264 25.7825 51.5333C25.6594 52.6729 25.597 53.8183 25.5956 54.9645C25.5956 55.6003 25.6143 56.2173 25.6516 56.825Z" fill="#613A12"/>
<path d="M35.2905 58.218C35.2905 62.8927 30.1858 65.2954 28.0261 66.1088C27.2057 64.736 26.5766 63.2577 26.1562 61.7147C30.8028 61.9203 35.2905 58.218 35.2905 58.218Z" fill="#613A12"/>
<path d="M28.0263 66.38C27.9781 66.3801 27.9307 66.3682 27.8882 66.3454C27.8458 66.3225 27.8097 66.2894 27.7833 66.2491C26.9651 64.852 26.3363 63.3523 25.9134 61.7895C25.8997 61.7484 25.8967 61.7044 25.9049 61.6618C25.9131 61.6193 25.9321 61.5795 25.9601 61.5464C25.9895 61.5136 26.0256 61.4874 26.0659 61.4697C26.1062 61.4519 26.1498 61.443 26.1939 61.4436C30.6535 61.6399 35.1131 58.0404 35.1131 57.9656C35.153 57.9309 35.2022 57.9087 35.2546 57.9016C35.3071 57.8945 35.3604 57.9029 35.4081 57.9258C35.4558 57.9486 35.4958 57.985 35.5231 58.0302C35.5504 58.0755 35.5639 58.1278 35.5619 58.1807C35.5619 63.0049 30.3543 65.4825 28.0824 66.3239C28.0685 66.3468 28.0492 66.366 28.0263 66.38ZM26.5398 62.0045C26.9252 63.3106 27.465 64.5661 28.1479 65.7442C30.2702 64.9122 34.5895 62.7431 34.9822 58.779C33.7388 59.714 30.2515 61.9858 26.5679 61.9858L26.5398 62.0045Z" fill="#613A12"/>
<path d="M35.9824 65.0991C35.6132 67.4348 34.5813 69.6154 33.0093 71.3818C32.0271 70.7017 31.1129 69.9284 30.2793 69.0726C33.5328 68.6612 35.9824 65.0991 35.9824 65.0991Z" fill="#613A12"/>
<path d="M33.0093 71.6529C32.9578 71.6707 32.9018 71.6707 32.8503 71.6529C31.8395 70.9662 30.8999 70.18 30.0455 69.3062C30.01 69.27 29.9857 69.2241 29.9758 69.1743C29.9658 69.1245 29.9706 69.0729 29.9894 69.0258C30.0051 68.9764 30.0345 68.9326 30.0743 68.8995C30.1141 68.8663 30.1625 68.8453 30.2138 68.8388C33.2991 68.4555 35.6925 65.0243 35.7205 64.9869C35.756 64.9359 35.8074 64.8982 35.8666 64.8796C35.9258 64.861 35.9895 64.8626 36.0478 64.884C36.1072 64.9053 36.1569 64.9472 36.1878 65.0022C36.2187 65.0572 36.2287 65.1214 36.2161 65.1832C35.8481 67.5498 34.8173 69.7638 33.243 71.5688C33.2127 71.5992 33.176 71.6226 33.1356 71.6372C33.0952 71.6517 33.052 71.6571 33.0093 71.6529ZM30.8496 69.2501C31.5103 69.9009 32.2163 70.5039 32.9625 71.0546C34.1554 69.6507 35.0152 67.995 35.4775 66.2116C34.2738 67.665 32.6616 68.7235 30.8496 69.2501Z" fill="#613A12"/>
<path d="M76.9415 51.1126C76.9678 52.5517 76.4954 53.9555 75.6046 55.086C75.271 55.5175 74.8471 55.8707 74.3626 56.1211C73.8781 56.3714 73.3447 56.5127 72.7998 56.5352C70.4905 56.5352 68.6113 54.1137 68.6113 51.1126C68.6113 50.7618 68.6394 50.4117 68.6955 50.0655C69.0694 47.5785 70.7617 45.6993 72.7998 45.6993C75.0623 45.6993 76.9415 48.1208 76.9415 51.1126Z" fill="#472702"/>
<path d="M72.7627 56.6754C70.3787 56.6754 68.4434 54.1791 68.4434 51.1126C68.445 50.756 68.47 50.4 68.5182 50.0467C68.9108 47.4476 70.6965 45.5591 72.7627 45.5591C75.1374 45.5591 77.0728 48.0553 77.0728 51.1126C77.0938 52.5783 76.612 54.007 75.7078 55.1608C75.3613 55.6174 74.9169 55.9904 74.4072 56.2525C73.8976 56.5147 73.3356 56.6591 72.7627 56.6754ZM72.7627 45.8396C70.8368 45.8396 69.1633 47.6253 68.7893 50.0935C68.7411 50.4311 68.7162 50.7716 68.7145 51.1126C68.7145 54.0295 70.5282 56.3949 72.7627 56.3949C73.2947 56.3788 73.8165 56.2447 74.2903 56.0021C74.7641 55.7596 75.178 55.4147 75.5021 54.9925C76.366 53.8857 76.8246 52.5164 76.8016 51.1126C76.8016 48.2049 74.9879 45.8115 72.7627 45.8115V45.8396Z" fill="#472702"/>
<path d="M61.6934 66.4267C61.1324 68.2965 59.8796 70.1103 58.4305 70.1103C58.048 70.0829 57.6763 69.9715 57.3418 69.784C57.0073 69.5966 56.7182 69.3377 56.4952 69.0258C55.8767 68.2598 55.4217 67.3752 55.1582 66.4267C56.2805 66.3429 57.3774 66.0513 58.3931 65.5665C58.9642 65.8227 59.5551 66.0322 60.1601 66.1929C60.6617 66.3238 61.1755 66.4021 61.6934 66.4267Z" fill="#EF5823"/>
<path d="M58.4302 70.3908C58.0061 70.3614 57.594 70.2379 57.2236 70.0293C56.8533 69.8207 56.5341 69.5322 56.2892 69.1847C55.643 68.3887 55.1658 67.4693 54.8868 66.4828C54.8755 66.4429 54.8739 66.4009 54.882 66.3603C54.8902 66.3196 54.9078 66.2815 54.9336 66.249C54.9577 66.2157 54.9884 66.1878 55.0237 66.1668C55.0591 66.1459 55.0984 66.1325 55.1392 66.1275C56.2289 66.0476 57.2942 65.7654 58.2806 65.2954C58.315 65.2766 58.3536 65.2667 58.3928 65.2667C58.432 65.2667 58.4706 65.2766 58.505 65.2954C59.0604 65.5458 59.6358 65.7491 60.2253 65.9031C60.7092 66.0274 61.2038 66.1057 61.7024 66.1368C61.7447 66.1368 61.7863 66.147 61.8237 66.1665C61.8612 66.1861 61.8933 66.2144 61.9175 66.249C61.9357 66.287 61.9452 66.3285 61.9452 66.3706C61.9452 66.4127 61.9357 66.4542 61.9175 66.4921C61.3846 68.4368 60.0757 70.3908 58.4302 70.3908ZM55.5226 66.6511C55.7779 67.4454 56.1807 68.1844 56.7099 68.8294C56.9095 69.1077 57.1662 69.34 57.4629 69.5109C57.7596 69.6818 58.0894 69.7874 58.4302 69.8205C59.6923 69.8205 60.7862 68.2404 61.3285 66.6604C60.9115 66.6203 60.4987 66.5452 60.0944 66.436C59.5123 66.2856 58.9433 66.0886 58.3928 65.847C57.4836 66.2661 56.5157 66.5436 55.5226 66.6698V66.6511Z" fill="#613A12"/>
<g opacity="0.43">
<path opacity="0.43" d="M71.6036 53.506C72.2439 53.506 72.7629 52.7023 72.7629 51.711C72.7629 50.7196 72.2439 49.9159 71.6036 49.9159C70.9634 49.9159 70.4443 50.7196 70.4443 51.711C70.4443 52.7023 70.9634 53.506 71.6036 53.506Z" fill="white"/>
</g>
<path d="M48.6415 51.1126C48.6442 52.0384 48.4564 52.955 48.0899 53.8052C47.8167 54.564 47.3279 55.2265 46.6835 55.7115C46.0391 56.1964 45.2671 56.4827 44.4623 56.5352C42.1531 56.5352 40.2832 54.1137 40.2832 51.1126C40.2832 48.1115 42.1531 45.6993 44.4623 45.6993C46.7716 45.6993 48.4545 47.8964 48.6228 50.6825C48.6321 50.8227 48.6415 50.9723 48.6415 51.1126Z" fill="#472702"/>
<path d="M44.4629 56.6754C42.0789 56.6754 40.1436 54.1791 40.1436 51.1126C40.1436 48.046 42.0789 45.5591 44.4629 45.5591C46.6974 45.5591 48.586 47.8123 48.7636 50.6731C48.7636 50.8227 48.7636 50.9723 48.7636 51.1126C48.7709 52.0579 48.5798 52.9943 48.2026 53.8613C47.9206 54.6433 47.4166 55.3261 46.7524 55.8259C46.0881 56.3258 45.2925 56.621 44.4629 56.6754ZM44.4629 45.8115C42.2284 45.8115 40.4147 48.1769 40.4147 51.0845C40.4147 53.9921 42.2284 56.3669 44.4629 56.3669C45.2404 56.3152 45.9857 56.0371 46.607 55.567C47.2283 55.0968 47.6985 54.4551 47.9596 53.721C48.321 52.8892 48.5057 51.9914 48.5018 51.0845C48.5018 50.9443 48.5018 50.804 48.5018 50.6638C48.3242 47.9712 46.5572 45.8115 44.4629 45.8115Z" fill="#472702"/>
<path d="M54.747 66.7165C53.9524 66.7544 53.1604 66.599 52.439 66.2636C51.7176 65.9281 51.0884 65.4227 50.6053 64.7906C50.5869 64.758 50.5751 64.7222 50.5705 64.6851C50.5659 64.648 50.5687 64.6103 50.5787 64.5743C50.5887 64.5383 50.6057 64.5046 50.6287 64.4751C50.6517 64.4456 50.6803 64.421 50.7128 64.4026C50.7454 64.3841 50.7812 64.3723 50.8183 64.3678C50.8554 64.3632 50.8931 64.366 50.9291 64.376C50.9651 64.3859 50.9988 64.4029 51.0283 64.4259C51.0577 64.449 51.0824 64.4775 51.1008 64.5101C51.5737 65.1123 52.1937 65.5826 52.9011 65.8757C53.6085 66.1688 54.3794 66.2749 55.1397 66.1836C56.1713 66.0998 57.1805 65.8372 58.1221 65.4076V61.2004C58.134 61.136 58.1682 61.0777 58.2185 61.0358C58.2689 60.9939 58.3324 60.9709 58.3979 60.9709C58.4635 60.9709 58.5269 60.9939 58.5773 61.0358C58.6277 61.0777 58.6618 61.136 58.6737 61.2004V65.5946C58.6734 65.6474 58.6572 65.6988 58.6272 65.7422C58.5972 65.7855 58.5547 65.8188 58.5054 65.8377C57.4603 66.3532 56.3286 66.6702 55.1678 66.7726L54.747 66.7165Z" fill="#613A12"/>
<path d="M62.0114 66.7166H61.6841C60.5016 66.619 59.3475 66.3019 58.281 65.7817C58.2342 65.7604 58.1944 65.7262 58.1662 65.6832C58.1381 65.6401 58.1228 65.59 58.1221 65.5386V61.1444C58.134 61.08 58.1681 61.0217 58.2185 60.9798C58.2689 60.9379 58.3323 60.9149 58.3979 60.9149C58.4634 60.9149 58.5269 60.9379 58.5773 60.9798C58.6277 61.0217 58.6618 61.08 58.6737 61.1444V65.3516C59.6317 65.7905 60.661 66.0534 61.7122 66.1276C62.4586 66.2154 63.215 66.1132 63.9113 65.8304C64.6076 65.5476 65.2212 65.0935 65.695 64.5101C65.7116 64.4727 65.7362 64.4393 65.7671 64.4124C65.798 64.3854 65.8344 64.3656 65.8738 64.3542C65.9132 64.3429 65.9545 64.3403 65.995 64.3467C66.0355 64.353 66.0741 64.3682 66.1081 64.3911C66.1421 64.414 66.1707 64.4441 66.1918 64.4792C66.2129 64.5143 66.2261 64.5536 66.2304 64.5944C66.2347 64.6351 66.23 64.6764 66.2166 64.7151C66.2033 64.7539 66.1816 64.7892 66.1531 64.8187C65.666 65.4444 65.0352 65.9436 64.3143 66.274C63.5933 66.6044 62.8034 66.7562 62.0114 66.7166Z" fill="#613A12"/>
<path d="M63.6566 56.7034C63.6566 58.377 61.3006 61.6399 58.393 61.6399C55.4853 61.6399 53.1387 58.377 53.1387 56.7034C53.1387 55.0299 55.4947 53.6649 58.393 53.6649C61.2913 53.6649 63.6566 55.0206 63.6566 56.7034Z" fill="#472702"/>
<path d="M58.3926 61.7707C55.3354 61.7707 52.998 58.3956 52.998 56.7034C52.998 55.0112 55.4195 53.5247 58.3926 53.5247C61.3657 53.5247 63.7965 54.9458 63.7965 56.7034C63.7965 58.4611 61.4592 61.7707 58.3926 61.7707ZM58.3926 53.8051C55.5878 53.8051 53.2785 55.1047 53.2785 56.7034C53.2785 58.3021 55.5972 61.4996 58.3926 61.4996C61.188 61.4996 63.516 58.3208 63.516 56.7034C63.516 55.086 61.2161 53.8051 58.3926 53.8051Z" fill="#472702"/>
<g opacity="0.43">
<path opacity="0.43" d="M45.547 53.506C46.1873 53.506 46.7063 52.7023 46.7063 51.711C46.7063 50.7196 46.1873 49.9159 45.547 49.9159C44.9067 49.9159 44.3877 50.7196 44.3877 51.711C44.3877 52.7023 44.9067 53.506 45.547 53.506Z" fill="white"/>
</g>
<g opacity="0.14">
<path opacity="0.14" d="M57.8791 55.3479C57.5136 55.3016 57.1425 55.3308 56.7887 55.4337C56.4349 55.5366 56.106 55.7111 55.8223 55.9462C55.6744 56.1121 55.5613 56.306 55.49 56.5165C55.4186 56.727 55.3904 56.9497 55.4069 57.1713C55.4235 57.3929 55.4846 57.6089 55.5865 57.8064C55.6883 58.004 55.829 58.1789 55.9999 58.3209C55.7415 58.3173 55.4889 58.2443 55.2684 58.1094C55.048 57.9745 54.8679 57.7827 54.7471 57.5543C53.0175 54.8804 57.421 54.1511 59.0759 54.3288C59.7584 54.4036 62.4977 54.9271 62.4136 55.9462C62.4136 56.5259 61.2729 56.1706 60.9457 56.0584C59.966 55.6656 58.9317 55.4259 57.8791 55.3479Z" fill="white"/>
</g>
<g opacity="0.11">
<path opacity="0.11" d="M61.6933 66.4267C61.1324 68.2966 59.8796 70.1103 58.4304 70.1103C58.048 70.0829 57.6762 69.9715 57.3417 69.7841C57.0072 69.5966 56.7182 69.3377 56.4951 69.0258C57.4725 68.9946 58.3988 68.5818 59.0755 67.8759C59.5365 67.3856 59.904 66.8153 60.16 66.193C60.6617 66.3238 61.1755 66.4022 61.6933 66.4267Z" fill="#472702"/>
</g>
<g opacity="0.11">
<path opacity="0.11" d="M90.8164 54.9645C90.8164 55.7031 90.8164 56.423 90.7416 57.1055C90.637 58.6312 90.3865 60.1433 89.9936 61.6212C89.6337 62.9707 89.1159 64.273 88.451 65.5012C87.8314 66.6538 87.0749 67.7274 86.1978 68.6986C85.5881 69.3738 84.9253 69.9991 84.2157 70.5685C78.2322 75.3834 68.752 76.7858 58.0377 76.7858C47.9873 76.7858 38.9839 75.5423 32.9816 71.3819C32.0006 70.7041 31.0892 69.9305 30.261 69.0726C29.3941 68.1761 28.6348 67.1814 27.9985 66.1089C27.1819 64.7342 26.553 63.2563 26.1286 61.7147C25.7128 60.1871 25.4559 58.6205 25.362 57.0401C25.3059 56.3576 25.2872 55.647 25.2872 54.9178C25.2844 53.6178 25.3625 52.3188 25.5209 51.0285C26.2773 44.8833 28.8119 39.0928 32.8134 34.368C32.6177 34.9753 32.3542 35.5587 32.028 36.107C27.7647 44.0539 25.175 57.0307 31.5886 64.5102C34.1103 67.2873 37.2351 69.4493 40.7229 70.8303C49.2204 74.4514 58.6669 75.203 67.6301 72.9713C70.1585 72.3696 72.593 71.426 74.8665 70.1665C79.9772 67.1299 83.7761 62.3012 85.5247 56.6194C87.4693 50.5797 86.4596 44.3437 83.9353 38.6126C82.5946 35.5723 80.7941 32.7563 78.5968 30.2637C78.279 29.8991 77.9424 29.5345 77.6619 29.1324C81.3292 31.8101 84.3865 35.2356 86.6315 39.1826C88.8766 43.1296 90.2584 47.5082 90.6855 52.0289C90.7696 52.9918 90.8164 53.9735 90.8164 54.9645Z" fill="#613A12"/>
</g>
<g opacity="0.16">
<path opacity="0.16" d="M79.5976 31.6568C68.1833 26.0727 55.0917 24.9653 42.9016 28.5528C41.9008 28.8313 40.9276 29.2005 39.994 29.656C39.4048 29.9631 38.8336 30.3033 38.283 30.6751C36.7124 31.6786 35.1541 32.6821 33.6084 33.6856V33.6014C36.6417 30.2319 40.3367 27.5236 44.4629 25.6452L45.5568 25.1777C47.2121 24.5047 48.9193 23.9669 50.6615 23.5696C51.2786 23.4294 51.9143 23.3079 52.5314 23.1957C53.3541 23.0648 54.1955 22.9526 55.037 22.8778H55.5886C56.402 22.8217 57.2247 22.7843 58.0474 22.7843C59.3818 22.7847 60.715 22.8658 62.0396 23.0274H62.2453C63.0026 23.1302 63.7505 23.2518 64.4985 23.392C64.9753 23.4855 65.4334 23.5977 65.9195 23.7099C67.8045 24.1665 69.6445 24.7923 71.4169 25.5797L72.0807 25.8789C74.0562 26.7888 75.9354 27.8944 77.6903 29.1792L78.1858 29.5532C78.7016 30.223 79.1732 30.9257 79.5976 31.6568Z" fill="#613A12"/>
</g>
<g opacity="0.26">
<path opacity="0.26" d="M75.6047 55.086C75.9581 54.033 76.0035 52.901 75.7356 51.8231C75.6009 50.6877 75.2247 49.5943 74.6324 48.6163C74.3257 48.1234 73.885 47.7279 73.3618 47.4763C72.8386 47.2246 72.2546 47.1271 71.678 47.1952C70.8047 47.4512 70.0477 48.0032 69.537 48.7566C69.1939 49.1739 68.8991 49.6286 68.6582 50.1122C69.0322 47.6253 70.7244 45.7461 72.7625 45.7461C75.0625 45.7461 76.9417 48.1676 76.9417 51.1593C76.9572 52.5824 76.4854 53.968 75.6047 55.086Z" fill="#231F20"/>
</g>
<g opacity="0.26">
<path opacity="0.26" d="M41.4799 50.6264C41.3474 51.7122 41.5325 52.8131 42.0128 53.7958C42.2554 54.286 42.6203 54.7054 43.0724 55.0133C43.5244 55.3212 44.0482 55.5073 44.5932 55.5535C45.9302 55.6096 47.0614 54.6186 48.0525 53.6836C48.0525 53.6836 48.0525 53.7304 48.0525 53.7584C47.7892 54.5205 47.3093 55.1891 46.6716 55.6823C46.0339 56.1756 45.2661 56.472 44.4623 56.5352C42.1531 56.5352 40.2832 54.1137 40.2832 51.1126C40.2832 48.1115 42.1531 45.6993 44.4623 45.6993C46.7716 45.6993 48.4545 47.8964 48.6228 50.6825C48.6228 50.6358 48.6228 50.5797 48.576 50.5236C48.0525 48.5322 45.7712 46.1294 43.5461 47.055C42.2092 47.6066 41.6015 49.1866 41.4799 50.6264Z" fill="#231F20"/>
</g>
<g opacity="0.2">
<path d="M74.5767 59.7793C75.3253 60.0365 75.9777 60.5159 76.4466 61.1537C76.6716 61.475 76.7977 61.855 76.8093 62.2471C76.8209 62.6392 76.7176 63.026 76.512 63.3601C76.147 63.7985 75.6475 64.1042 75.0909 64.2296C73.9676 64.5525 72.7794 64.5757 71.6443 64.2969C70.5093 64.018 69.467 63.4469 68.6212 62.6402C68.3656 62.4441 68.165 62.1852 68.0389 61.8887C67.9127 61.5922 67.8654 61.2682 67.9013 60.948C68.1444 60.0131 69.7151 59.6578 70.5659 59.4427C71.9061 59.1463 73.3047 59.2636 74.5767 59.7793Z" fill="#EF5823"/>
</g>
<path opacity="0.2" d="M42.9857 59.7794C42.2371 60.0366 41.5847 60.516 41.1158 61.1537C40.8931 61.476 40.7684 61.8557 40.7568 62.2473C40.7451 62.6388 40.8471 63.0253 41.0504 63.3602C41.4167 63.797 41.9157 64.1023 42.4715 64.2297C43.5963 64.5524 44.7859 64.5756 45.9224 64.2968C47.0589 64.018 48.1028 63.447 48.9505 62.6403C49.2044 62.4431 49.4032 62.1838 49.5277 61.8874C49.6522 61.5909 49.6981 61.2674 49.6611 60.9481C49.418 60.0131 47.8567 59.6579 46.9965 59.4428C45.6563 59.1469 44.2578 59.2643 42.9857 59.7794Z" fill="#EF5823"/>
<g opacity="0.11">
<path opacity="0.11" d="M37.5905 29.4784C37.5644 29.5169 37.5329 29.5516 37.497 29.5812C36.8987 30.1048 36.1694 28.6463 35.7767 28.3564C35.199 27.9276 34.5895 27.5432 33.9536 27.2065C32.6202 26.5042 31.1625 26.0691 29.6623 25.9256C28.2052 25.7869 26.7361 26.0008 25.3791 26.5492C24.022 27.0975 22.8167 27.9643 21.865 29.0763L21.6406 29.3662C21.9389 28.6718 22.3391 28.0258 22.828 27.4496C25.9226 23.794 31.8407 23.7098 36.0385 27.2532C36.4032 27.5617 38.0393 28.8146 37.5905 29.4784Z" fill="#613A12"/>
</g>
<g opacity="0.11">
<path opacity="0.11" d="M92.8641 28.0479C92.3292 27.5321 91.7289 27.0889 91.0784 26.7296C89.935 26.1586 88.6848 25.8328 87.408 25.7732C86.1312 25.7137 84.8561 25.9216 83.6644 26.3837C82.5883 26.776 81.5696 27.3105 80.6353 27.9731C79.9621 28.4312 78.9898 29.5625 78.1297 29.6279C76.3814 29.7775 78.8122 27.5617 79.1861 27.2439C83.384 23.6911 89.3021 23.7846 92.406 27.4402C92.565 27.6459 92.7239 27.8516 92.8641 28.0479Z" fill="#613A12"/>
</g>
</g>
<defs>
<clipPath id="clip0">
<rect width="99.9906" height="100" fill="white" transform="translate(8)"/>
</clipPath>
</defs>
</svg>
