<svg width="242" height="170" viewBox="0 0 242 170" fill="none" xmlns="http://www.w3.org/2000/svg">
<g clip-path="url(#clip0)">
<g opacity="0.39">
<g opacity="0.39">
<path opacity="0.39" d="M232.183 145.798C247.813 130.58 244.428 101.708 224.623 81.3097C204.817 60.9111 176.092 56.7106 160.462 71.9276C144.832 87.1446 148.216 116.017 168.022 136.415C187.827 156.814 216.553 161.015 232.183 145.798Z" fill="#F2890D"/>
</g>
</g>
<path d="M4.05091 95.0322C5.17607 86.7847 13.8623 82.3229 22.7286 85.7031C31.5949 89.0832 37.3557 98.9532 36.2306 107.201C35.1054 115.448 27.0042 119.369 18.1379 115.989C9.22665 112.654 2.97075 103.235 4.05091 95.0322Z" fill="#EF9421"/>
<path d="M4.05091 95.0322C5.17607 86.7847 13.8623 82.3229 22.7286 85.7031C31.5949 89.0832 37.3557 98.9532 36.2306 107.201C35.1054 115.448 27.0042 119.369 18.1379 115.989C9.22665 112.654 2.97075 103.235 4.05091 95.0322Z" stroke="#613A12" stroke-width="0.546738" stroke-miterlimit="10" stroke-linecap="round" stroke-linejoin="round"/>
<path d="M31.0788 114.076C36.2828 109.01 35.1498 99.3905 28.548 92.591C21.9463 85.7914 12.3758 84.3866 7.17177 89.4531C1.96773 94.5197 3.10079 104.139 9.70253 110.939C16.3043 117.738 25.8747 119.143 31.0788 114.076Z" fill="#FCB404"/>
<g opacity="0.69">
<path opacity="0.69" d="M29.6342 112.59C34.2145 108.131 33.2219 99.669 27.4172 93.6904C21.6125 87.7118 13.1939 86.4802 8.61362 90.9395C4.03335 95.3987 5.02593 103.86 10.8306 109.839C16.6353 115.817 25.054 117.049 29.6342 112.59Z" fill="#FDCC80"/>
</g>
<path d="M31.0788 114.076C36.2828 109.01 35.1498 99.3905 28.548 92.591C21.9463 85.7914 12.3758 84.3866 7.17177 89.4531C1.96773 94.5197 3.10079 104.139 9.70253 110.939C16.3043 117.738 25.8747 119.143 31.0788 114.076Z" stroke="#613A12" stroke-width="0.546738" stroke-miterlimit="10" stroke-linecap="round" stroke-linejoin="round"/>
<path d="M13.6812 97.3761C12.6461 98.0071 10.9358 97.3761 9.85566 95.979C8.95552 94.7621 8.7755 93.4101 9.36058 92.5988C9.4506 92.4636 9.58562 92.3284 9.76564 92.1932C10.8008 91.5623 12.511 92.1932 13.5912 93.5904C13.8612 93.9058 14.0413 94.2664 14.1763 94.6269C14.6263 95.7987 14.4913 96.8803 13.6812 97.3761Z" fill="#FCB404"/>
<path d="M11.7452 97.5112C11.0701 97.2408 10.35 96.745 9.80995 96.0239C8.90982 94.8071 8.68479 93.41 9.26987 92.5537C9.40489 92.3734 9.53991 92.2382 9.67493 92.1481C10.7101 91.472 12.5103 92.103 13.5905 93.5903C13.8605 93.9057 14.0406 94.2663 14.1756 94.6268C14.6707 95.8437 14.4456 96.9253 13.6805 97.4211C13.1854 97.8267 12.4653 97.8267 11.7452 97.5112ZM11.7002 92.2382C11.0251 91.9678 10.35 91.9678 9.85496 92.2833C9.71994 92.3734 9.58492 92.5086 9.4499 92.6438C8.86481 93.455 9.08985 94.762 9.94497 95.9338C10.9801 97.3309 12.6454 97.9168 13.6355 97.2859C14.3556 96.8352 14.5806 95.7535 14.0856 94.6268C13.9506 94.2663 13.7705 93.9508 13.5005 93.6353C13.0054 93.0044 12.3303 92.5086 11.7002 92.2382Z" fill="#613A12"/>
<path d="M13.4748 97.6852C14.2082 97.0891 13.8885 95.4778 12.7607 94.0862C11.6328 92.6946 10.1239 92.0497 9.39051 92.6458C8.65707 93.2419 8.9768 94.8532 10.1046 96.2448C11.2325 97.6364 12.7414 98.2813 13.4748 97.6852Z" fill="#6D3317"/>
<path d="M12.0149 97.8269C11.2948 97.5565 10.5297 96.9706 9.89961 96.1143C8.77445 94.6721 8.59442 93.0497 9.40454 92.5089C10.2597 91.968 11.8349 92.7342 12.915 94.1764C13.4551 94.8975 13.8152 95.6636 13.9052 96.3397C13.9952 97.0157 13.8152 97.5565 13.4101 97.8269C13.0501 98.0523 12.555 98.0523 12.0149 97.8269ZM10.7997 92.6441C10.3047 92.4638 9.8546 92.4187 9.49455 92.6441C8.72944 93.1398 8.95447 94.6721 9.98962 96.0242C11.0248 97.4213 12.51 98.1424 13.2751 97.6466C13.6352 97.4213 13.8152 96.9256 13.7252 96.2946C13.6352 95.6636 13.3201 94.8975 12.78 94.2215C12.2399 93.5004 11.4748 92.9145 10.7997 92.6441Z" fill="#613A12"/>
<g opacity="0.53">
<path opacity="0.53" d="M11.881 93.8157C11.881 93.9959 11.971 94.1312 12.106 94.2664C11.656 94.1312 11.2059 93.9509 10.8909 93.5903C11.0259 93.9959 11.2959 94.3565 11.656 94.6269C11.2509 94.6269 10.8009 94.4917 10.4408 94.2213C10.5758 94.4016 10.7559 94.5818 10.9359 94.717C10.7559 94.6269 10.5758 94.5818 10.4408 94.5368C10.5758 94.717 10.8009 94.8973 11.0259 94.9874C10.5758 94.8522 10.0808 94.5818 9.7207 94.1762C9.90073 94.717 10.2158 95.2128 10.6208 95.6184C10.4408 95.6184 10.2608 95.5733 10.0808 95.4832C10.1708 95.6635 10.3508 95.7987 10.4858 95.9339C10.3508 95.8888 10.1708 95.8437 10.0357 95.7536C10.0357 96.024 10.1708 96.2944 10.3958 96.5198C10.6208 96.7451 10.8459 96.9254 11.1159 97.1057C11.3409 97.2859 11.611 97.4212 11.836 97.4212C12.106 97.3761 12.1961 97.1507 12.3761 96.9705C12.7361 96.4747 13.3662 96.2944 13.8163 95.8888C14.2214 95.5283 13.4562 94.8973 13.0512 94.672C12.8712 94.6269 11.881 93.9959 11.881 93.8157Z" fill="#472702"/>
</g>
<path d="M28.7577 103.235C27.4075 103.731 25.7422 103.055 24.9771 101.703C24.437 100.756 24.527 99.7649 25.0671 99.0889C25.2922 98.7734 25.6072 98.548 26.0123 98.4128C27.3625 97.9171 29.0277 98.5931 29.7928 99.9452C29.8378 100.035 29.8828 100.08 29.8828 100.17C30.5129 101.387 30.0178 102.739 28.7577 103.235Z" fill="#FCB404"/>
<path d="M26.6426 103.235C25.9225 102.965 25.2474 102.424 24.8423 101.748C24.3022 100.801 24.3472 99.7647 24.9323 99.0436C25.1574 98.7281 25.5174 98.5028 25.9225 98.3225C27.2727 97.8267 29.0279 98.5028 29.838 99.8999C29.883 99.99 29.9281 100.035 29.9731 100.125C30.6031 101.432 30.0631 102.829 28.8029 103.325C28.1278 103.55 27.3627 103.505 26.6426 103.235ZM28.0828 98.5028C27.4077 98.2324 26.6876 98.2324 26.0575 98.4577C25.6974 98.5929 25.3374 98.8182 25.1124 99.1337C24.5723 99.8098 24.5273 100.801 25.0223 101.658C25.7424 102.965 27.4077 103.595 28.7129 103.1C29.9281 102.649 30.4231 101.342 29.838 100.08C29.793 99.99 29.748 99.945 29.748 99.8548C29.343 99.2689 28.7579 98.7732 28.0828 98.5028Z" fill="#613A12"/>
<path d="M27.6424 103.461C29.1074 103.391 30.2501 102.388 30.1949 101.219C30.1397 100.05 28.9074 99.1594 27.4425 99.2288C25.9776 99.2982 24.8348 100.302 24.89 101.47C24.9452 102.639 26.1775 103.53 27.6424 103.461Z" fill="#6D3317"/>
<path d="M26.3735 103.326C25.7884 103.101 25.3384 102.74 25.1133 102.289C24.7983 101.748 24.7983 101.163 25.0683 100.622C25.3384 100.081 25.8334 99.6303 26.5085 99.4049C27.8587 98.9092 29.524 99.3599 30.1091 100.442C30.4241 100.982 30.4241 101.568 30.1541 102.109C29.884 102.65 29.389 103.101 28.7139 103.326C28.0388 103.551 27.3187 103.596 26.6436 103.416C26.5085 103.416 26.4185 103.371 26.3735 103.326ZM28.7589 99.5401C28.0838 99.2697 27.2736 99.2697 26.5535 99.5401C25.9234 99.7655 25.4284 100.171 25.2033 100.712C24.9783 101.208 24.9783 101.748 25.2483 102.244C25.5184 102.74 26.0135 103.101 26.6436 103.281C27.2736 103.461 27.9937 103.416 28.6238 103.191C29.2539 102.965 29.749 102.56 29.974 102.019C30.1991 101.523 30.1991 100.982 29.929 100.487C29.659 100.036 29.2539 99.7204 28.7589 99.5401Z" fill="#613A12"/>
<g opacity="0.53">
<path opacity="0.53" d="M26.0127 99.4941C26.7778 99.8998 27.5879 100.215 28.398 100.441C28.173 100.531 27.948 100.531 27.6779 100.486C27.948 100.711 28.218 100.846 28.5331 100.891C28.308 100.891 28.128 100.891 27.903 100.936C28.398 101.387 29.0731 101.387 29.6132 101.342C29.2982 101.973 28.6681 102.379 27.903 102.424C28.353 102.604 28.8481 102.649 29.2532 102.559C28.8931 103.1 28.173 103.325 27.4079 103.1C27.3179 102.424 27.0478 101.748 26.6428 101.117C26.5078 100.891 26.3277 100.666 26.2377 100.441C26.1477 100.215 26.1027 99.9448 26.1927 99.7646C26.2827 99.7646 26.3727 99.8096 26.5078 99.8096L26.0127 99.4941Z" fill="#472702"/>
</g>
<path d="M28.3539 107.201C28.3089 107.381 28.3089 107.606 28.2639 107.787C28.1739 108.237 28.0389 108.598 27.9038 108.913C27.7238 109.274 27.5438 109.544 27.3188 109.815C27.0937 110.085 26.8237 110.265 26.5536 110.446C26.3736 110.581 26.1486 110.671 25.9236 110.716C24.0333 111.347 21.2429 110.716 18.1824 109.499C15.302 108.372 12.7366 107.066 11.1614 105.263C10.8914 104.947 10.6664 104.677 10.4413 104.316C10.2163 104.001 10.0363 103.64 9.90124 103.28C9.72121 102.829 9.58619 102.378 9.54119 101.883C9.49618 101.477 9.45117 101.026 9.49618 100.531C9.49618 100.35 9.54119 100.125 9.54119 99.9447C9.58619 99.5841 9.67621 99.2236 9.76622 98.9081C10.2163 97.2856 11.1614 96.0237 12.4666 95.2125C12.5566 95.1674 12.6016 95.1224 12.6916 95.0773C13.6818 94.4914 14.852 94.1759 16.1121 94.1309C16.2022 94.1309 16.3372 94.1309 16.4272 94.1309C16.9223 94.1309 17.4173 94.1759 17.9574 94.2661C18.1374 94.3111 18.3175 94.3111 18.4975 94.3562C18.7225 94.4013 18.9926 94.4914 19.2176 94.5365C19.2626 94.5365 19.3076 94.5815 19.3976 94.5815C19.6226 94.6717 19.8927 94.7167 20.1177 94.8069C20.5228 94.9421 20.8828 95.1224 21.2429 95.3026C21.2429 95.3026 21.2879 95.3026 21.2879 95.3477C21.5129 95.4378 21.6929 95.573 21.918 95.7083C22.053 95.7984 22.188 95.8885 22.323 95.9336C22.8631 96.2491 23.3582 96.6547 23.8533 97.0603C23.8983 97.1054 23.9883 97.1504 24.0333 97.1955C24.5734 97.6462 25.0684 98.187 25.5185 98.6828C25.5635 98.7278 25.6085 98.7729 25.6535 98.818C27.4538 101.026 28.5339 103.73 28.4439 106.299C28.3989 106.66 28.3989 106.93 28.3539 107.201Z" fill="#FCB404"/>
<path d="M18.1366 109.545C14.7161 108.238 12.5108 106.886 11.0706 105.263C10.8006 104.948 10.5755 104.632 10.3505 104.317C10.1255 103.956 9.94544 103.596 9.81042 103.235C9.63039 102.784 9.49537 102.289 9.45037 101.838C9.40536 101.387 9.36035 100.937 9.40536 100.486C9.40536 100.306 9.45037 100.08 9.45037 99.9001C9.49537 99.5395 9.58539 99.179 9.6754 98.8635C10.4855 95.889 13.0959 93.9961 16.4264 93.9961C17.1015 93.9961 17.8216 94.0862 18.5417 94.2214C18.8567 94.2665 19.1268 94.3566 19.4418 94.4468C20.1169 94.6721 20.747 94.8975 21.3771 95.2129C21.6021 95.3031 21.8272 95.4383 22.0072 95.5735C22.6823 95.9791 23.3124 96.4298 23.9425 96.9255C26.9129 99.4494 28.6681 103.01 28.5781 106.3C28.5781 106.57 28.5331 106.841 28.4881 107.111C28.4431 107.291 28.4431 107.517 28.3981 107.697C28.3081 108.103 28.1731 108.508 27.993 108.869C27.813 109.229 27.633 109.5 27.408 109.77C27.1829 109.995 26.9129 110.221 26.6429 110.401C26.4628 110.536 26.2378 110.626 26.0128 110.716C24.2125 111.347 21.7371 110.942 18.1366 109.545ZM20.0719 94.8975C19.8469 94.8073 19.6218 94.7172 19.3518 94.6721C19.0368 94.582 18.7667 94.4918 18.4517 94.4468C17.7316 94.3116 17.0565 94.2214 16.3814 94.2214C13.0959 94.2214 10.5755 96.0692 9.76541 98.9987C9.6754 99.3142 9.58539 99.6747 9.54038 100.035C9.49537 100.216 9.49537 100.441 9.49537 100.621C9.45037 101.072 9.49537 101.523 9.54038 101.928C9.63039 102.379 9.72041 102.875 9.90043 103.28C10.0355 103.641 10.2155 104.001 10.4405 104.317C10.6205 104.632 10.8906 104.948 11.1156 105.218C12.5108 106.796 14.7161 108.103 18.0916 109.409C21.6921 110.807 24.1225 111.167 25.7877 110.626C26.0128 110.536 26.2378 110.446 26.4178 110.356C26.6879 110.176 26.9579 109.995 27.1829 109.77C27.408 109.545 27.588 109.229 27.768 108.914C27.948 108.598 28.0381 108.193 28.1281 107.787C28.1731 107.607 28.2181 107.426 28.2181 107.201C28.2631 106.931 28.2631 106.66 28.2631 106.39C28.3531 103.145 26.6429 99.6296 23.7174 97.1509C23.1323 96.6551 22.5023 96.2044 21.8272 95.7988C21.6021 95.6636 21.4221 95.5735 21.1971 95.4383C20.882 95.258 20.477 95.0777 20.0719 94.8975Z" fill="#613A12"/>
<path d="M17.326 99.5842C16.1559 97.3758 16.0208 95.2125 16.0658 94.1309C16.1559 94.1309 16.2909 94.1309 16.3809 94.1309C16.876 94.1309 17.371 94.1759 17.9111 94.2661C17.281 96.0688 17.326 99.5842 17.326 99.5842Z" fill="#613A12"/>
<path d="M17.3268 99.6744C17.2817 99.6744 17.2817 99.6294 17.2817 99.6294C16.1116 97.421 15.9766 95.2127 15.9766 94.131C15.9766 94.0859 16.0216 94.0859 16.0216 94.0859C16.1566 94.0859 16.2466 94.0859 16.3366 94.0859C16.8317 94.0859 17.3718 94.131 17.8668 94.2211C17.9118 94.2211 17.9118 94.2211 17.9568 94.2662C17.9568 94.3113 17.9568 94.3113 17.9568 94.3564C17.3268 96.114 17.3718 99.6294 17.3718 99.6744C17.4168 99.6744 17.4168 99.6744 17.3268 99.6744C17.3718 99.6744 17.3268 99.6744 17.3268 99.6744ZM16.1566 94.2211C16.1566 95.2577 16.2466 97.2407 17.2817 99.3139C17.2817 98.4576 17.3268 95.8436 17.8218 94.3564C17.3718 94.2662 16.8767 94.2662 16.4266 94.2662C16.3366 94.2211 16.2466 94.2211 16.1566 94.2211Z" fill="#613A12"/>
<path d="M24.0331 97.2419C23.763 98.2785 23.0879 100.081 21.5127 101.208C21.5127 101.208 22.4578 98.0982 22.3678 95.98L24.0331 97.2419Z" fill="#613A12"/>
<path d="M21.467 101.252C21.422 101.207 21.377 101.162 21.422 101.117C21.422 101.072 22.3671 97.9619 22.2321 95.9339C22.2321 95.8888 22.2771 95.8437 22.3221 95.8888C22.3671 95.8888 22.4121 95.9339 22.4121 95.9789C22.5021 97.7366 21.872 100.17 21.647 100.982C23.0872 99.8548 23.7173 98.1422 23.9423 97.1958C23.9423 97.1507 23.9873 97.1507 24.0323 97.1507C24.0773 97.1507 24.1224 97.2408 24.0773 97.2408C23.8073 98.2323 23.1322 100.125 21.512 101.252C21.512 101.297 21.512 101.297 21.467 101.252Z" fill="#613A12"/>
<path d="M21.2421 95.3474C20.522 100.575 19.3518 100.936 19.3518 100.936C18.2267 98.5022 18.8567 95.7079 19.2168 94.5361C19.2618 94.5361 19.3068 94.5812 19.3968 94.5812C19.6219 94.6713 19.8919 94.7164 20.1169 94.8065C20.477 94.9868 20.837 95.1671 21.2421 95.3474Z" fill="#613A12"/>
<path d="M19.3514 101.027C19.3064 101.027 19.3064 100.982 19.3064 100.982C18.1362 98.5028 18.8113 95.6635 19.1714 94.5368C19.1714 94.4917 19.2164 94.4917 19.2614 94.4917C19.3064 94.4917 19.3514 94.5368 19.3964 94.5368C20.0265 94.717 20.6566 94.9874 21.2867 95.3029C21.3317 95.3029 21.3317 95.348 21.3317 95.3931C20.6116 100.576 19.4414 101.027 19.3964 101.027H19.3514ZM19.2614 94.6269C18.9463 95.7536 18.3162 98.4577 19.3514 100.801C19.6214 100.621 20.4766 99.6746 21.1066 95.348C20.5216 95.0776 19.9365 94.8072 19.3514 94.6269C19.3514 94.672 19.3064 94.672 19.2614 94.6269Z" fill="#613A12"/>
<path d="M28.3526 107.201C28.3076 107.382 28.3076 107.607 28.2625 107.787C26.5073 107.021 25.7422 105.624 25.7422 105.624C26.5523 106.39 27.6325 106.525 28.4426 106.435C28.3976 106.661 28.3976 106.931 28.3526 107.201Z" fill="#613A12"/>
<path d="M28.2168 107.832C26.4616 107.066 25.6515 105.669 25.6064 105.578C25.6064 105.533 25.6064 105.488 25.6064 105.488C25.6515 105.488 25.6965 105.488 25.6965 105.488C26.5066 106.254 27.5867 106.345 28.3068 106.254C28.3518 106.254 28.3518 106.254 28.3968 106.3C28.3968 106.3 28.4419 106.345 28.4419 106.39C28.4419 106.66 28.3968 106.93 28.3518 107.201C28.3068 107.381 28.3068 107.606 28.2618 107.787C28.3068 107.832 28.2618 107.832 28.2168 107.832ZM26.0115 105.939C26.3716 106.39 27.0467 107.156 28.1718 107.652C28.2168 107.516 28.2168 107.336 28.2618 107.156C28.3068 106.93 28.3068 106.705 28.3068 106.48C27.6317 106.525 26.7766 106.435 26.0115 105.939Z" fill="#613A12"/>
<path d="M27.8582 108.914C27.6782 109.274 27.4982 109.545 27.2731 109.815C26.598 109.229 25.6979 108.238 25.8329 107.201C25.8779 107.156 26.733 108.328 27.8582 108.914Z" fill="#613A12"/>
<path d="M27.2731 109.86C27.2731 109.86 27.2281 109.86 27.2731 109.86C26.643 109.319 25.6529 108.238 25.7879 107.156C25.7879 107.111 25.8329 107.111 25.8329 107.111C25.8779 107.111 25.8779 107.111 25.9229 107.156C25.9229 107.156 26.823 108.283 27.9032 108.869L27.9482 108.914C27.9482 108.959 27.9482 108.959 27.9482 108.959C27.7682 109.319 27.5881 109.59 27.3631 109.86C27.3181 109.86 27.3181 109.86 27.2731 109.86ZM25.9229 107.336C25.8779 108.238 26.598 109.049 27.2731 109.635C27.4531 109.409 27.6331 109.184 27.7682 108.869C26.913 108.463 26.1929 107.697 25.9229 107.336Z" fill="#613A12"/>
<path d="M26.5069 110.401C26.3269 110.536 26.1019 110.626 25.8768 110.671C25.6518 110.266 25.4268 109.635 25.4268 108.914C25.4268 108.959 25.8318 109.86 26.5069 110.401Z" fill="#613A12"/>
<path d="M25.878 110.761C25.833 110.761 25.833 110.716 25.833 110.716C25.6079 110.311 25.3829 109.68 25.3379 108.959C25.3379 108.914 25.3829 108.914 25.3829 108.914C25.4279 108.914 25.4729 108.959 25.4729 108.959C25.4729 108.959 25.878 109.815 26.5531 110.356C26.5981 110.356 26.5981 110.401 26.5981 110.446C26.5981 110.491 26.5981 110.491 26.5531 110.491C26.373 110.626 26.148 110.716 25.923 110.806C25.923 110.761 25.878 110.761 25.878 110.761ZM25.5179 109.274C25.5629 109.77 25.7429 110.221 25.923 110.581C26.103 110.536 26.238 110.446 26.418 110.356C25.968 110.04 25.6979 109.59 25.5179 109.274Z" fill="#613A12"/>
<path d="M12.7787 100.62C12.7787 100.62 11.5185 101.477 9.44824 100.53C9.44824 100.35 9.49325 100.125 9.49325 99.9443C9.53826 99.5837 9.62827 99.2232 9.71828 98.9077C10.4384 99.6739 11.6536 100.756 12.7787 100.62Z" fill="#613A12"/>
<path d="M9.76435 100.756C9.67434 100.711 9.53932 100.666 9.4493 100.621C9.4043 100.621 9.4043 100.576 9.4043 100.531C9.4043 100.351 9.4493 100.125 9.4493 99.9449C9.49431 99.5844 9.58432 99.2238 9.67434 98.9083C9.67434 98.8633 9.71934 98.8633 9.71934 98.8633C9.76435 98.8633 9.76435 98.8633 9.80936 98.9083C10.4394 99.5844 11.6996 100.711 12.8248 100.576C12.8698 100.576 12.9148 100.576 12.9148 100.621C12.9148 100.666 12.9148 100.711 12.9148 100.711C12.8248 100.711 11.6546 101.477 9.76435 100.756ZM9.53932 100.486C10.9345 101.072 11.9247 100.891 12.4197 100.711C11.3846 100.621 10.3494 99.7196 9.76435 99.0886C9.67434 99.4041 9.62933 99.6745 9.58432 99.99C9.53932 100.17 9.53932 100.351 9.53932 100.486Z" fill="#613A12"/>
<path d="M12.2405 101.928C12.0605 103.19 10.5303 103.28 9.85517 103.28C9.67514 102.829 9.54012 102.379 9.49512 101.883C10.8453 102.469 12.2405 101.928 12.2405 101.928Z" fill="#613A12"/>
<path d="M9.85525 103.37C9.81025 103.37 9.81025 103.325 9.81025 103.325C9.63022 102.874 9.4952 102.379 9.4502 101.928C9.4502 101.883 9.4502 101.883 9.4952 101.883C9.4952 101.883 9.54021 101.883 9.58521 101.883C10.8454 102.424 12.2856 101.928 12.2856 101.928C12.3306 101.928 12.3306 101.928 12.3756 101.928C12.4206 101.973 12.4206 101.973 12.4206 102.018C12.1506 103.28 10.5754 103.37 9.85525 103.37C9.90026 103.37 9.85525 103.37 9.85525 103.37ZM9.58521 102.018C9.63022 102.424 9.76524 102.829 9.90026 103.235C10.5304 103.235 11.8805 103.145 12.1056 102.108C11.7455 102.153 10.6654 102.424 9.58521 102.018Z" fill="#613A12"/>
<path d="M12.1948 103.867C11.9248 104.633 11.4297 105.038 11.1146 105.219C10.8446 104.903 10.6196 104.633 10.3945 104.272C11.3847 104.588 12.1948 103.867 12.1948 103.867Z" fill="#613A12"/>
<path d="M11.1147 105.308C11.0697 105.308 11.0697 105.308 11.1147 105.308C10.7997 104.992 10.5746 104.677 10.3496 104.316C10.3496 104.271 10.3496 104.271 10.3496 104.226C10.3496 104.181 10.3946 104.181 10.4396 104.181C11.3398 104.406 12.1499 103.73 12.1499 103.73C12.1949 103.73 12.1949 103.73 12.2399 103.73C12.2849 103.776 12.2849 103.776 12.2849 103.821C12.0148 104.632 11.4748 105.037 11.1597 105.218C11.1597 105.353 11.1147 105.353 11.1147 105.308ZM10.5746 104.452C10.7547 104.677 10.9347 104.947 11.1147 105.173C11.3848 104.992 11.7448 104.677 12.0148 104.136C11.6998 104.316 11.1597 104.542 10.5746 104.452Z" fill="#613A12"/>
<path d="M24.4825 104.632C24.4375 105.038 24.2125 105.398 23.9425 105.578C23.6724 105.759 23.4024 105.759 23.0873 105.669C22.4122 105.398 21.9622 104.542 22.0972 103.731C22.0972 103.64 22.1422 103.55 22.1422 103.46C22.3222 102.829 22.9073 102.514 23.4924 102.739C24.1675 102.919 24.6176 103.821 24.4825 104.632Z" fill="#472702"/>
<path d="M23.0877 105.668C22.4126 105.398 21.9175 104.497 22.0526 103.685C22.0526 103.595 22.0976 103.505 22.0976 103.415C22.3226 102.739 22.9077 102.423 23.4928 102.649C24.1679 102.919 24.6629 103.821 24.5279 104.632C24.4829 105.037 24.2579 105.398 23.9878 105.578C23.7178 105.759 23.4028 105.759 23.0877 105.668ZM23.4928 102.739C22.9527 102.514 22.4126 102.829 22.1876 103.46C22.1426 103.55 22.1426 103.64 22.1426 103.73C22.0526 104.542 22.4576 105.353 23.1327 105.623C23.4028 105.713 23.7178 105.713 23.9878 105.533C24.2579 105.353 24.4379 105.037 24.4829 104.632C24.5729 103.821 24.1229 102.964 23.4928 102.739Z" fill="#472702"/>
<path d="M19.5308 107.065C19.3058 107.516 18.8557 107.877 18.4507 107.696C18.2256 107.606 18.0906 107.426 17.9556 107.201C17.8206 106.93 17.7306 106.66 17.6855 106.344C17.9556 106.434 18.2706 106.479 18.6307 106.479C18.8107 106.615 18.9457 106.75 19.1258 106.84C19.2608 106.93 19.3958 107.02 19.5308 107.065Z" fill="#EF5823"/>
<path d="M18.4519 107.787C18.2269 107.696 18.0468 107.516 17.8668 107.246C17.7318 106.975 17.5968 106.66 17.5518 106.344C17.5518 106.299 17.5518 106.299 17.5518 106.299H17.5968C17.8668 106.389 18.1818 106.435 18.5419 106.435C18.5419 106.435 18.5869 106.435 18.5869 106.48C18.7669 106.615 18.902 106.75 19.082 106.84C19.217 106.93 19.352 107.02 19.487 107.065C19.532 107.065 19.532 107.111 19.532 107.111C19.532 107.156 19.532 107.156 19.532 107.201C19.397 107.606 18.947 107.967 18.4519 107.787ZM17.7768 106.48C17.8218 106.75 17.9118 106.975 18.0468 107.201C18.1368 107.381 18.3169 107.561 18.4969 107.651C18.8569 107.787 19.217 107.471 19.442 107.111C19.307 107.065 19.217 106.975 19.082 106.93C18.947 106.84 18.7669 106.705 18.6319 106.57C18.3169 106.57 18.0468 106.525 17.7768 106.48Z" fill="#613A12"/>
<g opacity="0.43">
<path opacity="0.43" d="M22.9897 104.674C23.1631 104.66 23.2863 104.428 23.2648 104.155C23.2432 103.882 23.0852 103.671 22.9117 103.685C22.7383 103.699 22.6151 103.931 22.6366 104.204C22.6581 104.477 22.8162 104.687 22.9897 104.674Z" fill="white"/>
</g>
<path d="M16.3361 101.477C16.291 101.748 16.201 101.973 16.066 102.153C15.796 102.514 15.3909 102.649 14.9409 102.514C14.2658 102.244 13.8157 101.387 13.9507 100.576C14.0407 99.7648 14.6708 99.3141 15.3459 99.5845C15.976 99.8098 16.4261 100.621 16.3811 101.387C16.3361 101.432 16.3361 101.432 16.3361 101.477Z" fill="#472702"/>
<path d="M14.9412 102.514C14.2661 102.243 13.7711 101.342 13.9061 100.531C13.9961 99.7195 14.6712 99.2238 15.3463 99.4942C15.9764 99.7195 16.4714 100.576 16.3814 101.342C16.3814 101.387 16.3814 101.432 16.3814 101.477C16.3364 101.748 16.2464 101.973 16.1114 102.153C15.8414 102.559 15.3913 102.694 14.9412 102.514ZM15.3463 99.5843C14.7162 99.359 14.0861 99.7646 13.9961 100.576C13.9061 101.387 14.3111 102.198 14.9862 102.469C15.3913 102.649 15.8414 102.514 16.1114 102.153C16.2464 101.973 16.3364 101.748 16.3814 101.522C16.3814 101.477 16.3814 101.432 16.3814 101.387C16.3814 100.621 15.9314 99.8097 15.3463 99.5843Z" fill="#472702"/>
<path d="M17.5509 106.39C16.7408 106.074 16.4258 105.443 16.4258 105.398C16.4258 105.353 16.4258 105.308 16.4708 105.308C16.5158 105.308 16.5608 105.308 16.5608 105.353C16.5608 105.398 16.8308 105.984 17.641 106.254C17.911 106.344 18.226 106.39 18.5411 106.39L18.6761 105.263C18.6761 105.218 18.7211 105.218 18.7661 105.218C18.8111 105.218 18.8561 105.263 18.8561 105.308L18.6761 106.48C18.6761 106.525 18.6311 106.525 18.6311 106.525C18.271 106.525 17.956 106.48 17.641 106.39C17.641 106.435 17.596 106.39 17.5509 106.39Z" fill="#613A12"/>
<path d="M19.6221 107.201C19.5771 107.201 19.5771 107.156 19.5321 107.156C19.2171 107.021 18.902 106.84 18.587 106.525C18.542 106.48 18.542 106.48 18.542 106.435L18.722 105.263C18.722 105.218 18.767 105.218 18.812 105.218C18.857 105.218 18.902 105.263 18.902 105.308L18.767 106.435C19.0821 106.66 19.3521 106.84 19.6221 106.975C20.4323 107.336 20.7923 106.975 20.8373 106.975C20.8823 106.93 20.9273 106.975 20.9723 106.975C21.0173 107.021 21.0173 107.066 20.9723 107.066C20.8823 107.156 20.4323 107.516 19.6221 107.201Z" fill="#613A12"/>
<path d="M20.4752 104.677C20.4302 105.128 19.62 105.759 18.7649 105.443C17.9098 105.128 17.3697 104.001 17.4147 103.505C17.4597 103.01 18.1798 102.965 19.035 103.28C19.8901 103.596 20.5202 104.227 20.4752 104.677Z" fill="#472702"/>
<path d="M18.7662 105.443C17.8661 105.083 17.326 103.911 17.416 103.46C17.461 102.965 18.2261 102.874 19.0812 103.19C19.9364 103.505 20.5664 104.181 20.5214 104.632C20.4314 105.128 19.6663 105.804 18.7662 105.443ZM19.0362 103.28C18.2261 102.965 17.506 103.055 17.461 103.505C17.416 103.956 17.9561 105.083 18.7662 105.353C19.5763 105.669 20.3414 105.038 20.4314 104.632C20.4764 104.226 19.8463 103.596 19.0362 103.28Z" fill="#472702"/>
<g opacity="0.43">
<path opacity="0.43" d="M15.4731 101.791C15.6465 101.777 15.7697 101.545 15.7482 101.272C15.7266 100.999 15.5686 100.789 15.3951 100.802C15.2217 100.816 15.0985 101.048 15.12 101.321C15.1415 101.594 15.2996 101.804 15.4731 101.791Z" fill="white"/>
</g>
<g opacity="0.14">
<path opacity="0.14" d="M18.8562 103.641C18.6312 103.551 18.4061 103.505 18.2261 103.596C18.0011 103.686 18.0011 104.046 18.1811 104.272C18.0461 104.227 17.9111 104.091 17.821 103.911C17.416 103.01 18.7212 103.28 19.1712 103.505C19.3513 103.596 20.1164 104.046 20.0714 104.317C20.0264 104.452 19.7113 104.272 19.6213 104.181C19.3963 103.956 19.1712 103.776 18.8562 103.641Z" fill="white"/>
</g>
<g opacity="0.11">
<path opacity="0.11" d="M19.5313 107.066C19.3062 107.516 18.8562 107.877 18.4511 107.697C18.2261 107.606 18.0911 107.426 17.9561 107.201C18.2261 107.291 18.5411 107.291 18.7212 107.156C18.8562 107.066 18.9912 106.976 19.0812 106.84C19.2612 106.93 19.3963 107.021 19.5313 107.066Z" fill="#472702"/>
</g>
<g opacity="0.11">
<path opacity="0.11" d="M28.3539 107.201C28.3089 107.381 28.3089 107.607 28.2639 107.787C28.1739 108.238 28.0389 108.598 27.9038 108.914C27.7238 109.274 27.5438 109.545 27.3188 109.815C27.0937 110.085 26.8237 110.266 26.5536 110.446C26.3736 110.581 26.1486 110.671 25.9236 110.716C24.0333 111.347 21.2429 110.716 18.1824 109.5C15.302 108.373 12.7366 107.066 11.1614 105.263C10.8914 104.948 10.6664 104.677 10.4413 104.317C10.2163 104.001 10.0363 103.641 9.90124 103.28C9.72121 102.829 9.58619 102.379 9.54119 101.883C9.49618 101.477 9.45117 101.027 9.49618 100.531C9.49618 100.351 9.54119 100.125 9.54119 99.9451C9.58619 99.5845 9.67621 99.224 9.76622 98.9085C10.2163 97.286 11.1614 96.0241 12.4666 95.2129C12.4216 95.3481 12.2866 95.4833 12.1966 95.6185C10.6664 97.286 9.45117 100.486 11.0264 103.235C11.6115 104.272 12.5116 105.173 13.4117 105.939C15.7071 107.832 18.4525 109.094 21.0629 109.5C21.828 109.59 22.5481 109.635 23.2232 109.545C24.7984 109.319 26.0586 108.373 26.7787 107.066C27.5438 105.624 27.4988 103.866 26.9587 102.018C26.6887 101.072 26.2836 100.08 25.7435 99.1789C25.6535 99.0437 25.5635 98.9085 25.5185 98.7733C27.4088 101.027 28.5339 103.776 28.4439 106.39C28.3989 106.66 28.3989 106.931 28.3539 107.201Z" fill="#613A12"/>
</g>
<g opacity="0.16">
<path opacity="0.16" d="M25.9674 99.6292C22.9069 96.88 19.1264 95.0773 15.5258 94.7618C15.2108 94.7167 14.9408 94.7168 14.6707 94.7168C14.4907 94.7168 14.3107 94.7618 14.1306 94.8069C13.6356 94.897 13.1405 94.9872 12.6904 95.1224C12.6904 95.1224 12.6904 95.1224 12.6904 95.0773C13.6806 94.4914 14.8507 94.1759 16.1109 94.1309C16.2009 94.1309 16.336 94.1309 16.426 94.1309C16.921 94.1309 17.4161 94.1759 17.9562 94.2661C18.1362 94.3111 18.3162 94.3111 18.4963 94.3562C18.7213 94.4013 18.9913 94.4914 19.2164 94.5365C19.2614 94.5365 19.3064 94.5815 19.3964 94.5815C19.6214 94.6717 19.8915 94.7167 20.1165 94.8069C20.5216 94.9421 20.8816 95.1224 21.2417 95.3026C21.2417 95.3026 21.2867 95.3026 21.2867 95.3477C21.5117 95.4378 21.6917 95.5731 21.9168 95.7083C22.0518 95.7984 22.1868 95.8885 22.3218 95.9336C22.8619 96.2491 23.357 96.6547 23.852 97.0603C23.8971 97.1054 23.9871 97.1504 24.0321 97.1955C24.5721 97.6462 25.0672 98.187 25.5173 98.6828C25.5623 98.7278 25.6073 98.7729 25.6523 98.818C25.7423 99.1335 25.8773 99.4039 25.9674 99.6292Z" fill="#613A12"/>
</g>
<g opacity="0.26">
<path opacity="0.26" d="M23.9419 105.533C24.122 105.308 24.122 104.993 24.077 104.677C24.077 104.362 24.032 104.001 23.8969 103.686C23.7619 103.37 23.4469 103.055 23.0868 102.965C22.8168 102.92 22.5918 103.01 22.4117 103.145C22.3217 103.235 22.1867 103.325 22.0967 103.415C22.2767 102.784 22.8618 102.469 23.4469 102.694C24.122 102.965 24.572 103.821 24.437 104.632C24.437 105.038 24.212 105.353 23.9419 105.533Z" fill="#231F20"/>
</g>
<g opacity="0.26">
<path opacity="0.26" d="M14.3097 100.576C14.2647 100.846 14.2197 101.162 14.3547 101.477C14.4897 101.793 14.7148 102.108 15.0298 102.243C15.4349 102.424 15.7949 102.288 16.11 102.153C16.11 102.153 16.11 102.153 16.11 102.198C15.8399 102.559 15.4349 102.694 14.9848 102.559C14.3097 102.288 13.8596 101.432 13.9947 100.621C14.0847 99.8097 14.7148 99.359 15.3899 99.6294C16.0199 99.8547 16.47 100.666 16.425 101.432V101.387C16.335 100.801 15.7949 99.8998 15.1198 99.8998C14.6247 99.8097 14.3997 100.17 14.3097 100.576Z" fill="#231F20"/>
</g>
<g opacity="0.43">
<path opacity="0.43" d="M23.492 106.705C23.672 106.886 23.8971 107.066 23.9871 107.291C24.0771 107.516 24.0771 107.787 23.9421 107.877C23.8521 107.967 23.672 107.967 23.492 107.967C22.8169 107.877 22.0968 107.426 21.6918 106.795C21.5567 106.615 21.4667 106.39 21.5567 106.255C21.6468 106.029 22.1418 106.119 22.3669 106.119C22.7269 106.21 23.177 106.435 23.492 106.705Z" fill="#EF5823"/>
</g>
<g opacity="0.43">
<path opacity="0.43" d="M14.4011 103.235C14.176 103.235 13.951 103.28 13.816 103.415C13.681 103.55 13.591 103.776 13.726 104.001C13.816 104.181 13.951 104.271 14.086 104.407C14.7161 104.812 15.4812 104.947 16.0213 104.677C16.1563 104.587 16.2913 104.497 16.2913 104.316C16.2463 104.046 15.7963 103.776 15.5712 103.595C15.2112 103.325 14.7611 103.235 14.4011 103.235Z" fill="#EF5823"/>
</g>
<g opacity="0.11">
<path opacity="0.11" d="M13.951 94.4014C13.726 94.4916 13.591 94.0409 13.4559 93.9057C13.3209 93.7254 13.1409 93.5451 12.9609 93.4099C12.6008 93.0945 12.1958 92.779 11.7907 92.5987C10.9806 92.1931 10.0354 92.1931 9.45036 92.5987C9.40536 92.5987 9.40536 92.6438 9.36035 92.6438C9.45036 92.5086 9.58538 92.3734 9.76541 92.2382C10.8006 91.6072 12.5108 92.2382 13.591 93.6353C13.681 93.7705 14.086 94.2662 13.951 94.4014Z" fill="#613A12"/>
</g>
<g opacity="0.11">
<path opacity="0.11" d="M29.8838 100.125C29.7488 99.9447 29.6138 99.7193 29.4337 99.5841C28.8487 98.9982 28.0385 98.6828 27.3184 98.6828C27.0034 98.6828 26.6883 98.7278 26.3733 98.7729C26.1483 98.818 25.8332 99.0433 25.6082 98.9532C25.1131 98.818 25.8782 98.4574 26.0132 98.4123C27.3634 97.9166 29.0287 98.5926 29.7938 99.9447C29.8388 99.9897 29.8838 100.035 29.8838 100.125Z" fill="#613A12"/>
</g>
<path d="M14.221 30.6744C18.1816 13.8189 36.2292 7.14873 55.0419 16.0272C73.8547 24.9057 87.0416 44.195 86.9515 58.9774C85.7364 73.8049 69.489 86.2438 50.6313 77.3203C31.7736 68.3967 13.0059 45.502 14.221 30.6744Z" fill="#F27C23"/>
<path d="M14.221 30.6745C18.1816 13.8189 36.2292 7.14873 55.0419 16.0272C73.8547 24.9057 87.0416 44.195 86.9515 58.9774C85.7364 73.8049 69.489 86.2438 50.6313 77.3203C31.7736 68.3967 13.0059 45.502 14.221 30.6745Z" stroke="#613A12" stroke-width="0.546738" stroke-miterlimit="10" stroke-linecap="round" stroke-linejoin="round"/>
<path d="M78.5957 74.3219C87.0125 64.1085 80.1434 44.514 63.2531 30.5564C46.3628 16.5989 25.8473 13.5636 17.4304 23.777C9.01362 33.9904 15.8827 53.5849 32.773 67.5424C49.6634 81.5 70.1788 84.5353 78.5957 74.3219Z" fill="#FCB404"/>
<path d="M72.6598 69.4168C79.447 61.1808 73.9145 45.3856 60.3026 34.1371C46.6906 22.8887 30.1538 20.4466 23.3666 28.6826C16.5793 36.9186 22.1118 52.7139 35.7237 63.9623C49.3357 75.2108 65.8725 77.6528 72.6598 69.4168Z" fill="#F8A41B"/>
<path d="M78.5957 74.3219C87.0125 64.1085 80.1434 44.514 63.2531 30.5564C46.3628 16.5989 25.8473 13.5636 17.4304 23.777C9.01362 33.9904 15.8827 53.5849 32.773 67.5424C49.6634 81.5 70.1788 84.5353 78.5957 74.3219Z" stroke="#613A12" stroke-width="0.546738" stroke-miterlimit="10" stroke-linecap="round" stroke-linejoin="round"/>
<path d="M72.6598 69.4168C79.447 61.1808 73.9145 45.3856 60.3026 34.1371C46.6906 22.8887 30.1538 20.4466 23.3666 28.6826C16.5793 36.9186 22.1118 52.7139 35.7237 63.9623C49.3357 75.2108 65.8725 77.6528 72.6598 69.4168Z" stroke="#613A12" stroke-width="0.546738" stroke-miterlimit="10" stroke-linecap="round" stroke-linejoin="round"/>
<g opacity="0.55">
<path opacity="0.55" d="M63.8632 37.3896C66.3386 42.0317 67.5988 46.809 67.2387 51.0905C66.2936 63.0336 53.1967 66.9095 38.0295 59.7436C32.7637 57.2648 27.948 53.7495 23.8975 49.7835C28.3081 58.0761 36.4993 66.0982 46.2207 70.6952C61.3879 77.8611 74.4848 73.9852 75.4299 62.0421C76.105 54.2002 71.4243 44.9161 63.8632 37.3896Z" fill="#F27C23"/>
</g>
<g opacity="0.32">
<path opacity="0.32" d="M25.2022 40.3641C26.0574 29.8181 37.579 26.3929 50.991 32.7024C58.8221 36.398 65.5281 42.6175 69.6237 49.2425C65.8881 41.5358 58.372 33.9644 49.3707 29.7279C36.0038 23.4183 24.4371 26.8435 23.582 37.3896C23.222 41.7612 24.7972 46.6737 27.6776 51.4058C25.8323 47.6201 24.9322 43.8343 25.2022 40.3641Z" fill="#FFDB53"/>
</g>
<path d="M41.8991 60.6448C41.9891 59.6083 42.0791 58.5717 42.1691 57.5351C42.2141 57.2196 42.2141 57.2196 41.8091 57.0394C39.4237 55.9127 37.0834 54.786 34.698 53.6592C34.293 53.479 34.293 53.479 34.293 53.1635C34.338 52.3973 34.428 51.5861 34.473 50.8199C34.518 50.5495 34.518 50.5495 34.8781 50.6847C35.4181 50.9101 35.9132 51.1805 36.4533 51.3608C37.1734 51.6762 37.5784 51.541 37.7135 51.0002C37.8035 50.6847 37.8035 50.3242 37.8485 49.9636C38.1635 46.223 38.4336 42.4823 38.7486 38.7867C38.7936 38.4712 38.7936 38.1106 38.7936 37.7952C38.7936 37.2543 38.3886 36.7135 37.7135 36.353C37.1734 36.0375 36.6333 35.8121 36.0932 35.5417C35.8682 35.4516 35.7782 35.3164 35.7782 35.1361C35.8682 34.3249 35.9132 33.5137 35.9582 32.7024C35.9582 32.4771 36.0932 32.4771 36.3183 32.6123C38.7036 33.739 41.089 34.8657 43.4743 35.9924C43.8794 36.1727 43.8794 36.1727 43.9244 35.8572C44.0144 34.9108 44.1044 33.9643 44.1494 33.0179C44.1494 32.7926 44.2394 32.7475 44.5545 32.8827C45.5896 33.3785 46.6248 33.8742 47.6149 34.3249C47.9299 34.4601 47.975 34.5953 47.975 34.7756C47.8849 35.722 47.8399 36.6684 47.7499 37.66C47.7499 37.8853 47.7949 37.9754 48.065 38.1106C48.605 38.336 49.1451 38.6064 49.6852 38.8768C50.0453 39.0571 50.0453 39.0571 50.0903 38.7867C50.1803 37.8402 50.2253 36.9389 50.3153 35.9924C50.3603 35.6319 50.3603 35.6319 50.8104 35.8572C51.8005 36.3079 52.7456 36.7586 53.7358 37.2093C54.1408 37.3895 54.1408 37.3895 54.1408 37.7501C54.0508 38.7416 54.0058 39.7331 53.9158 40.7246C53.9158 40.9499 54.0058 41.0852 54.2759 41.2204C55.9861 42.2119 57.5613 43.4287 58.8215 44.961C59.4066 45.7272 59.8567 46.4934 60.1267 47.2595C60.7568 48.9721 60.5318 50.3242 59.4966 51.1805C58.7315 51.8114 57.6964 51.9917 56.4362 51.9016C56.0761 51.8565 55.6711 51.8114 55.311 51.8114C55.7611 52.1269 56.2111 52.4424 56.6162 52.8029C57.6063 53.524 58.4615 54.3803 59.1366 55.3268C59.9917 56.5436 60.5318 57.7154 60.6218 58.8421C60.8018 61.0955 59.7217 62.2673 57.5613 62.6279C56.1211 62.8532 54.4109 62.4927 52.6556 61.8617C52.3856 61.7716 52.2506 61.7716 52.2506 61.9969C52.1606 63.1236 52.0705 64.2052 51.9805 65.332C50.7204 64.7461 49.4602 64.1602 48.2 63.5292C48.2 63.4391 48.2 63.349 48.2 63.2137C48.29 62.2673 48.335 61.3209 48.425 60.3744C48.47 60.1491 48.335 60.059 48.065 59.9237C47.5699 59.6984 47.1198 59.4731 46.6248 59.2477C46.0397 58.9773 46.0847 58.9322 46.0397 59.428C45.9497 60.4195 45.8596 61.411 45.7696 62.4025C44.4644 61.8617 43.1593 61.2758 41.8991 60.6448ZM44.6445 51.4509C44.5995 52.0368 44.5545 52.6227 44.5095 53.2086C44.5095 53.5691 44.4194 53.8846 44.4644 54.2451C44.5095 54.6057 44.6895 54.786 45.0945 55.0113C46.0847 55.5521 47.0748 56.0028 48.065 56.4535C48.8751 56.814 49.7302 57.1746 50.5403 57.3999C53.1507 58.0759 54.2309 56.0929 53.1057 53.9747C52.5656 52.9832 51.6655 52.2621 50.6753 51.6312C50.0903 51.2706 49.4602 50.9551 48.8751 50.6397C47.6149 50.0087 46.3547 49.4228 45.0495 48.8369C44.9145 48.7468 44.8245 48.7919 44.8245 48.9271C44.7795 49.7834 44.6895 50.6397 44.6445 51.4509ZM45.3196 43.1132C45.2746 43.8794 45.2296 44.6005 45.1395 45.3667C45.0945 45.592 45.2296 45.7272 45.4996 45.8173C46.1747 46.1328 46.8498 46.4483 47.5249 46.7638C48.605 47.3046 49.6852 47.7553 50.7654 48.1158C52.3406 48.6566 53.3757 48.3862 53.6908 47.3947C54.0058 46.4032 53.4657 45.1413 52.1606 44.0597C51.3504 43.4287 50.4503 42.933 49.5952 42.5273C48.38 41.9415 47.1198 41.3556 45.9047 40.7697C45.6346 40.6345 45.5446 40.6795 45.5446 40.9049C45.4546 41.626 45.4096 42.3471 45.3196 43.1132Z" fill="#FFD802"/>
<path d="M41.8991 60.6448C41.9891 59.6083 42.0791 58.5717 42.1691 57.5351C42.2141 57.2196 42.2141 57.2196 41.8091 57.0394C39.4237 55.9127 37.0834 54.786 34.698 53.6592C34.293 53.479 34.293 53.479 34.293 53.1635C34.338 52.3973 34.428 51.5861 34.473 50.8199C34.518 50.5495 34.518 50.5495 34.8781 50.6847C35.4181 50.9101 35.9132 51.1805 36.4533 51.3608C37.1734 51.6762 37.5784 51.541 37.7135 51.0002C37.8035 50.6847 37.8035 50.3242 37.8485 49.9636C38.1635 46.223 38.4336 42.4823 38.7486 38.7867C38.7936 38.4712 38.7936 38.1106 38.7936 37.7952C38.7936 37.2543 38.3886 36.7135 37.7135 36.353C37.1734 36.0375 36.6333 35.8121 36.0932 35.5417C35.8682 35.4516 35.7782 35.3164 35.7782 35.1361C35.8682 34.3249 35.9132 33.5137 35.9582 32.7024C35.9582 32.4771 36.0932 32.4771 36.3183 32.6123C38.7036 33.739 41.089 34.8657 43.4743 35.9924C43.8794 36.1727 43.8794 36.1727 43.9244 35.8572C44.0144 34.9108 44.1044 33.9643 44.1494 33.0179C44.1494 32.7926 44.2394 32.7475 44.5545 32.8827C45.5896 33.3785 46.6248 33.8742 47.6149 34.3249C47.9299 34.4601 47.975 34.5953 47.975 34.7756C47.8849 35.722 47.8399 36.6684 47.7499 37.66C47.7499 37.8853 47.7949 37.9754 48.065 38.1106C48.605 38.336 49.1451 38.6064 49.6852 38.8768C50.0453 39.0571 50.0453 39.0571 50.0903 38.7867C50.1803 37.8402 50.2253 36.9389 50.3153 35.9924C50.3603 35.6319 50.3603 35.6319 50.8104 35.8572C51.8005 36.3079 52.7456 36.7586 53.7358 37.2093C54.1408 37.3895 54.1408 37.3895 54.1408 37.7501C54.0508 38.7416 54.0058 39.7331 53.9158 40.7246C53.9158 40.9499 54.0058 41.0852 54.2759 41.2204C55.9861 42.2119 57.5613 43.4287 58.8215 44.961C59.4066 45.7272 59.8567 46.4934 60.1267 47.2595C60.7568 48.9721 60.5318 50.3242 59.4966 51.1805C58.7315 51.8114 57.6964 51.9917 56.4362 51.9016C56.0761 51.8565 55.6711 51.8114 55.311 51.8114C55.7611 52.1269 56.2111 52.4424 56.6162 52.8029C57.6063 53.524 58.4615 54.3803 59.1366 55.3268C59.9917 56.5436 60.5318 57.7154 60.6218 58.8421C60.8018 61.0955 59.7217 62.2673 57.5613 62.6279C56.1211 62.8532 54.4109 62.4927 52.6556 61.8617C52.3856 61.7716 52.2506 61.7716 52.2506 61.9969C52.1606 63.1236 52.0705 64.2052 51.9805 65.332C50.7203 64.7461 49.4602 64.1602 48.2 63.5292C48.2 63.4391 48.2 63.349 48.2 63.2137C48.29 62.2673 48.335 61.3209 48.425 60.3744C48.47 60.1491 48.335 60.059 48.065 59.9237C47.5699 59.6984 47.1198 59.4731 46.6248 59.2477C46.0397 58.9773 46.0847 58.9322 46.0397 59.428C45.9497 60.4195 45.8596 61.411 45.7696 62.4025C44.4644 61.8617 43.1593 61.2758 41.8991 60.6448ZM44.6445 51.4509C44.5995 52.0368 44.5545 52.6227 44.5095 53.2086C44.5095 53.5691 44.4194 53.8846 44.4644 54.2451C44.5095 54.6057 44.6895 54.786 45.0945 55.0113C46.0847 55.5521 47.0748 56.0028 48.065 56.4535C48.8751 56.814 49.7302 57.1746 50.5403 57.3999C53.1507 58.0759 54.2309 56.0929 53.1057 53.9747C52.5656 52.9832 51.6655 52.2621 50.6753 51.6312C50.0903 51.2706 49.4602 50.9551 48.8751 50.6397C47.6149 50.0087 46.3547 49.4228 45.0495 48.8369C44.9145 48.7468 44.8245 48.7919 44.8245 48.9271C44.7795 49.7834 44.6895 50.6397 44.6445 51.4509ZM45.3196 43.1132C45.2746 43.8794 45.2296 44.6005 45.1395 45.3667C45.0945 45.592 45.2296 45.7272 45.4996 45.8173C46.1747 46.1328 46.8498 46.4483 47.5249 46.7638C48.605 47.3046 49.6852 47.7553 50.7654 48.1158C52.3406 48.6566 53.3757 48.3862 53.6908 47.3947C54.0058 46.4032 53.4657 45.1413 52.1606 44.0597C51.3504 43.4287 50.4503 42.933 49.5952 42.5273C48.38 41.9415 47.1198 41.3556 45.9047 40.7697C45.6346 40.6345 45.5446 40.6795 45.5446 40.9049C45.4546 41.626 45.4096 42.3471 45.3196 43.1132Z" stroke="#613A12" stroke-width="0.546738" stroke-miterlimit="10" stroke-linecap="round" stroke-linejoin="round"/>
<path d="M154.957 136.044C157.027 127.211 166.433 123.741 176.29 128.383C186.146 133.025 193.032 143.12 192.987 150.827C192.357 158.578 183.851 165.068 173.994 160.426C164.183 155.829 154.371 143.796 154.957 136.044Z" fill="#F27C23"/>
<path d="M154.957 136.044C157.027 127.211 166.433 123.741 176.29 128.383C186.146 133.025 193.032 143.12 192.987 150.827C192.357 158.578 183.851 165.068 173.994 160.426C164.183 155.829 154.371 143.796 154.957 136.044Z" stroke="#613A12" stroke-width="0.546738" stroke-miterlimit="10" stroke-linecap="round" stroke-linejoin="round"/>
<path d="M188.666 158.894C193.064 153.557 189.465 143.31 180.627 136.006C171.789 128.703 161.058 127.109 156.66 132.446C152.262 137.783 155.861 148.03 164.699 155.334C173.537 162.637 184.268 164.231 188.666 158.894Z" fill="#FCB404"/>
<path d="M185.542 156.313C189.086 152.013 186.193 143.762 179.081 137.884C171.968 132.006 163.329 130.728 159.785 135.028C156.241 139.328 159.134 147.579 166.247 153.457C173.36 159.335 181.999 160.613 185.542 156.313Z" fill="#F8A41B"/>
<path d="M188.666 158.894C193.064 153.557 189.465 143.31 180.627 136.006C171.789 128.703 161.058 127.109 156.66 132.446C152.262 137.783 155.861 148.03 164.699 155.334C173.537 162.637 184.268 164.231 188.666 158.894Z" stroke="#613A12" stroke-width="0.546738" stroke-miterlimit="10" stroke-linecap="round" stroke-linejoin="round"/>
<path d="M185.542 156.313C189.086 152.013 186.193 143.762 179.081 137.884C171.968 132.006 163.329 130.728 159.785 135.028C156.241 139.328 159.134 147.579 166.247 153.457C173.36 159.335 181.999 160.613 185.542 156.313Z" stroke="#613A12" stroke-width="0.546738" stroke-miterlimit="10" stroke-linecap="round" stroke-linejoin="round"/>
<g opacity="0.55">
<path opacity="0.55" d="M180.926 139.56C182.231 141.994 182.861 144.473 182.681 146.726C182.186 152.99 175.345 155.019 167.424 151.233C164.679 149.926 162.158 148.123 160.043 146.005C162.338 150.331 166.659 154.523 171.7 156.956C179.621 160.697 186.462 158.669 186.957 152.45C187.317 148.348 184.887 143.481 180.926 139.56Z" fill="#F27C23"/>
</g>
<g opacity="0.32">
<path opacity="0.32" d="M160.719 141.092C161.169 135.594 167.2 133.791 174.221 137.081C178.316 139.019 181.827 142.264 183.942 145.734C182.007 141.723 178.046 137.757 173.366 135.549C166.345 132.259 160.314 134.017 159.864 139.56C159.684 141.858 160.494 144.427 161.979 146.906C161.034 144.923 160.584 142.94 160.719 141.092Z" fill="#FFDB53"/>
</g>
<path d="M169.45 151.728C169.495 151.187 169.54 150.646 169.585 150.106C169.585 149.97 169.585 149.97 169.405 149.835C168.145 149.249 166.93 148.663 165.669 148.078C165.444 147.987 165.444 147.987 165.489 147.807C165.534 147.402 165.534 146.996 165.579 146.59C165.579 146.455 165.624 146.455 165.804 146.545C166.074 146.68 166.344 146.816 166.615 146.906C167.02 147.041 167.2 146.996 167.245 146.726C167.29 146.545 167.29 146.365 167.29 146.185C167.47 144.247 167.605 142.264 167.74 140.326C167.74 140.146 167.74 139.965 167.74 139.785C167.74 139.515 167.515 139.244 167.2 139.019C166.93 138.884 166.614 138.703 166.344 138.613C166.209 138.568 166.164 138.478 166.164 138.388C166.209 137.982 166.254 137.532 166.254 137.126C166.254 137.036 166.299 137.036 166.434 137.081C167.695 137.667 168.91 138.253 170.17 138.839C170.395 138.929 170.395 138.929 170.395 138.793C170.44 138.298 170.485 137.802 170.53 137.306C170.53 137.171 170.575 137.171 170.755 137.261C171.295 137.532 171.835 137.757 172.375 138.027C172.51 138.117 172.555 138.163 172.555 138.253C172.51 138.748 172.465 139.244 172.42 139.74C172.42 139.875 172.465 139.92 172.6 139.965C172.87 140.1 173.14 140.236 173.455 140.371C173.636 140.461 173.636 140.461 173.681 140.326C173.726 139.83 173.771 139.334 173.816 138.884C173.816 138.703 173.816 138.703 174.086 138.793C174.581 139.019 175.121 139.289 175.616 139.515C175.841 139.605 175.841 139.605 175.841 139.785C175.796 140.281 175.751 140.822 175.706 141.317C175.706 141.453 175.751 141.498 175.886 141.588C176.786 142.083 177.596 142.714 178.271 143.571C178.586 143.976 178.811 144.382 178.946 144.743C179.261 145.644 179.171 146.32 178.631 146.816C178.226 147.131 177.686 147.266 177.011 147.176C176.831 147.176 176.606 147.131 176.426 147.131C176.651 147.311 176.876 147.492 177.101 147.627C177.596 148.033 178.046 148.438 178.406 148.934C178.856 149.565 179.126 150.196 179.171 150.782C179.261 151.953 178.676 152.584 177.596 152.765C176.831 152.9 175.931 152.72 175.031 152.359C174.896 152.314 174.806 152.314 174.806 152.449C174.761 153.035 174.716 153.621 174.671 154.162C173.996 153.846 173.365 153.531 172.69 153.215C172.69 153.17 172.69 153.125 172.69 153.08C172.735 152.584 172.78 152.089 172.825 151.593C172.825 151.458 172.78 151.413 172.645 151.368C172.375 151.277 172.15 151.142 171.88 151.007C171.565 150.872 171.61 150.872 171.565 151.097C171.52 151.638 171.475 152.134 171.43 152.675C170.8 152.359 170.125 152.044 169.45 151.728ZM170.89 146.906C170.89 147.221 170.845 147.537 170.845 147.807C170.845 147.987 170.8 148.168 170.845 148.348C170.89 148.528 170.98 148.663 171.16 148.754C171.7 149.024 172.195 149.294 172.735 149.52C173.185 149.7 173.591 149.88 174.041 150.016C175.436 150.376 175.976 149.339 175.391 148.213C175.121 147.672 174.626 147.311 174.131 146.996C173.816 146.816 173.5 146.635 173.185 146.5C172.51 146.14 171.835 145.869 171.205 145.554C171.115 145.509 171.07 145.509 171.07 145.599C170.935 146.049 170.935 146.5 170.89 146.906ZM171.25 142.534C171.205 142.94 171.205 143.3 171.16 143.706C171.16 143.841 171.205 143.886 171.34 143.931C171.7 144.112 172.06 144.247 172.375 144.427C172.96 144.697 173.5 144.923 174.086 145.148C174.896 145.419 175.481 145.283 175.616 144.743C175.751 144.247 175.526 143.571 174.806 143.03C174.401 142.669 173.906 142.444 173.455 142.219C172.825 141.903 172.15 141.588 171.52 141.317C171.385 141.227 171.34 141.272 171.34 141.362C171.295 141.768 171.295 142.174 171.25 142.534Z" fill="#FFD802"/>
<path d="M169.45 151.728C169.495 151.187 169.54 150.646 169.585 150.106C169.585 149.97 169.585 149.97 169.405 149.835C168.145 149.249 166.93 148.663 165.669 148.078C165.444 147.987 165.444 147.987 165.489 147.807C165.534 147.402 165.534 146.996 165.579 146.59C165.579 146.455 165.624 146.455 165.804 146.545C166.074 146.68 166.344 146.816 166.615 146.906C167.02 147.041 167.2 146.996 167.245 146.726C167.29 146.545 167.29 146.365 167.29 146.185C167.47 144.247 167.605 142.264 167.74 140.326C167.74 140.146 167.74 139.965 167.74 139.785C167.74 139.515 167.515 139.244 167.2 139.019C166.93 138.884 166.614 138.703 166.344 138.613C166.209 138.568 166.164 138.478 166.164 138.388C166.209 137.982 166.254 137.532 166.254 137.126C166.254 137.036 166.299 137.036 166.434 137.081C167.695 137.667 168.91 138.253 170.17 138.839C170.395 138.929 170.395 138.929 170.395 138.793C170.44 138.298 170.485 137.802 170.53 137.306C170.53 137.171 170.575 137.171 170.755 137.261C171.295 137.532 171.835 137.757 172.375 138.027C172.51 138.117 172.555 138.163 172.555 138.253C172.51 138.748 172.465 139.244 172.42 139.74C172.42 139.875 172.465 139.92 172.6 139.965C172.87 140.1 173.14 140.236 173.455 140.371C173.636 140.461 173.636 140.461 173.681 140.326C173.726 139.83 173.771 139.334 173.816 138.884C173.816 138.703 173.816 138.703 174.086 138.793C174.581 139.019 175.121 139.289 175.616 139.515C175.841 139.605 175.841 139.605 175.841 139.785C175.796 140.281 175.751 140.822 175.706 141.317C175.706 141.453 175.751 141.498 175.886 141.588C176.786 142.083 177.596 142.714 178.271 143.571C178.586 143.976 178.811 144.382 178.946 144.743C179.261 145.644 179.171 146.32 178.631 146.816C178.226 147.131 177.686 147.266 177.011 147.176C176.831 147.176 176.606 147.131 176.426 147.131C176.651 147.311 176.876 147.492 177.101 147.627C177.596 148.033 178.046 148.438 178.406 148.934C178.856 149.565 179.126 150.196 179.171 150.782C179.261 151.953 178.676 152.584 177.596 152.765C176.831 152.9 175.931 152.72 175.031 152.359C174.896 152.314 174.806 152.314 174.806 152.449C174.761 153.035 174.716 153.621 174.671 154.162C173.996 153.846 173.365 153.531 172.69 153.215C172.69 153.17 172.69 153.125 172.69 153.08C172.735 152.584 172.78 152.089 172.825 151.593C172.825 151.458 172.78 151.413 172.645 151.368C172.375 151.277 172.15 151.142 171.88 151.007C171.565 150.872 171.61 150.872 171.565 151.097C171.52 151.638 171.475 152.134 171.43 152.675C170.8 152.359 170.125 152.044 169.45 151.728ZM170.89 146.906C170.89 147.221 170.845 147.537 170.845 147.807C170.845 147.987 170.8 148.168 170.845 148.348C170.89 148.528 170.98 148.663 171.16 148.754C171.7 149.024 172.195 149.294 172.735 149.52C173.185 149.7 173.591 149.88 174.041 150.016C175.436 150.376 175.976 149.339 175.391 148.213C175.121 147.672 174.626 147.311 174.131 146.996C173.816 146.816 173.5 146.635 173.185 146.5C172.51 146.14 171.835 145.869 171.205 145.554C171.115 145.509 171.07 145.509 171.07 145.599C170.935 146.049 170.935 146.5 170.89 146.906ZM171.25 142.534C171.205 142.94 171.205 143.3 171.16 143.706C171.16 143.841 171.205 143.886 171.34 143.931C171.7 144.112 172.06 144.247 172.375 144.427C172.96 144.697 173.5 144.923 174.086 145.148C174.896 145.419 175.481 145.283 175.616 144.743C175.751 144.247 175.526 143.571 174.806 143.03C174.401 142.669 173.906 142.444 173.455 142.219C172.825 141.903 172.15 141.588 171.52 141.317C171.385 141.227 171.34 141.272 171.34 141.362C171.295 141.768 171.295 142.174 171.25 142.534Z" stroke="#613A12" stroke-width="0.546738" stroke-miterlimit="10" stroke-linecap="round" stroke-linejoin="round"/>
<path d="M157.208 64.6109C158.604 45.4569 177.596 39.4628 196.634 47.4849C215.672 55.5071 230.659 74.0302 230.074 88.7676C229.489 103.505 215.492 116.665 196.454 108.643C177.416 100.621 156.623 79.3934 157.208 64.6109Z" fill="#776EB0" stroke="#4B2E91" stroke-width="0.546738" stroke-miterlimit="10"/>
<path d="M223.036 104.278C230.961 93.8026 223.333 74.6481 205.996 61.4956C188.66 48.3431 168.181 46.1731 160.255 56.6488C152.329 67.1245 159.958 86.2789 177.295 99.4314C194.631 112.584 215.11 114.754 223.036 104.278Z" fill="#A379B5" stroke="#4B2E91" stroke-width="0.546738" stroke-miterlimit="10"/>
<path d="M217.116 99.7873C223.555 91.2758 217.372 75.7242 203.305 65.0519C189.237 54.3796 172.613 52.6279 166.174 61.1394C159.734 69.6509 165.917 85.2024 179.985 95.8747C194.052 106.547 210.676 108.299 217.116 99.7873Z" fill="#6B6097" stroke="#4B2E91" stroke-width="0.546738" stroke-miterlimit="10"/>
<g opacity="0.44">
<path opacity="0.44" d="M206.985 68.1265C209.64 72.6784 211.081 77.3655 210.946 81.647C210.496 93.6352 197.579 98.0519 182.142 91.517C176.786 89.2636 171.79 85.9736 167.649 82.1427C172.375 90.2551 180.926 97.9167 190.828 102.108C206.265 108.643 219.182 104.226 219.632 92.2381C219.902 84.4412 214.816 75.3374 206.985 68.1265Z" fill="#466398"/>
</g>
<path d="M168.459 72.7232C168.864 62.1322 180.251 58.2563 193.888 64.025C201.854 67.4052 208.83 73.3091 213.196 79.7539C209.145 72.2275 201.314 64.9715 192.133 61.0956C178.496 55.3268 167.109 59.2478 166.704 69.7938C166.524 74.1654 168.279 79.0328 171.385 83.6298C169.404 79.9342 168.324 76.1935 168.459 72.7232Z" fill="#8585AD"/>
<path d="M192.178 67.856L191.773 77.14L181.781 76.4189L192.178 67.856Z" fill="#8BBCCD"/>
<path d="M191.772 77.14L191.457 85.2524L181.78 76.4189L191.772 77.14Z" fill="#6B95B8"/>
<path d="M191.413 86.875L191.188 93.1395L181.736 78.1768L191.413 86.875Z" fill="#8BBCCD"/>
<path d="M192.178 67.856L191.773 77.1401L201.54 84.7566L192.178 67.856Z" fill="#45AECB"/>
<path d="M191.773 77.1401L191.458 85.2524L201.539 84.7567L191.773 77.1401Z" fill="#257B9A"/>
<path d="M191.414 86.8747L191.188 93.1392L201.45 86.5142L191.414 86.8747Z" fill="#45AECB"/>
<path d="M192.178 67.856L191.773 77.14L181.781 76.4189L192.178 67.856Z" stroke="#4B2E91" stroke-width="0.546738" stroke-miterlimit="10" stroke-linecap="round" stroke-linejoin="round"/>
<path d="M191.772 77.14L191.457 85.2524L181.78 76.4189L191.772 77.14Z" stroke="#4B2E91" stroke-width="0.546738" stroke-miterlimit="10" stroke-linecap="round" stroke-linejoin="round"/>
<path d="M191.413 86.875L191.188 93.1395L181.736 78.1768L191.413 86.875Z" stroke="#4B2E91" stroke-width="0.546738" stroke-miterlimit="10" stroke-linecap="round" stroke-linejoin="round"/>
<path d="M192.178 67.856L191.773 77.1401L201.54 84.7566L192.178 67.856Z" stroke="#4B2E91" stroke-width="0.546738" stroke-miterlimit="10" stroke-linecap="round" stroke-linejoin="round"/>
<path d="M191.773 77.1401L191.458 85.2524L201.539 84.7567L191.773 77.1401Z" stroke="#4B2E91" stroke-width="0.546738" stroke-miterlimit="10" stroke-linecap="round" stroke-linejoin="round"/>
<path d="M191.414 86.8747L191.188 93.1392L201.45 86.5142L191.414 86.8747Z" stroke="#4B2E91" stroke-width="0.546738" stroke-miterlimit="10" stroke-linecap="round" stroke-linejoin="round"/>
<path d="M51.6203 120.992C52.4304 109.815 63.502 106.299 74.6186 110.986C85.7352 115.674 94.4665 126.49 94.1514 135.098C93.8364 143.706 85.6452 151.368 74.5286 146.681C63.412 141.993 51.3052 129.6 51.6203 120.992Z" fill="#776EB0" stroke="#4B2E91" stroke-width="0.546738" stroke-miterlimit="10"/>
<path d="M89.9996 144.127C94.6229 138.016 90.1794 126.848 80.0748 119.182C69.9701 111.516 58.0307 110.255 53.4074 116.366C48.7841 122.477 53.2276 133.645 63.3322 141.311C73.4369 148.977 85.3763 150.238 89.9996 144.127Z" fill="#A379B5" stroke="#4B2E91" stroke-width="0.546738" stroke-miterlimit="10"/>
<path d="M86.5557 141.514C90.3084 136.554 86.7011 127.488 78.4985 121.265C70.2959 115.042 60.6042 114.018 56.8515 118.978C53.0988 123.939 56.7062 133.004 64.9088 139.227C73.1114 145.45 82.803 146.474 86.5557 141.514Z" fill="#6B6097" stroke="#4B2E91" stroke-width="0.546738" stroke-miterlimit="10"/>
<g opacity="0.44">
<path opacity="0.44" d="M80.6507 123.02C82.1809 125.679 83.036 128.428 82.946 130.907C82.6759 137.893 75.1599 140.462 66.1136 136.676C62.9631 135.369 60.0827 133.431 57.6523 131.222C60.3977 135.955 65.3935 140.416 71.1993 142.85C80.2006 146.636 87.7617 144.067 88.0317 137.081C88.2117 132.529 85.2413 127.256 80.6507 123.02Z" fill="#466398"/>
</g>
<path d="M58.1912 125.679C58.4162 119.505 65.0772 117.251 73.0433 120.586C77.679 122.569 81.7746 125.994 84.295 129.78C81.9546 125.363 77.364 121.172 72.0082 118.919C64.042 115.539 57.3811 117.837 57.156 124.011C57.066 126.58 58.0562 129.42 59.8564 132.079C58.7313 129.915 58.1012 127.707 58.1912 125.679Z" fill="#8585AD"/>
<path d="M72.0064 122.839L71.7814 128.293L65.9756 127.842L72.0064 122.839Z" fill="#8BBCCD"/>
<path d="M71.7814 128.292L71.6014 133.025L65.9756 127.842L71.7814 128.292Z" fill="#6B95B8"/>
<path d="M71.6025 133.971L71.4224 137.622L65.9316 128.924L71.6025 133.971Z" fill="#8BBCCD"/>
<path d="M72.0082 122.839L71.7832 128.293L77.499 132.709L72.0082 122.839Z" fill="#45AECB"/>
<path d="M71.7826 128.292L71.6025 133.025L77.4984 132.709L71.7826 128.292Z" fill="#257B9A"/>
<path d="M71.6029 133.971L71.4229 137.622L77.4537 133.746L71.6029 133.971Z" fill="#45AECB"/>
<path d="M72.0064 122.839L71.7814 128.293L65.9756 127.842L72.0064 122.839Z" stroke="#4B2E91" stroke-width="0.546738" stroke-miterlimit="10" stroke-linecap="round" stroke-linejoin="round"/>
<path d="M71.7814 128.292L71.6014 133.025L65.9756 127.842L71.7814 128.292Z" stroke="#4B2E91" stroke-width="0.546738" stroke-miterlimit="10" stroke-linecap="round" stroke-linejoin="round"/>
<path d="M71.6025 133.971L71.4224 137.622L65.9316 128.924L71.6025 133.971Z" stroke="#4B2E91" stroke-width="0.546738" stroke-miterlimit="10" stroke-linecap="round" stroke-linejoin="round"/>
<path d="M72.0082 122.839L71.7832 128.293L77.499 132.709L72.0082 122.839Z" stroke="#4B2E91" stroke-width="0.546738" stroke-miterlimit="10" stroke-linecap="round" stroke-linejoin="round"/>
<path d="M71.7826 128.292L71.6025 133.025L77.4984 132.709L71.7826 128.292Z" stroke="#4B2E91" stroke-width="0.546738" stroke-miterlimit="10" stroke-linecap="round" stroke-linejoin="round"/>
<path d="M71.6029 133.971L71.4229 137.622L77.4537 133.746L71.6029 133.971Z" stroke="#4B2E91" stroke-width="0.546738" stroke-miterlimit="10" stroke-linecap="round" stroke-linejoin="round"/>
<path d="M79.7973 72.2725C83.2178 47.0793 109.772 33.4235 136.911 43.6991C164.049 53.9747 181.602 84.2156 178.137 109.454C174.716 134.647 149.917 146.771 122.734 136.495C95.5496 126.219 76.3768 97.4658 79.7973 72.2725Z" fill="#EF9421"/>
<path d="M79.7973 72.2725C83.2178 47.0793 109.772 33.4235 136.911 43.6991C164.049 53.9747 181.602 84.2156 178.137 109.454C174.716 134.647 149.917 146.771 122.734 136.495C95.5496 126.219 76.3768 97.4658 79.7973 72.2725Z" stroke="#613A12" stroke-width="0.546738" stroke-miterlimit="10" stroke-linecap="round" stroke-linejoin="round"/>
<path d="M162.482 130.545C178.415 115.033 174.967 85.603 154.78 64.8118C134.594 44.0205 105.313 39.7409 89.3803 55.2529C73.4474 70.7649 76.8956 100.194 97.082 120.986C117.268 141.777 146.549 146.057 162.482 130.545Z" fill="#FCB404"/>
<g opacity="0.69">
<path opacity="0.69" d="M158.057 125.988C172.066 112.35 169.038 86.4796 151.294 68.2047C133.551 49.9298 107.812 46.1709 93.8034 59.809C79.7953 73.4471 82.8232 99.3177 100.566 117.593C118.31 135.867 144.049 139.626 158.057 125.988Z" fill="#FDCC80"/>
</g>
<path d="M162.482 130.545C178.415 115.033 174.967 85.603 154.78 64.8118C134.594 44.0205 105.313 39.7409 89.3803 55.2529C73.4474 70.7649 76.8956 100.194 97.082 120.986C117.268 141.777 146.549 146.057 162.482 130.545Z" stroke="#613A12" stroke-width="0.546738" stroke-miterlimit="10" stroke-linecap="round" stroke-linejoin="round"/>
<path d="M109.231 79.5739C106.081 81.5569 100.905 79.619 97.5747 75.2924C94.7843 71.6419 94.2442 67.4055 95.9995 64.9718C96.3145 64.5211 96.7646 64.1155 97.2596 63.8C100.41 61.817 105.586 63.7549 108.916 68.0815C109.681 69.1181 110.267 70.1546 110.717 71.2363C112.112 74.6615 111.617 78.0416 109.231 79.5739Z" fill="#FCB404"/>
<path d="M103.29 79.9793C101.175 79.1681 99.0146 77.5907 97.3943 75.3823C94.6039 71.6867 93.9738 67.3601 95.8191 64.7912C96.1792 64.2955 96.5842 63.8899 97.1243 63.5744C100.365 61.5463 105.721 63.4843 109.096 67.9911C109.861 69.0277 110.491 70.1093 110.941 71.1909C112.427 74.8866 111.796 78.2667 109.411 79.799C107.746 80.8356 105.541 80.8356 103.29 79.9793ZM103.11 63.7997C101.04 62.9885 98.9696 62.9885 97.4393 63.98C96.9443 64.2955 96.5392 64.656 96.2242 65.1067C94.4689 67.5404 95.099 71.6416 97.7544 75.1119C100.95 79.3483 106.036 81.2412 109.051 79.3033C111.301 77.8611 111.886 74.6612 110.491 71.1909C110.086 70.1544 109.456 69.1178 108.736 68.1263C107.161 66.0982 105.135 64.5659 103.11 63.7997Z" fill="#613A12"/>
<path d="M108.555 80.4578C110.813 78.6226 109.85 73.6878 106.404 69.4358C102.958 65.1837 98.3334 63.2245 96.0752 65.0598C93.817 66.895 94.78 71.8298 98.2262 76.0818C101.672 80.3339 106.297 82.2931 108.555 80.4578Z" fill="#6D3317"/>
<path d="M104.101 80.8808C101.94 80.0696 99.555 78.2218 97.6648 75.698C94.2893 71.2362 93.6142 66.2787 96.1796 64.6111C98.7449 62.9887 103.606 65.2872 106.981 69.794C108.601 71.9573 109.682 74.2558 109.952 76.374C110.267 78.4922 109.727 80.0696 108.466 80.8808C107.296 81.6019 105.766 81.5569 104.101 80.8808ZM100.455 65.0618C98.925 64.4759 97.5297 64.4309 96.4946 65.0618C94.1093 66.5491 94.7844 71.2362 98.0248 75.4726C101.22 79.7091 105.766 81.9174 108.151 80.4301C109.276 79.7091 109.772 78.2218 109.501 76.2839C109.231 74.3008 108.196 72.0925 106.666 70.0193C104.776 67.6307 102.48 65.828 100.455 65.0618Z" fill="#613A12"/>
<g opacity="0.53">
<path opacity="0.53" d="M103.74 68.6223C103.74 69.1181 104.01 69.6589 104.415 70.0194C103.065 69.6138 101.625 69.1181 100.68 67.9463C101.13 69.1181 101.94 70.2448 102.975 71.1011C101.76 71.1461 100.41 70.6955 99.2397 69.8392C99.6897 70.4251 100.185 70.9208 100.77 71.4166C100.23 71.1912 99.7347 71.0109 99.1947 70.9208C99.6897 71.5067 100.275 72.0025 100.95 72.363C99.5097 71.9574 98.0695 71.056 96.9443 69.8842C97.5294 71.4616 98.5196 72.994 99.7347 74.3009C99.1947 74.3009 98.6546 74.2108 98.1145 73.9404C98.4296 74.4812 98.8796 74.9319 99.4197 75.2474C98.9696 75.0671 98.5196 74.9319 98.0695 74.7516C97.9795 75.5629 98.4746 76.4642 99.1046 77.1403C99.7347 77.8163 100.545 78.3571 101.31 78.8979C102.03 79.3937 102.84 79.8894 103.56 79.7993C104.325 79.7092 104.73 78.9881 105.181 78.4472C106.351 76.96 108.241 76.329 109.636 75.1122C110.896 73.9855 108.601 72.1377 107.341 71.3715C106.801 71.0109 103.74 69.2082 103.74 68.6223Z" fill="#472702"/>
</g>
<path d="M155.273 97.3759C151.177 98.9082 146.002 96.8351 143.661 92.7789C142.041 89.9396 142.266 86.8749 143.886 84.7567C144.606 83.8554 145.597 83.0892 146.857 82.6385C150.952 81.1062 156.128 83.1793 158.468 87.2806C158.603 87.5059 158.693 87.7312 158.828 87.9566C160.629 91.7874 159.143 95.9337 155.273 97.3759Z" fill="#FCB404"/>
<path d="M148.928 97.4661C146.723 96.6098 144.697 94.9873 143.482 92.8691C141.862 90.0298 141.952 86.8299 143.707 84.5765C144.472 83.63 145.508 82.8639 146.723 82.4132C150.908 80.8358 156.264 82.9991 158.649 87.1904C158.784 87.4158 158.874 87.6411 159.009 87.8665C160.9 91.8776 159.28 96.2041 155.364 97.6463C153.384 98.4125 151.043 98.2773 148.928 97.4661ZM153.204 82.9991C151.178 82.2329 148.973 82.0977 147.038 82.8639C145.868 83.3146 144.877 84.0356 144.157 84.937C142.492 87.0552 142.402 90.0298 143.932 92.6888C146.183 96.6098 151.223 98.6378 155.184 97.1506C158.874 95.7535 160.405 91.7424 158.649 87.9566C158.559 87.7313 158.424 87.551 158.334 87.3256C157.119 85.2976 155.274 83.8103 153.204 82.9991Z" fill="#613A12"/>
<path d="M151.98 98.1356C156.449 97.9238 159.936 94.8699 159.768 91.3145C159.6 87.759 155.841 85.0484 151.372 85.2602C146.902 85.4719 143.415 88.5258 143.583 92.0812C143.751 95.6367 147.511 98.3473 151.98 98.1356Z" fill="#6D3317"/>
<path d="M147.937 97.7376C146.227 97.0616 144.832 95.9348 144.021 94.5377C143.076 92.9153 143.031 91.0675 143.841 89.3999C144.652 87.7324 146.182 86.4254 148.207 85.6592C152.393 84.0819 157.343 85.524 159.279 88.8591C160.224 90.4816 160.269 92.3294 159.459 93.9969C158.649 95.6644 157.118 96.9714 155.093 97.7376C153.068 98.5037 150.817 98.5939 148.747 98.008C148.477 97.9178 148.207 97.8277 147.937 97.7376ZM155.273 86.1099C153.203 85.3438 150.727 85.2536 148.477 86.1099C146.542 86.831 145.057 88.0929 144.291 89.6703C143.571 91.2477 143.616 92.9153 144.426 94.3574C145.237 95.7996 146.812 96.9714 148.747 97.5122C150.727 98.0981 152.888 98.008 154.823 97.2869C156.758 96.5658 158.243 95.3039 159.009 93.7265C159.729 92.1491 159.684 90.4816 158.874 89.0394C158.108 87.6873 156.803 86.6958 155.273 86.1099Z" fill="#613A12"/>
<g opacity="0.53">
<path opacity="0.53" d="M146.901 86.064C149.287 87.3259 151.717 88.3174 154.192 88.9483C153.517 89.1737 152.752 89.2638 151.987 89.1737C152.752 89.8497 153.652 90.3004 154.552 90.4356C153.922 90.3905 153.292 90.4356 152.707 90.5257C154.237 91.8778 156.263 91.8778 157.973 91.7877C157.028 93.7256 155.003 94.9875 152.662 95.0776C154.057 95.6185 155.498 95.7537 156.758 95.4382C155.633 97.1057 153.382 97.7817 151.087 97.1508C150.772 95.0776 149.962 93.0045 148.792 91.0215C148.387 90.3004 147.892 89.6244 147.576 88.9033C147.261 88.1822 147.126 87.371 147.441 86.7851C147.756 86.8301 148.027 86.8752 148.342 86.9653L146.901 86.064Z" fill="#472702"/>
</g>
<path d="M154.013 109.499C153.923 110.13 153.833 110.716 153.698 111.257C153.428 112.564 153.023 113.736 152.528 114.727C152.033 115.764 151.448 116.665 150.728 117.432C150.053 118.198 149.243 118.829 148.387 119.324C147.757 119.685 147.127 119.955 146.452 120.226C140.646 122.209 132.14 120.181 122.779 116.575C113.912 113.195 106.171 109.139 101.311 103.641C100.5 102.739 99.7804 101.793 99.1503 100.801C98.4752 99.7647 97.9351 98.683 97.485 97.6014C96.945 96.2494 96.5399 94.8522 96.3599 93.3199C96.1798 92.0129 96.0898 90.6609 96.1798 89.2187C96.2248 88.6328 96.2699 88.0469 96.3599 87.461C96.4949 86.3794 96.7199 85.2977 96.99 84.3062C98.3852 79.3487 101.311 75.4728 105.271 72.949C105.496 72.8138 105.721 72.6335 105.991 72.4983C109.007 70.7406 112.562 69.7491 116.478 69.5688C116.793 69.5688 117.153 69.5688 117.513 69.5688C119.043 69.5688 120.573 69.7041 122.194 69.9745C122.779 70.0646 123.319 70.1547 123.904 70.2899C124.669 70.4702 125.389 70.6505 126.154 70.8758C126.334 70.9209 126.469 70.966 126.649 71.011C127.369 71.2364 128.089 71.5068 128.81 71.7772C129.98 72.2279 131.15 72.7687 132.275 73.3095C132.32 73.3546 132.41 73.3546 132.455 73.3997C133.13 73.7151 133.76 74.0757 134.39 74.4813C134.795 74.7066 135.2 74.9771 135.606 75.2024C137.226 76.239 138.756 77.3657 140.241 78.5825C140.421 78.7177 140.601 78.898 140.781 79.0783C142.402 80.5205 143.932 82.0528 145.327 83.6753C145.462 83.8105 145.597 83.9907 145.732 84.171C151.268 90.9313 154.508 99.1788 154.238 107.021C154.193 107.832 154.148 108.688 154.013 109.499Z" fill="#FCB404"/>
<path d="M122.779 116.755C112.382 112.744 105.496 108.643 101.221 103.731C100.411 102.784 99.6906 101.838 99.0605 100.846C98.3854 99.8097 97.8003 98.6829 97.3953 97.5562C96.8552 96.1591 96.4501 94.7169 96.2251 93.2297C96.0451 91.8776 95.9551 90.4805 96.0451 89.0834C96.0901 88.4975 96.1351 87.8665 96.2251 87.2806C96.3601 86.199 96.5852 85.1174 96.8552 84.1259C99.3756 74.977 107.297 69.2983 117.513 69.2983C119.583 69.2983 121.744 69.5237 123.949 70.0194C124.849 70.1997 125.794 70.4701 126.695 70.7405C128.675 71.3715 130.7 72.1827 132.59 73.1292C133.22 73.4446 133.896 73.8052 134.526 74.2108C136.596 75.4276 138.576 76.8248 140.422 78.3571C149.468 86.0187 154.869 97.0154 154.554 107.021C154.509 107.877 154.464 108.688 154.329 109.544C154.238 110.175 154.148 110.761 154.013 111.302C153.743 112.609 153.338 113.781 152.843 114.817C152.348 115.854 151.718 116.755 151.043 117.567C150.368 118.333 149.558 118.964 148.658 119.459C148.028 119.82 147.398 120.136 146.677 120.361C141.457 122.209 133.896 121.037 122.779 116.755ZM128.765 72.0024C128.045 71.732 127.325 71.4616 126.604 71.2363C125.704 70.9659 124.804 70.6955 123.904 70.5152C121.789 70.0194 119.628 69.7941 117.603 69.7941C107.567 69.7941 99.8256 75.3826 97.3053 84.3512C97.0352 85.3427 96.8102 86.3793 96.6752 87.4609C96.5852 88.0468 96.5401 88.6327 96.4951 89.2186C96.4051 90.6157 96.4501 91.9678 96.6752 93.2747C96.9002 94.7169 97.2603 96.1141 97.8003 97.4661C98.2504 98.5477 98.7905 99.5843 99.4206 100.621C100.006 101.567 100.726 102.514 101.536 103.415C105.766 108.237 112.562 112.294 122.869 116.26C133.851 120.496 141.367 121.623 146.407 119.91C147.082 119.685 147.758 119.369 148.343 119.054C149.198 118.558 149.963 117.927 150.638 117.206C151.313 116.44 151.898 115.539 152.393 114.547C152.888 113.51 153.248 112.384 153.518 111.122C153.653 110.581 153.743 109.995 153.833 109.409C153.923 108.598 154.013 107.787 154.058 106.93C154.419 97.0605 149.063 86.2441 140.196 78.7176C138.351 77.1853 136.416 75.7882 134.391 74.6164C133.761 74.2559 133.085 73.8953 132.455 73.5798C131.195 72.994 129.98 72.4531 128.765 72.0024Z" fill="#613A12"/>
<path d="M120.392 86.3342C116.837 79.619 116.432 72.9939 116.522 69.6138C116.837 69.6138 117.197 69.6138 117.557 69.6138C119.087 69.6138 120.617 69.749 122.237 70.0194C120.167 75.4727 120.392 86.3342 120.392 86.3342Z" fill="#613A12"/>
<path d="M120.348 86.5594C120.258 86.5143 120.213 86.4693 120.168 86.3791C116.567 79.5738 116.162 72.9037 116.252 69.5235C116.252 69.4334 116.342 69.3433 116.432 69.3433C116.792 69.3433 117.152 69.3433 117.467 69.3433C118.997 69.3433 120.573 69.4785 122.193 69.7489C122.283 69.7489 122.373 69.7939 122.418 69.8841C122.463 69.9742 122.508 70.0644 122.463 70.1094C120.483 75.5176 120.663 86.289 120.663 86.4242C120.663 86.5143 120.573 86.6045 120.483 86.6045C120.438 86.5594 120.393 86.5594 120.348 86.5594ZM116.747 69.7939C116.702 73.0389 117.062 79.078 120.168 85.3425C120.168 82.6835 120.303 74.7515 121.878 70.1094C120.438 69.8841 118.997 69.7939 117.602 69.7939C117.332 69.7939 117.062 69.7939 116.747 69.7939Z" fill="#613A12"/>
<path d="M140.782 79.078C139.972 82.2328 137.902 87.7762 133.041 91.2014C133.041 91.2014 135.966 81.6469 135.606 75.2021L140.782 79.078Z" fill="#613A12"/>
<path d="M133.04 91.3816C132.995 91.3816 132.995 91.3366 132.95 91.3366C132.86 91.2464 132.815 91.1563 132.86 91.0211C132.905 90.9309 135.741 81.4215 135.426 75.1119C135.426 74.9767 135.516 74.8866 135.651 74.9316C135.786 74.9767 135.921 75.1119 135.921 75.2021C136.236 80.5201 134.301 88.0015 133.581 90.4352C137.946 87.01 139.836 81.7821 140.602 78.8977C140.647 78.7625 140.782 78.7174 140.917 78.8075C141.052 78.8526 141.142 79.0329 141.097 79.123C140.287 82.1877 138.216 87.8663 133.31 91.3366C133.175 91.4267 133.085 91.4267 133.04 91.3816Z" fill="#613A12"/>
<path d="M132.273 73.3092C130.023 89.2183 126.512 90.3901 126.512 90.3901C123.047 82.9538 125.027 74.3908 126.107 70.8755C126.287 70.9206 126.422 70.9656 126.602 71.0107C127.323 71.236 128.043 71.5064 128.763 71.7769C129.978 72.2275 131.148 72.7233 132.273 73.3092Z" fill="#613A12"/>
<path d="M126.513 90.6153C126.513 90.6153 126.468 90.6153 126.513 90.6153C126.423 90.5703 126.378 90.5252 126.333 90.4351C122.823 82.9086 124.848 74.1203 125.928 70.7401C125.973 70.65 126.063 70.6049 126.153 70.65C126.333 70.6951 126.468 70.7401 126.648 70.7852C128.584 71.3711 130.519 72.1823 132.364 73.1288C132.499 73.1738 132.544 73.309 132.544 73.4442C130.294 89.3083 126.828 90.6153 126.693 90.6604C126.603 90.6604 126.558 90.6604 126.513 90.6153ZM126.333 71.1458C125.298 74.571 123.453 82.8635 126.648 90.0294C127.413 89.4435 130.159 86.5592 132.049 73.3992C130.294 72.5429 128.449 71.7767 126.648 71.2359C126.513 71.1908 126.423 71.1908 126.333 71.1458Z" fill="#613A12"/>
<path d="M154.012 109.499C153.922 110.13 153.832 110.716 153.697 111.257C148.341 108.959 145.911 104.587 145.911 104.587C148.386 106.976 151.672 107.291 154.192 107.021C154.192 107.832 154.147 108.688 154.012 109.499Z" fill="#613A12"/>
<path d="M153.698 111.482C148.297 109.184 145.867 104.857 145.732 104.632C145.687 104.497 145.687 104.407 145.777 104.362C145.867 104.317 146.002 104.317 146.092 104.407C148.522 106.75 151.808 106.976 154.148 106.75C154.238 106.75 154.328 106.795 154.373 106.84C154.418 106.885 154.463 106.976 154.463 107.066C154.418 107.922 154.373 108.733 154.238 109.59C154.148 110.221 154.058 110.806 153.923 111.347C153.923 111.482 153.833 111.528 153.698 111.482ZM146.947 105.669C148.027 107.066 150.142 109.454 153.518 110.942C153.608 110.446 153.698 109.95 153.788 109.409C153.878 108.733 153.923 108.012 153.968 107.291C151.943 107.471 149.242 107.246 146.947 105.669Z" fill="#613A12"/>
<path d="M152.573 114.727C152.078 115.764 151.493 116.665 150.773 117.431C148.748 115.674 146.002 112.564 146.452 109.409C146.452 109.409 149.153 112.925 152.573 114.727Z" fill="#613A12"/>
<path d="M150.773 117.656C150.728 117.656 150.683 117.611 150.683 117.611C148.838 115.989 145.777 112.699 146.227 109.319C146.227 109.229 146.317 109.184 146.407 109.184C146.497 109.184 146.587 109.229 146.677 109.319C146.722 109.364 149.378 112.789 152.708 114.547C152.798 114.592 152.843 114.637 152.843 114.727C152.888 114.817 152.888 114.862 152.843 114.907C152.348 115.944 151.718 116.845 151.043 117.656C150.953 117.702 150.863 117.702 150.773 117.656ZM146.632 109.995C146.542 112.699 148.748 115.268 150.683 117.071C151.268 116.395 151.763 115.628 152.213 114.772C149.603 113.33 147.487 110.986 146.632 109.995Z" fill="#613A12"/>
<path d="M148.432 119.324C147.802 119.685 147.172 119.955 146.497 120.225C145.867 118.918 145.147 117.071 145.057 114.907C145.057 114.907 146.362 117.611 148.432 119.324Z" fill="#613A12"/>
<path d="M146.451 120.406C146.361 120.361 146.316 120.316 146.271 120.225C145.641 119.009 144.876 117.025 144.831 114.772C144.831 114.682 144.921 114.592 145.011 114.592C145.101 114.592 145.236 114.682 145.281 114.772C145.281 114.817 146.541 117.431 148.567 119.099C148.657 119.144 148.702 119.234 148.702 119.324C148.702 119.414 148.657 119.459 148.612 119.504C147.982 119.865 147.351 120.18 146.631 120.406C146.586 120.451 146.541 120.451 146.451 120.406ZM145.371 115.944C145.551 117.521 146.091 118.918 146.541 119.865C147.036 119.685 147.531 119.459 147.982 119.234C146.811 118.197 145.911 116.845 145.371 115.944Z" fill="#613A12"/>
<path d="M106.485 89.4441C106.485 89.4441 102.57 92.0581 96.2236 89.1737C96.2686 88.5878 96.3136 88.0019 96.4037 87.416C96.5387 86.3344 96.7637 85.2978 97.0338 84.2612C99.2391 86.5597 103.02 89.8948 106.485 89.4441Z" fill="#613A12"/>
<path d="M97.1692 89.8046C96.8541 89.6693 96.5391 89.5341 96.179 89.3989C96.044 89.3539 95.954 89.2187 95.999 89.0835C96.044 88.4976 96.089 87.8666 96.179 87.2807C96.3141 86.1991 96.5391 85.1174 96.8091 84.1259C96.8091 84.0358 96.8991 83.9907 96.9892 83.9907C97.0792 83.9907 97.1692 84.0358 97.2142 84.0809C99.1495 86.154 102.975 89.5792 106.396 89.1736C106.486 89.1736 106.621 89.2187 106.711 89.3539C106.756 89.444 106.756 89.5792 106.666 89.6243C106.621 89.6693 102.975 92.058 97.1692 89.8046ZM96.4941 89.0384C100.725 90.8862 103.83 90.2552 105.315 89.6693C102.21 89.3539 99.0595 86.6047 97.1692 84.7118C96.9441 85.6132 96.7641 86.5596 96.6291 87.5061C96.5841 88.0018 96.5391 88.5426 96.4941 89.0384Z" fill="#613A12"/>
<path d="M104.82 93.4552C104.28 97.3311 99.5547 97.6015 97.5744 97.5564C97.0343 96.2043 96.6292 94.8072 96.4492 93.2749C100.455 95.0326 104.82 93.4552 104.82 93.4552Z" fill="#613A12"/>
<path d="M97.5289 97.7815C97.4389 97.7364 97.3489 97.6913 97.3489 97.6012C96.8088 96.2041 96.4037 94.7619 96.1787 93.2746C96.1787 93.1845 96.1787 93.1394 96.2687 93.0943C96.3137 93.0493 96.4037 93.0493 96.4938 93.0943C100.409 94.7619 104.685 93.2746 104.73 93.2746C104.82 93.2296 104.91 93.2746 105 93.3648C105.09 93.4549 105.135 93.545 105.09 93.6352C104.55 97.6463 99.6892 97.9167 97.6189 97.8716C97.5739 97.7815 97.5739 97.7815 97.5289 97.7815ZM96.7188 93.6352C96.9438 94.8971 97.2589 96.1139 97.7089 97.2857C99.6892 97.3308 103.695 96.9702 104.505 93.8154C103.29 94.176 99.9593 94.8971 96.7188 93.6352Z" fill="#613A12"/>
<path d="M104.684 99.4038C103.919 101.792 102.344 103.054 101.354 103.595C100.544 102.694 99.8235 101.747 99.1934 100.756C102.119 101.522 104.684 99.4038 104.684 99.4038Z" fill="#613A12"/>
<path d="M101.31 103.821C101.265 103.821 101.22 103.776 101.175 103.731C100.364 102.784 99.6443 101.838 99.0142 100.846C98.9692 100.756 98.9692 100.666 99.0142 100.576C99.0592 100.486 99.1492 100.486 99.2393 100.486C101.985 101.207 104.505 99.1787 104.505 99.1336C104.595 99.0885 104.685 99.0885 104.82 99.1787C104.91 99.2688 104.955 99.404 104.955 99.4942C104.145 101.973 102.48 103.235 101.58 103.776C101.445 103.866 101.4 103.866 101.31 103.821ZM99.6893 101.117C100.184 101.838 100.724 102.604 101.355 103.28C102.12 102.784 103.335 101.838 104.1 100.125C103.2 100.666 101.535 101.387 99.6893 101.117Z" fill="#613A12"/>
<path d="M142.268 101.612C142.088 102.919 141.503 103.911 140.647 104.452C139.882 104.947 138.937 105.082 137.992 104.677C135.967 103.911 134.572 101.252 134.932 98.7729C134.977 98.4574 135.022 98.187 135.112 97.9166C135.697 95.9786 137.407 94.9871 139.207 95.6632C141.188 96.5195 142.583 99.1334 142.268 101.612Z" fill="#472702"/>
<path d="M137.946 104.812C135.831 104.001 134.435 101.297 134.75 98.7731C134.795 98.4576 134.84 98.1872 134.93 97.9168C135.561 95.8887 137.361 94.9423 139.161 95.6183C141.276 96.4295 142.672 99.1336 142.356 101.657C142.176 102.919 141.591 104.001 140.691 104.542C139.926 105.128 138.936 105.173 137.946 104.812ZM139.161 95.8436C137.451 95.2127 135.786 96.114 135.2 98.0069C135.11 98.2773 135.065 98.5477 135.02 98.8181C134.705 101.252 136.011 103.821 137.991 104.542C138.891 104.902 139.791 104.812 140.556 104.316C141.411 103.776 141.951 102.739 142.131 101.522C142.446 99.1787 141.141 96.6098 139.161 95.8436Z" fill="#472702"/>
<path d="M127.144 109.184C126.424 110.581 125.118 111.618 123.858 111.122C123.228 110.897 122.688 110.311 122.283 109.59C121.833 108.823 121.518 107.877 121.383 106.976C122.193 107.246 123.183 107.381 124.308 107.336C124.848 107.787 125.343 108.147 125.793 108.463C126.288 108.778 126.739 109.004 127.144 109.184Z" fill="#EF5823"/>
<path d="M123.814 111.347C123.139 111.077 122.553 110.491 122.058 109.635C121.608 108.868 121.293 107.877 121.113 106.93C121.113 106.84 121.113 106.795 121.158 106.75C121.203 106.705 121.293 106.705 121.338 106.705C122.193 106.975 123.139 107.111 124.174 107.066C124.219 107.066 124.309 107.111 124.354 107.156C124.849 107.561 125.344 107.922 125.794 108.237C126.244 108.508 126.649 108.733 127.054 108.913C127.144 108.959 127.189 109.004 127.234 109.094C127.279 109.184 127.279 109.229 127.234 109.319C126.649 110.716 125.299 111.888 123.814 111.347ZM121.698 107.291C121.878 108.102 122.148 108.868 122.508 109.499C122.779 109.995 123.274 110.671 123.904 110.896C125.029 111.302 126.154 110.401 126.784 109.274C126.424 109.094 126.064 108.913 125.704 108.688C125.254 108.373 124.759 108.012 124.264 107.606C123.364 107.606 122.508 107.516 121.698 107.291Z" fill="#613A12"/>
<g opacity="0.43">
<path opacity="0.43" d="M137.614 101.833C138.184 101.788 138.592 101.067 138.525 100.224C138.459 99.3802 137.943 98.7327 137.373 98.7776C136.803 98.8225 136.395 99.5428 136.462 100.386C136.528 101.23 137.044 101.878 137.614 101.833Z" fill="white"/>
</g>
<path d="M117.332 92.1028C117.242 92.914 116.927 93.59 116.567 94.1308C115.757 95.2575 114.452 95.7082 113.057 95.1674C111.031 94.4012 109.636 91.7422 109.996 89.2634C110.311 86.7847 112.246 85.3876 114.272 86.1988C116.207 86.9199 117.557 89.3536 117.377 91.7422C117.377 91.8323 117.377 91.9676 117.332 92.1028Z" fill="#472702"/>
<path d="M113.057 95.2578C110.942 94.4465 109.547 91.7424 109.862 89.2186C110.222 86.6948 112.202 85.2526 114.272 86.0638C116.253 86.83 117.648 89.3087 117.513 91.7424C117.513 91.8776 117.513 91.9678 117.468 92.103C117.378 92.9142 117.063 93.6353 116.658 94.1761C115.803 95.393 114.407 95.7986 113.057 95.2578ZM114.272 86.2891C112.292 85.523 110.447 86.875 110.132 89.3087C109.817 91.7424 111.122 94.3113 113.102 95.0324C114.362 95.5282 115.668 95.1226 116.478 94.0409C116.883 93.5001 117.153 92.8241 117.243 92.0579C117.243 91.9227 117.288 91.8326 117.288 91.6973C117.423 89.3538 116.118 87.0102 114.272 86.2891Z" fill="#472702"/>
<path d="M121.022 107.066C118.502 106.119 117.647 104.136 117.602 104.091C117.557 103.956 117.602 103.821 117.737 103.821C117.872 103.776 118.007 103.866 118.052 104.001C118.097 104.091 118.952 105.939 121.427 106.75C122.238 107.021 123.138 107.156 124.128 107.111L124.578 103.64C124.578 103.505 124.713 103.46 124.848 103.505C124.983 103.55 125.073 103.685 125.073 103.821L124.578 107.471C124.578 107.561 124.488 107.606 124.398 107.606C123.318 107.651 122.283 107.516 121.382 107.201C121.247 107.156 121.157 107.111 121.022 107.066Z" fill="#613A12"/>
<path d="M127.369 109.499C127.279 109.454 127.189 109.409 127.099 109.364C126.154 108.958 125.209 108.327 124.219 107.471C124.129 107.381 124.084 107.291 124.084 107.201L124.579 103.55C124.579 103.415 124.714 103.37 124.849 103.415C124.984 103.46 125.074 103.595 125.074 103.73L124.624 107.201C125.524 107.967 126.379 108.508 127.189 108.868C129.62 109.905 130.835 108.868 130.88 108.823C130.97 108.733 131.105 108.778 131.24 108.868C131.33 108.958 131.375 109.139 131.285 109.229C131.195 109.364 129.89 110.491 127.369 109.499Z" fill="#613A12"/>
<path d="M129.937 101.794C129.757 103.191 127.326 105.084 124.761 104.093C122.196 103.101 120.485 99.6308 120.665 98.2337C120.845 96.8366 123.096 96.5211 125.616 97.5126C128.136 98.5041 130.117 100.397 129.937 101.794Z" fill="#472702"/>
<path d="M124.759 104.181C122.059 103.145 120.394 99.5393 120.574 98.1422C120.754 96.7 123.049 96.3394 125.66 97.3309C128.27 98.3224 130.25 100.351 130.07 101.793C129.89 103.235 127.46 105.218 124.759 104.181ZM125.66 97.6013C123.184 96.6549 121.024 96.9704 120.844 98.2774C120.664 99.6294 122.374 103.055 124.804 104.001C127.28 104.947 129.665 103.1 129.845 101.748C129.98 100.396 128.135 98.5478 125.66 97.6013Z" fill="#472702"/>
<g opacity="0.43">
<path opacity="0.43" d="M114.705 93.0436C115.275 92.9987 115.683 92.2784 115.616 91.4348C115.55 90.5911 115.034 89.9436 114.464 89.9885C113.894 90.0334 113.486 90.7537 113.552 91.5974C113.619 92.441 114.135 93.0885 114.705 93.0436Z" fill="white"/>
</g>
<g opacity="0.14">
<path opacity="0.14" d="M125.029 98.6831C124.399 98.4127 123.679 98.2324 123.139 98.5028C122.509 98.8183 122.464 99.8549 123.049 100.531C122.599 100.396 122.194 99.945 121.969 99.4492C120.753 96.655 124.714 97.5113 126.154 98.2324C126.739 98.5028 129.08 99.8999 128.9 100.711C128.81 101.162 127.864 100.531 127.594 100.306C126.739 99.6746 125.974 99.0887 125.029 98.6831Z" fill="white"/>
</g>
<g opacity="0.11">
<path opacity="0.11" d="M127.144 109.183C126.424 110.581 125.119 111.617 123.858 111.121C123.228 110.896 122.688 110.31 122.283 109.589C123.138 109.905 123.993 109.86 124.669 109.499C125.119 109.274 125.524 108.913 125.794 108.462C126.289 108.778 126.739 109.003 127.144 109.183Z" fill="#472702"/>
</g>
<g opacity="0.11">
<path opacity="0.11" d="M154.013 109.499C153.923 110.13 153.833 110.716 153.698 111.257C153.428 112.564 153.023 113.736 152.528 114.727C152.033 115.764 151.448 116.665 150.728 117.431C150.053 118.197 149.243 118.828 148.387 119.324C147.757 119.685 147.127 119.955 146.452 120.226C140.646 122.209 132.14 120.18 122.779 116.575C113.912 113.195 106.171 109.139 101.311 103.64C100.5 102.739 99.7804 101.793 99.1503 100.801C98.4752 99.7645 97.9351 98.6828 97.485 97.6012C96.945 96.2491 96.5399 94.852 96.3599 93.3197C96.1798 92.0127 96.0898 90.6606 96.1798 89.2184C96.2248 88.6325 96.2699 88.0467 96.3599 87.4608C96.4949 86.3791 96.7199 85.2975 96.99 84.306C98.3852 79.3484 101.311 75.4726 105.271 72.9487C105.046 73.3994 104.731 73.76 104.371 74.1205C99.7354 79.2132 95.9998 89.0832 100.816 97.466C102.616 100.621 105.316 103.37 108.152 105.759C115.173 111.617 123.544 115.493 131.6 116.62C133.895 116.936 136.146 117.071 138.261 116.755C143.122 116.079 146.947 113.15 149.153 109.139C151.538 104.812 151.358 99.3138 149.738 93.6802C148.882 90.7057 147.622 87.7762 145.957 84.982C145.732 84.5764 145.462 84.1708 145.237 83.7201C150.998 90.5705 154.418 99.0434 154.148 107.066C154.193 107.832 154.148 108.688 154.013 109.499Z" fill="#613A12"/>
</g>
<g opacity="0.16">
<path opacity="0.16" d="M146.766 86.4241C137.45 77.9963 125.838 72.543 114.811 71.4614C113.911 71.3712 113.011 71.3262 112.111 71.3712C111.571 71.4163 111.031 71.5515 110.491 71.6417C109.006 71.9571 107.52 72.2275 106.035 72.543C106.035 72.498 106.035 72.498 106.035 72.4529C109.051 70.6952 112.606 69.7037 116.522 69.5234C116.837 69.5234 117.197 69.5234 117.557 69.5234C119.087 69.5234 120.617 69.6586 122.237 69.9291C122.823 70.0192 123.363 70.1093 123.948 70.2445C124.713 70.4248 125.433 70.6051 126.198 70.8304C126.378 70.8755 126.513 70.9206 126.693 70.9656C127.413 71.191 128.133 71.4614 128.853 71.7318C130.024 72.1825 131.194 72.7233 132.319 73.2641C132.364 73.3092 132.454 73.3092 132.499 73.3543C133.174 73.6697 133.804 74.0303 134.434 74.4359C134.839 74.6612 135.244 74.9316 135.649 75.157C137.27 76.1936 138.8 77.3203 140.285 78.5371C140.465 78.6723 140.645 78.8526 140.825 79.0329C142.445 80.4751 143.976 82.0074 145.371 83.6299C145.506 83.7651 145.641 83.9453 145.776 84.1256C146.091 84.8918 146.451 85.6579 146.766 86.4241Z" fill="#613A12"/>
</g>
<g opacity="0.26">
<path opacity="0.26" d="M140.646 104.451C141.141 103.82 141.186 102.739 141.141 101.792C141.096 100.801 141.006 99.7192 140.511 98.7277C140.061 97.7362 139.071 96.7447 138.081 96.5644C137.271 96.4292 136.596 96.7447 136.01 97.1503C135.695 97.3756 135.335 97.646 135.11 97.9615C135.695 96.0236 137.406 95.0321 139.206 95.7081C141.231 96.4742 142.626 99.1333 142.266 101.612C142.086 102.919 141.456 103.911 140.646 104.451Z" fill="#231F20"/>
</g>
<g opacity="0.26">
<path opacity="0.26" d="M111.121 89.2634C110.941 90.1197 110.896 91.1113 111.256 92.0577C111.616 93.0041 112.381 93.9956 113.327 94.4012C114.497 94.897 115.622 94.4914 116.567 94.0407C116.567 94.0858 116.567 94.0858 116.612 94.1308C115.802 95.2575 114.497 95.7082 113.101 95.1674C111.076 94.4012 109.681 91.7422 110.041 89.2634C110.356 86.7847 112.291 85.3876 114.317 86.1988C116.252 86.9199 117.602 89.3536 117.422 91.7422C117.422 91.6971 117.422 91.6521 117.377 91.607C117.152 89.7592 115.397 87.01 113.327 87.0551C112.066 87.01 111.391 88.0917 111.121 89.2634Z" fill="#231F20"/>
</g>
<g opacity="0.43">
<path opacity="0.43" d="M139.205 108.012C139.79 108.508 140.375 109.093 140.691 109.769C141.006 110.446 140.961 111.257 140.51 111.617C140.15 111.888 139.655 111.933 139.16 111.843C137.135 111.617 134.93 110.22 133.669 108.327C133.309 107.786 133.039 107.156 133.219 106.66C133.534 105.939 134.975 106.209 135.74 106.299C136.91 106.525 138.215 107.201 139.205 108.012Z" fill="#EF5823"/>
</g>
<g opacity="0.43">
<path opacity="0.43" d="M111.437 97.3311C110.762 97.3311 110.087 97.4663 109.637 97.8268C109.187 98.1874 109.007 98.9535 109.322 99.6295C109.547 100.125 109.997 100.531 110.492 100.846C112.382 102.153 114.722 102.469 116.343 101.658C116.793 101.432 117.243 101.072 117.153 100.486C117.063 99.5845 115.713 98.8183 114.992 98.3226C113.912 97.6916 112.562 97.3761 111.437 97.3311Z" fill="#EF5823"/>
</g>
<g opacity="0.11">
<path opacity="0.11" d="M110.041 70.4247C109.996 70.4247 109.996 70.4698 109.951 70.4698C109.366 70.6951 108.871 69.2529 108.601 68.8924C108.151 68.3516 107.656 67.8107 107.116 67.315C106.035 66.2784 104.775 65.4221 103.47 64.7912C100.95 63.6194 98.1142 63.4842 96.269 64.7461C96.179 64.7912 96.134 64.8362 96.0439 64.9264C96.359 64.4757 96.8091 64.0701 97.3041 63.7546C100.455 61.7716 105.63 63.7095 108.961 68.0361C109.186 68.4417 110.491 70.0191 110.041 70.4247Z" fill="#613A12"/>
</g>
<g opacity="0.11">
<path opacity="0.11" d="M158.828 87.9117C158.423 87.3258 157.928 86.7399 157.388 86.1991C155.542 84.4414 153.112 83.495 150.907 83.4048C149.917 83.3598 148.971 83.495 148.071 83.6752C147.441 83.8555 146.451 84.4414 145.686 84.2161C144.156 83.7654 146.541 82.7288 146.901 82.5936C150.997 81.0613 156.173 83.1344 158.513 87.2356C158.603 87.461 158.738 87.6863 158.828 87.9117Z" fill="#613A12"/>
</g>
<path d="M159.361 31.136C165.598 25.0631 164.25 13.5428 156.348 5.40479C148.447 -2.73324 136.985 -4.40733 130.748 1.6656C124.51 7.73853 125.858 19.2588 133.76 27.3968C141.661 35.5349 153.123 37.209 159.361 31.136Z" fill="#F2890D"/>
<path d="M139.72 185.36C145.958 179.287 144.609 167.766 136.708 159.628C128.807 151.49 117.345 149.816 111.107 155.889C104.869 161.962 106.218 173.482 114.119 181.62C122.02 189.759 133.482 191.433 139.72 185.36Z" fill="#F2890D"/>
<g opacity="0.44">
<g opacity="0.44">
<path opacity="0.44" d="M16.2858 148.631C19.4046 145.594 18.7303 139.834 14.7797 135.765C10.829 131.696 5.09808 130.859 1.97922 133.896C-1.13963 136.932 -0.46534 142.692 3.48531 146.761C7.43596 150.83 13.1669 151.667 16.2858 148.631Z" fill="#F2890D"/>
</g>
</g>
</g>
<defs>
<clipPath id="clip0">
<rect width="242" height="191" fill="white" transform="translate(0 -2)"/>
</clipPath>
</defs>
</svg>
