<svg xmlns="http://www.w3.org/2000/svg" viewBox="0 0 542.44 392.39"><defs><style>.cls-1{opacity:0.13;}.cls-2{fill:#f09b22;}.cls-3{opacity:0.09;}.cls-4{fill:#f15e25;}.cls-5{fill:#ec2027;}.cls-6{fill:#613c17;}.cls-7{opacity:0.14;}.cls-8{opacity:0.48;}.cls-9{fill:#c2badc;}.cls-10{fill:#fbb416;}.cls-11{fill:#553618;}.cls-12{opacity:0.23;}.cls-13{fill:#fff;}.cls-14{fill:#633c18;}.cls-15{opacity:0.43;}.cls-16{opacity:0.19;}.cls-17{fill:#6d3418;}.cls-18{opacity:0.39;}.cls-19{fill:#462a11;}.cls-20{fill:#f05925;}.cls-21{opacity:0.11;}.cls-22{fill:#f58f23;}.cls-23{fill:#231f20;}.cls-24{opacity:0.1;}.cls-25{opacity:0.2;}.cls-26{fill:#e89624;}.cls-27{fill:#e98c24;}.cls-28{fill:#f69321;}.cls-29{opacity:0.46;}.cls-30{opacity:0.27;}</style></defs><g id="Layer_2" data-name="Layer 2"><g id="Layer_1-2" data-name="Layer 1"><g class="cls-1"><path class="cls-2" d="M110.59,169.16l-.12.11c-3.33,3.09-9.43,3.69-12-.06-1.37-2-1.38-4.59-1.29-7A182.54,182.54,0,0,1,112.32,96c18.19-41.71,66.51-74.26,109-86.93a218.4,218.4,0,0,1,64.36-9c111,1.09,225.21,109,206,224.47-7.4,44.56-34,85.32-71.06,111.19-26.68,18.64-59.56,29.86-91.87,26-15.72-1.87-30.79-7.17-45.71-12.44-12.94-4.57-26.24-9.35-36.4-18.56S230.22,306.6,235,293.75c3.91-10.5,14-17.21,23.24-23.47,21.44-14.44,42.37-30.61,56.82-52,27-40,22-81.94-10.29-117.16-7.76-8.47-16.39-16.33-26.54-21.72-30.07-16-75.86-10.93-105.5,3.86-28.89,14.42-46.64,44.18-56.22,74C115.15,161.51,113.83,166.07,110.59,169.16Z"/></g><g class="cls-3"><circle class="cls-4" cx="124.23" cy="212.76" r="124.23"/></g><g class="cls-3"><circle class="cls-4" cx="438.58" cy="56.17" r="50.83"/></g><path class="cls-5" d="M457.36,325.72S434.92,350.13,401,343.19c0,0-12.95,22.43-54.89,9.12l-3.37-24.41,0-.12L339.53,305,330,235.69,350,231.07l2.76-.63s36.3,1.32,73.95,19.1c35,16.52,72.24,2.86,87.88-13.21a2.29,2.29,0,0,1,3.91,1.38C520.09,253.79,519.63,303.73,457.36,325.72Z"/><path class="cls-5" d="M254.54,235.69l-11.49,83.23-4.61,33.39c-41.94,13.31-54.89-9.12-54.89-9.12-34,6.94-56.42-17.47-56.42-17.47-62.27-22-62.72-71.93-61.14-88a2.29,2.29,0,0,1,3.91-1.38c15.64,16.07,52.9,29.73,87.88,13.21,37.66-17.78,74-19.1,74-19.1l10.72,2.47Z"/><path class="cls-6" d="M370.3,357.49a81.35,81.35,0,0,1-24.55-4.23l-.6-.19-.08-.63L328.84,234.92l23.82-5.49h.13a214.23,214.23,0,0,1,74.35,19.2c35,16.53,71.79,2.34,86.73-13a3.3,3.3,0,0,1,5.63,2c1.5,15.22,1.49,66.57-61.58,89-1.92,2-19.12,18.84-45,18.84a61.2,61.2,0,0,1-11.55-1.12C399.5,347,390.69,357.48,370.3,357.49ZM347,351.54c40.12,12.49,53-8.64,53.12-8.85l.36-.62.71.14c33,6.74,55.25-16.93,55.48-17.17l.16-.18.24-.08c61.92-21.87,61.94-72.09,60.48-87a1.27,1.27,0,0,0-.87-1.09,1.24,1.24,0,0,0-1.33.31c-15.36,15.78-53.13,30.37-89,13.42a212.23,212.23,0,0,0-73.44-19l-21.78,5Z"/><path class="cls-6" d="M214.19,357.49c-20.39,0-29.19-10.52-31.1-13.19-32.18,6.22-54.32-15.46-56.51-17.72C63.5,304.19,63.5,252.84,65,237.62a3.29,3.29,0,0,1,5.62-2c14.94,15.35,51.73,29.54,86.73,13a214.28,214.28,0,0,1,74.35-19.2h.13l23.83,5.49L239.34,353.07l-.6.19A81.3,81.3,0,0,1,214.19,357.49Zm-30.14-15.43.36.63c.13.21,13,21.34,53.12,8.85l15.9-115.08-21.79-5a212.32,212.32,0,0,0-73.43,19c-35.9,16.95-73.67,2.35-89-13.42a1.29,1.29,0,0,0-2.2.78c-1.47,14.88-1.45,65.1,60.48,87l.23.08.17.18c.22.24,22.48,23.91,55.48,17.17Z"/><g class="cls-7"><path class="cls-6" d="M518.5,237.71a2.29,2.29,0,0,0-3.91-1.38C499,252.4,461.7,266.06,426.71,249.54c-37.65-17.78-73.95-19.1-73.95-19.1l-2.76.63c-.38,3.21-.65,6.44-2,9.41-.57,1.3-1.51,2.41-2.18,3.66-3.37,6.32.71,13.86,1.33,21,.55,6.21-1.61,12.29-3.32,18.28A136.16,136.16,0,0,0,339.53,305c0,.32-.08.65-.12,1-.77,7-1,14.23,1.32,20.87.64.31,1.28.63,1.94.91l.17.06-.15.06,3.37,24.41C388,365.62,401,343.19,401,343.19c34,6.94,56.41-17.47,56.41-17.47C519.63,303.73,520.09,253.79,518.5,237.71Zm-41.8,59.47a49.37,49.37,0,0,1-50.4-3.75c-2-1.44-3.86-3-5.77-4.56,2.25,9.81,15.56,15,15.72,25,.09,6-5.09,11.11-10.85,12.88s-12,1-17.91,0c-2.21-.36-4.76-.64-6.43.85-1.28,1.14-1.62,3-2.15,4.61-2.21,6.91-9.07,11.79-16.28,12.62s-14.55-2-20.09-6.7c-4.28-3.63-8.56-8.67-13.54-10.28a3.72,3.72,0,0,0,1.61-1.87,6.49,6.49,0,0,1,.61-1.68c.85-1.2,2.81-.75,3.88.27s1.7,2.46,2.88,3.33,3.33.74,3.67-.69a4.57,4.57,0,0,0,0-1.11c-.07-4,4.49-6.13,8-8a31,31,0,0,0,16-27.71c-.16-4.84-1.47-9.57-2.89-14.21-3.29-10.71-7.31-21.46-14.45-30.09-1.33-1.61-2.85-3.34-2.87-5.43a29.85,29.85,0,0,1,9.73,1.28c4.93,1.43,9.59,3.82,14.39,6,8.83,4,17.72,7.92,26.89,11.1,14.08,4.9,29,8.06,43.88,6.82,15.15-1.26,29.36-3.56,42.46-11.9A49.38,49.38,0,0,1,476.7,297.18Z"/></g><g class="cls-7"><path class="cls-6" d="M241.57,316.64a9.3,9.3,0,0,1,1.48,2.28l-4.61,33.39c-41.94,13.31-54.89-9.12-54.89-9.12-34,6.94-56.42-17.47-56.42-17.47-62.27-22-62.72-71.93-61.14-88a2.29,2.29,0,0,1,3.91-1.38c15.64,16.07,52.9,29.73,87.88,13.21,37.66-17.78,74-19.1,74-19.1l10.72,2.47c1.26,3.16,1.49,6.42-.47,9.13l-7.14-1a82,82,0,0,0-27.29-.25c-23.06,3.7-43.5,17.06-66.2,22.56A100.64,100.64,0,0,1,83.44,260c-3.56,12.16,2.61,25.46,11.91,34.06,7.71,7.13,17.83,11.92,28.32,12.08s21.22-4.74,27-13.5c1.87-2.84,3.7-6.37,7.06-6.91a36.08,36.08,0,0,1-6.71,14c-3.83,4.88-9.23,9.51-9.12,15.7.06,4.06,2.72,7.78,6.19,9.88A21.79,21.79,0,0,0,159.81,328c9.58-.19,18.82-4.27,26.35-10.2s13.5-13.63,18.65-21.71c2.79,12.29-12.44,24.3-7.68,36,3.2,7.83,13.26,9.75,21.7,10,2,.07,4.25.06,5.88-1.16,2-1.52,2.46-4.34,2.87-6.84A66.82,66.82,0,0,1,232,318.73a7.89,7.89,0,0,1,2.35-3.46C236.55,313.71,239.78,314.65,241.57,316.64Z"/></g><g class="cls-8"><ellipse class="cls-9" cx="294.4" cy="379.77" rx="112.62" ry="12.62"/></g><path class="cls-10" d="M354.25,380.61c-18.39.25-28.67,0-28.67,0L308.47,362,305,358.28s-16,1.1-27.59,0L274,361.67l-18.25,18.07s-23.64,1.75-31.52.87-10.07-11.82-2.41-17.73L231.66,329s-.17-.79-.43-2.22c-2-11.26-9.86-62.54,12.47-88h85.82l15.9,3.8s18.68,41.12,8.51,81.64a85.62,85.62,0,0,1-3,9.57l7.44,29.34C363.66,364.19,372.64,380.37,354.25,380.61Z"/><path class="cls-10" d="M371.77,311s-6.48,12.69-19,4.27c-9.95-9.28-7.24-18.34-.58-22.68a16.39,16.39,0,0,1,4.48-2s-4.16-33.42-12-47.43l10.29-7.44a94.56,94.56,0,0,1,7.58,5.8C395.74,269.75,383.93,303,371.77,311Z"/><path class="cls-6" d="M371.77,312a1,1,0,0,1-.55-1.84c5.55-3.64,11.65-13.48,11.94-26.45.37-16.77-9.25-33.1-27.08-46a1,1,0,0,1-.23-1.4,1,1,0,0,1,1.4-.22c18.38,13.27,28.29,30.19,27.91,47.64-.3,13.69-6.87,24.15-12.85,28.07A1,1,0,0,1,371.77,312Z"/><path class="cls-10" d="M231.9,315.16c-13.79,8.75-18-4.16-18-4.16-13-8.54-25.61-46,16.86-75.31l.85.62,9.44,6.82c-7.88,14-12.92,48.38-12.92,48.38.27.1.53.2.8.32C236.68,295.17,245.24,306.7,231.9,315.16Z"/><path class="cls-10" d="M355.62,317s5.42,26.6,26.65,22.22c16.13-2.85,14.82-23,10.07-22.77-6.2,1.73-13.5-8.54-5.91-15.11,0,0,11.09-8.75,21.31,8.45,14.6,29.62-31.52,64.82-56.77,23.95"/><path class="cls-6" d="M379.45,353.25c-9.84,0-20.69-5-29.33-19a1,1,0,1,1,1.7-1.05c12.68,20.52,29.77,20.88,41.53,14.36,12.32-6.82,20.73-22.65,13.49-37.35-3.43-5.77-7.33-9.14-11.55-9.93a11.08,11.08,0,0,0-8.24,1.83,7.42,7.42,0,0,0-1.9,9.51c1.57,2.91,4.48,4.53,6.93,3.85a.78.78,0,0,1,.22,0c2.06-.08,3.69,2.21,4.1,5.88.72,6.47-2.41,16.84-13.95,18.87a23.09,23.09,0,0,1-4.67.5c-16.29,0-22-19.29-23.07-23.47a1,1,0,0,1,.73-1.22,1,1,0,0,1,1.21.73c1.07,4.24,7.31,25.24,25.42,21.5,10.22-1.81,13-11,12.34-16.68-.28-2.53-1.19-4-1.94-4.11-3.31.84-7.1-1.18-9.08-4.86a9.39,9.39,0,0,1,2.39-12,13,13,0,0,1,9.84-2.27c4.83.9,9.19,4.58,13,11,7.81,15.83-1.14,32.78-14.28,40.05A30.89,30.89,0,0,1,379.45,353.25Z"/><path class="cls-6" d="M356.66,291.56a1,1,0,0,1-1-1c-.43-16-7.67-36.63-7.75-36.84a1,1,0,0,1,1.89-.67c.07.21,7.42,21.14,7.86,37.46a1,1,0,0,1-1,1Z"/><path class="cls-6" d="M361.31,319.26A15.6,15.6,0,0,1,349,312.68c-3-4.13-4.3-8.3-3.8-12.05a11.55,11.55,0,0,1,2-5.09,15.08,15.08,0,0,1,8.5-5.74c0-.41-.05-.8-.08-1.18-.16-1.93-.32-3.92,1.66-5.42a.81.81,0,0,1,.18-.1,2.59,2.59,0,0,1,2.32,0c2.5,1.2,3.81,6.25,4,7.25a1,1,0,0,1-.75,1.2,1,1,0,0,1-1.2-.74c-.5-2.11-1.75-5.33-3-5.91a.67.67,0,0,0-.52,0c-1,.79-.94,1.7-.79,3.6.05.63.11,1.34.11,2.11a1,1,0,0,1-.77,1,13.35,13.35,0,0,0-8.1,5.14,9.5,9.5,0,0,0-1.64,4.21c-.44,3.24.75,6.91,3.42,10.62,4.12,5.63,10.59,6.75,14.84,4.93,4.46-1.91,6.47-6.7,5.37-12.82a1,1,0,0,1,2-.35c1.27,7.09-1.18,12.7-6.55,15A12.36,12.36,0,0,1,361.31,319.26Z"/><path class="cls-6" d="M355.13,276.86h-.08a1,1,0,0,1-.92-1.08c.72-8.85,7.21-9.45,7.27-9.45a1,1,0,0,1,.16,2c-.21,0-4.86.54-5.43,7.62A1,1,0,0,1,355.13,276.86Z"/><path class="cls-6" d="M340.46,345.93A1,1,0,0,1,340,344c.15-.08,11.1-6.12,14.73-26.59a1,1,0,1,1,2,.35c-3.81,21.56-15.28,27.76-15.77,28A1.07,1.07,0,0,1,340.46,345.93Z"/><path class="cls-6" d="M214,312a1,1,0,0,1-.55-.17c-6-3.92-12.54-14.38-12.84-28.07-.39-17.45,9.53-34.37,27.91-47.64a1,1,0,1,1,1.17,1.62c-17.83,12.87-27.45,29.2-27.08,46,.28,13,6.39,22.81,11.94,26.45A1,1,0,0,1,214,312Z"/><path class="cls-6" d="M229.06,291.56h0a1,1,0,0,1-1-1c.43-16.32,7.79-37.25,7.86-37.46a1,1,0,0,1,1.89.67c-.08.21-7.33,20.85-7.75,36.84A1,1,0,0,1,229.06,291.56Z"/><path class="cls-6" d="M224.41,319.26a12.32,12.32,0,0,1-4.89-1c-5.37-2.3-7.83-7.91-6.55-15a1,1,0,0,1,1.16-.81,1,1,0,0,1,.81,1.16c-1.1,6.12.91,10.91,5.37,12.81,4.25,1.82,10.71.71,14.84-4.93,3.29-4.57,4.3-9,2.9-12.69-1.31-3.51-4.76-6.23-9.22-7.27a1,1,0,0,1-.77-1c0-.76.05-1.47.11-2.1.15-1.9.18-2.81-.8-3.6a.65.65,0,0,0-.51,0c-1.21.58-2.46,3.8-3,5.91a1,1,0,0,1-1.2.74,1,1,0,0,1-.75-1.21c.24-1,1.55-6,4-7.24a2.65,2.65,0,0,1,2.33,0l.17.11c2,1.5,1.83,3.5,1.67,5.42,0,.38-.06.77-.08,1.17,4.73,1.33,8.38,4.4,9.84,8.32,1.15,3.06,1.53,8.07-3.16,14.57A15.6,15.6,0,0,1,224.41,319.26Z"/><path class="cls-6" d="M230.59,276.86a1,1,0,0,1-1-.92c-.57-7.09-5.23-7.6-5.43-7.62a1,1,0,0,1-.91-1.08,1,1,0,0,1,1.07-.91c.06,0,6.55.6,7.27,9.45a1,1,0,0,1-.92,1.08Z"/><path class="cls-6" d="M245.26,345.93a1.12,1.12,0,0,1-.47-.11c-.48-.26-11.95-6.46-15.77-28a1,1,0,0,1,.81-1.16,1,1,0,0,1,1.16.81c3.65,20.6,14.62,26.53,14.73,26.59a1,1,0,0,1-.46,1.89Z"/><path class="cls-6" d="M230.57,381.86a63.46,63.46,0,0,1-6.46-.25,8.81,8.81,0,0,1-7.66-6.64,12.22,12.22,0,0,1,4.49-12.68l10.55-35.52a1,1,0,0,1,1.25-.67,1,1,0,0,1,.67,1.24l-10.64,35.82a1,1,0,0,1-.35.51c-3.52,2.72-5.11,6.94-4,10.76a6.85,6.85,0,0,0,6,5.19c7.16.79,27.95-.64,31-.85l21.41-21.2a1,1,0,0,1,.8-.28c11.38,1.07,27.26,0,27.42,0a1,1,0,0,1,.8.32l20.29,22c2.12,0,12.12.21,28.22,0,4.33-.05,9.58-1.08,10-5.62.4-4.2-3.59-9.4-6.05-9.91a1,1,0,0,1-.77-.73L350,334a1,1,0,0,1,1.94-.49l7.3,28.78c3.48,1.28,7.47,7.08,7,11.88-.27,2.72-2.17,7.3-12,7.43-18.2.24-28.62,0-28.72,0a1,1,0,0,1-.71-.32l-20.26-22c-2.72.17-16.42.93-26.79,0l-21.35,21.13a1,1,0,0,1-.63.28C255,380.79,240.48,381.86,230.57,381.86Z"/><path class="cls-6" d="M343.09,372.2a1,1,0,0,1-.6-.2,1,1,0,0,1-.21-1.4,20.14,20.14,0,0,1,16.18-8.5,1,1,0,0,1,1,1,1,1,0,0,1-1.05,1h0a18.11,18.11,0,0,0-14.47,7.7A1,1,0,0,1,343.09,372.2Z"/><path class="cls-6" d="M364,378.26a1,1,0,0,1-1-.84,5.53,5.53,0,0,0-4.72-4.57,1,1,0,0,1,.22-2,7.45,7.45,0,0,1,6.47,6.25,1,1,0,0,1-.83,1.14Z"/><path class="cls-6" d="M237,372.2a1,1,0,0,1-.8-.4,18.1,18.1,0,0,0-14.48-7.7,1,1,0,0,1-.1-2,20.13,20.13,0,0,1,16.18,8.5,1,1,0,0,1-.21,1.4A1,1,0,0,1,237,372.2Z"/><path class="cls-6" d="M219.43,379.14l-.15,0a1,1,0,0,1-.84-1.14,7.46,7.46,0,0,1,6.48-6.25,1,1,0,0,1,1.1.89,1,1,0,0,1-.88,1.1h0a5.49,5.49,0,0,0-4.72,4.57A1,1,0,0,1,219.43,379.14Z"/><path class="cls-6" d="M392.78,316.51s5.05.23,8.31-7.68a.22.22,0,0,1,.42.09,14.65,14.65,0,0,1-6.29,11.36S394.89,317.28,392.78,316.51Z"/><path class="cls-6" d="M395,327.21s3.77,3.87,10.39,1.07a.18.18,0,0,1,.22.27c-1,1.63-4.92,6.61-13.58,5"/><path class="cls-6" d="M382.86,339.12a9.37,9.37,0,0,0,6,7.26.32.32,0,0,1,0,.61c-2.39.55-8.46,1-12.56-7.15Z"/><path class="cls-6" d="M367,336.24s-2.35,1.53-.59,7.92a.2.2,0,0,1-.31.22c-1.55-1.11-6.21-4.65-4.2-13.62Z"/><path class="cls-6" d="M290.41,359.81a116.7,116.7,0,0,1-17.66-1.26,1,1,0,0,1,.34-2,117,117,0,0,0,35.67-.3,1,1,0,1,1,.35,2A107,107,0,0,1,290.41,359.81Z"/><path class="cls-6" d="M346.06,304.32A16.26,16.26,0,0,1,357.22,301a.34.34,0,0,1,.26.52c-1,1.52-4.36,6.28-10,6.65Z"/><path class="cls-6" d="M353,315.08a15.1,15.1,0,0,1,9.37-6.4.34.34,0,0,1,.4.42,16.37,16.37,0,0,1-6.56,8.13Z"/><path class="cls-11" d="M354,274s-3,4.42-12,4.65a.7.7,0,0,0-.35,1.3c2.22,1.36,6.75,3,14.24,1.31Z"/><path class="cls-11" d="M356.07,318.44a36.89,36.89,0,0,1-17.74-5.54.7.7,0,0,0-.78,1.09c1.61,2,9.25,10,16.87,11Z"/><path class="cls-11" d="M348,296.11a10.7,10.7,0,0,0-1.81,4.65,15.76,15.76,0,0,1-7-5.2.7.7,0,0,1,.83-1.05A20.34,20.34,0,0,0,348,296.11Z"/><path class="cls-6" d="M239.79,304.32A16.26,16.26,0,0,0,228.63,301a.34.34,0,0,0-.26.52c.95,1.52,4.36,6.28,10,6.65Z"/><path class="cls-6" d="M229.63,317.23a16.43,16.43,0,0,1-6.56-8.13.34.34,0,0,1,.4-.42,15.1,15.1,0,0,1,9.37,6.4Z"/><path class="cls-11" d="M231.89,274s3,4.42,12.05,4.65a.7.7,0,0,1,.35,1.3c-2.22,1.36-6.75,3-14.24,1.31Z"/><path class="cls-11" d="M229.78,318.44a36.89,36.89,0,0,0,17.74-5.54.7.7,0,0,1,.79,1.09c-1.61,2-9.26,10-16.87,11Z"/><path class="cls-11" d="M237.89,296.11a10.58,10.58,0,0,1,1.81,4.65,15.76,15.76,0,0,0,7-5.2.7.7,0,0,0-.83-1.05A20.34,20.34,0,0,1,237.89,296.11Z"/><path class="cls-6" d="M354.39,347.25s-7.54-1.25-13.55,6.26a.73.73,0,0,0,.89,1.11c3.66-1.85,10.19-4.49,14-2.17Z"/><path class="cls-6" d="M227.05,347.25s7.53-1.25,13.55,6.26a.73.73,0,0,1-.89,1.11c-3.66-1.85-10.19-4.49-14-2.17Z"/><g class="cls-12"><ellipse class="cls-13" cx="292.93" cy="293.63" rx="41.01" ry="47.14"/></g><path class="cls-5" d="M359.57,231.08a33.42,33.42,0,0,1-6.15,7c-25.61,22.57-94.87,28.07-123.37-5.76-.73-.86-1.43-1.74-2.1-2.65l4.21-3.07c30.45,28.28,95.83,21.91,121.77,1Z"/><path class="cls-14" d="M292.94,257.39c-28.81,0-53.19-10-65.79-27.09l-.6-.81,5.69-4.14.6.56c30.64,28.45,95.79,20.84,120.46,1l.55-.44,7.11,4.31-.55.86c-9.16,14.4-34.54,24.73-63.15,25.71C295.81,257.37,294.37,257.39,292.94,257.39Zm-63.58-27.47c13,16.93,38.29,26.41,67.83,25.4,27.41-.93,51.69-10.51,61-23.93L354,228.88c-13.15,10.27-35.75,17-59.25,17.71-25.88.74-48.66-6.06-62.67-18.66Z"/><g class="cls-15"><circle class="cls-13" cx="504" cy="177.9" r="1.77"/></g><g class="cls-16"><path class="cls-6" d="M353.42,238.12c-25.61,22.57-94.87,28.07-123.37-5.76a5,5,0,0,1,.94.41c21.68,11.43,45.37,21.61,69.8,19.62,3.2-.26,6.39-.73,9.56-1.3A144.37,144.37,0,0,0,340.79,242c3.6-1.52,8.27-5.09,12.33-4Z"/></g><path class="cls-10" d="M219.14,113c-11.24,13.28-32.69,13.59-47.92.7-12.78-10.82-17.11-27.5-11.52-40.43a27.64,27.64,0,0,1,4.3-6.94c11.24-13.28,32.69-13.59,47.92-.71a41,41,0,0,1,8.68,10.2C227.86,88,227.75,102.84,219.14,113Z"/><path class="cls-6" d="M196.17,124.16a39.9,39.9,0,0,1-25.6-9.69c-12.83-10.86-17.68-28-11.79-41.59a29,29,0,0,1,4.45-7.19c11.58-13.67,33.71-14,49.33-.82a41.84,41.84,0,0,1,8.9,10.45c7.75,13,7.14,28.06-1.56,38.34C214,120.64,205.32,124.16,196.17,124.16Zm-9.2-67c-8.58,0-16.69,3.27-22.21,9.8a26.37,26.37,0,0,0-4.14,6.69c-5.55,12.82-.92,29,11.24,39.27,14.79,12.51,35.65,12.25,46.52-.59h0c8.14-9.61,8.67-23.75,1.36-36a40.13,40.13,0,0,0-8.47-10A38,38,0,0,0,187,57.19Z"/><ellipse class="cls-17" cx="188.43" cy="95.72" rx="24.85" ry="36.12" transform="matrix(0.65, -0.76, 0.76, 0.65, -6.37, 177.7)"/><path class="cls-6" d="M199.72,126.76c-8.92,0-19.18-3.85-28-11.31-7.52-6.36-12.88-14.37-15.11-22.56s-1-15.83,3.48-21.15c9.21-10.88,29.41-9,45,4.25S226,108.82,216.77,119.7C212.75,124.45,206.63,126.76,199.72,126.76ZM177.14,66.64c-6.32,0-11.88,2.09-15.52,6.39-4.07,4.81-5.16,11.67-3.07,19.34s7.26,15.45,14.47,21.55c14.78,12.52,33.72,14.53,42.22,4.49s3.38-28.38-11.4-40.9C195.39,70.36,185.58,66.64,177.14,66.64Z"/><g class="cls-18"><path class="cls-19" d="M192,76.21a6.14,6.14,0,0,0,3.4,4.75c-5.43.41-11.41.66-15.69-2.69a21.47,21.47,0,0,0,10.6,9.43,21.67,21.67,0,0,1-15.29.72,33.45,33.45,0,0,0,6.76,4.13,23,23,0,0,0-6.46.38,15.83,15.83,0,0,0,7.54,3.15,27.77,27.77,0,0,1-17-3.92,39.79,39.79,0,0,0,13.31,14,13.88,13.88,0,0,1-6.58,1.1,10.92,10.92,0,0,0,5.77,3.4l-5.57.11c.15,3.43,2.46,6.45,5.32,8.34s6.21,2.84,9.51,3.75c3.09.86,6.55,1.68,9.38.16,3-1.61,4.13-5.21,5.58-8.27,3.78-8,10.85-13.64,15.65-20.93,4.38-6.67-5.69-10.69-11-12C205.14,81.36,192.28,78.56,192,76.21Z"/></g><path class="cls-10" d="M409.07,113.71c-15.23,12.89-36.68,12.58-47.92-.7-7.83-9.25-8.63-22.34-3.26-33.79a40.36,40.36,0,0,1,10.48-13.59c15.23-12.88,36.68-12.57,47.92.71q.9,1.06,1.68,2.19C427.15,81.85,423.48,101.51,409.07,113.71Z"/><path class="cls-6" d="M384.12,124.16c-9.15,0-17.82-3.51-23.73-10.5C352.55,104.4,351.24,91,357,78.8a41.69,41.69,0,0,1,10.74-13.93c15.63-13.22,37.76-12.85,49.33.82.62.74,1.21,1.5,1.74,2.27,9.48,13.75,5.49,34.18-9.07,46.51h0A39.92,39.92,0,0,1,384.12,124.16Zm9.19-67a38,38,0,0,0-24.3,9.2,39.8,39.8,0,0,0-10.22,13.26c-5.4,11.52-4.21,24.06,3.12,32.71,10.86,12.84,31.73,13.1,46.51.59,13.79-11.68,17.63-30.94,8.73-43.85A24.78,24.78,0,0,0,415.52,67C410,60.46,401.89,57.19,393.31,57.19Zm15.76,56.52h0Z"/><ellipse class="cls-17" cx="391.86" cy="95.72" rx="36.12" ry="24.85" transform="translate(30.92 275.83) rotate(-40.25)"/><path class="cls-6" d="M380.56,126.76c-6.91,0-13-2.31-17-7.06-9.21-10.88-4-30.49,11.63-43.71h0c15.63-13.23,35.83-15.13,45-4.25s4,30.49-11.63,43.71C399.75,122.9,389.49,126.76,380.56,126.76Zm-4.11-49.25c-14.78,12.52-19.9,30.86-11.4,40.9s27.44,8,42.22-4.49S427.16,83.07,418.66,73s-27.43-8-42.21,4.48Z"/><g class="cls-18"><path class="cls-19" d="M370.25,79.84a110.79,110.79,0,0,0,30.05.46,23.53,23.53,0,0,1-8.56,4.38,17.64,17.64,0,0,0,10.77,1.21,37.76,37.76,0,0,0-7.27,3.36c6.78,3.09,14.65,0,21.35-3.2a35.09,35.09,0,0,1-19,22.1,28.75,28.75,0,0,0,16.28-5,26.64,26.64,0,0,1-21.28,16.13,55.6,55.6,0,0,0-12.2-21.79c-2-2.24-4.27-4.33-5.89-6.9s-2.57-5.73-1.71-8.64l3.61-.73"/></g><path class="cls-10" d="M410.53,166.11q0,4-.27,7.77a85.55,85.55,0,0,1-2.7,16.37A66.18,66.18,0,0,1,402,204.32a59.19,59.19,0,0,1-8.17,11.57,61.71,61.71,0,0,1-7.2,6.79c-21.68,17.46-56.08,22.55-94.81,22.55-36.46,0-69.08-4.51-90.86-19.6a64.83,64.83,0,0,1-9.88-8.38,59.18,59.18,0,0,1-8.2-10.75,65.22,65.22,0,0,1-6.73-15.91,84.87,84.87,0,0,1-2.8-16.8q-.27-3.72-.27-7.68a115.23,115.23,0,0,1,27.29-74.53c.84-1,1.69-2,2.57-2.94A119.15,119.15,0,0,1,242.45,59.8c1.31-.6,2.64-1.16,4-1.71a119.39,119.39,0,0,1,18.49-5.82q3.39-.78,6.86-1.35c3-.5,6-.9,9.1-1.16.66-.07,1.32-.12,2-.17q4.42-.33,8.93-.33a121.35,121.35,0,0,1,14.48.86l.74.09q4.13.52,8.16,1.32,2.61.51,5.17,1.13a119.09,119.09,0,0,1,19.92,6.74l2.41,1.09a118.44,118.44,0,0,1,20.17,12c.6.44,1.2.9,1.8,1.36a116.16,116.16,0,0,1,45.41,81.6C410.37,159,410.53,162.51,410.53,166.11Z"/><path class="cls-6" d="M291.79,246.23c-42.9,0-72-6.28-91.43-19.78a66.22,66.22,0,0,1-10-8.51A61,61,0,0,1,182,207a66.29,66.29,0,0,1-6.83-16.16,86.19,86.19,0,0,1-2.84-17c-.18-2.51-.27-5.11-.27-7.75a116.32,116.32,0,0,1,.87-14.24c5.15-42.15,33.18-78.44,73.13-94.7a120.47,120.47,0,0,1,25.56-7.24c3.68-.62,7.44-1.07,11.17-1.34a124.22,124.22,0,0,1,24.35.63c2.73.34,5.5.79,8.23,1.33a119.53,119.53,0,0,1,25.3,7.94C380.18,75.9,407.15,113,411,155.35c.33,3.53.49,7.15.49,10.76,0,2.7-.09,5.34-.27,7.85a86.89,86.89,0,0,1-2.74,16.56,67.94,67.94,0,0,1-5.67,14.28,60.39,60.39,0,0,1-8.31,11.76,62.29,62.29,0,0,1-7.31,6.9C367.94,239,337.62,246.23,291.79,246.23Zm0-196c-2.93,0-5.91.11-8.86.33-3.67.26-7.37.71-11,1.31A118.2,118.2,0,0,0,246.81,59c-39.29,16-66.84,51.67-71.91,93.1a116.24,116.24,0,0,0-.85,14c0,2.59.09,5.15.26,7.61a84.34,84.34,0,0,0,2.78,16.6A64.17,64.17,0,0,0,183.71,206a58.75,58.75,0,0,0,8.06,10.57,63.79,63.79,0,0,0,9.73,8.25c19.12,13.25,47.81,19.42,90.29,19.42,45.35,0,75.27-7.09,94.18-22.32a61.8,61.8,0,0,0,7.09-6.69,58.26,58.26,0,0,0,8-11.37,65.78,65.78,0,0,0,5.5-13.86,85.15,85.15,0,0,0,2.67-16.18c.18-2.46.27-5.05.27-7.7,0-3.55-.16-7.1-.48-10.57-3.83-41.62-30.34-78.1-69.2-95.22A118,118,0,0,0,315,52.51c-2.69-.53-5.41-1-8.1-1.3A119.88,119.88,0,0,0,291.79,50.26Z"/><path class="cls-6" d="M266.48,123.28C249,101,243.9,74.05,242.45,59.8c1.31-.6,2.64-1.16,4-1.71a119.39,119.39,0,0,1,18.49-5.82C260,78.45,266.48,123.28,266.48,123.28Z"/><path class="cls-6" d="M266.48,124.28a1,1,0,0,1-.79-.38c-17.72-22.54-22.79-49.77-24.24-64a1,1,0,0,1,.58-1c1.43-.65,2.83-1.24,4-1.72A119.34,119.34,0,0,1,264.7,51.3a1,1,0,0,1,1.2,1.16c-4.85,25.71,1.5,70.23,1.57,70.68a1,1,0,0,1-.6,1.06A1,1,0,0,1,266.48,124.28Zm-23-63.87C245,74,249.69,98.51,265,119.65c-1.38-11.13-5-44.38-1.32-66.06A117.84,117.84,0,0,0,246.81,59C245.82,59.42,244.69,59.89,243.52,60.41Z"/><path class="cls-6" d="M342.67,60.49c-1.55,14.42-6.71,40.86-24,62.79,0,0,6.43-44.38,1.63-70.62"/><path class="cls-6" d="M318.71,124.28a1.14,1.14,0,0,1-.4-.08,1,1,0,0,1-.59-1.06c.06-.44,6.35-44.52,1.64-70.3a1,1,0,0,1,2-.36c4,21.64.28,55.85-1.13,67.17,15.38-21.23,20.06-46,21.48-59.27a1,1,0,0,1,1.1-.88,1,1,0,0,1,.89,1.1c-1.51,14.09-6.67,41.05-24.17,63.3A1,1,0,0,1,318.71,124.28Z"/><path class="cls-6" d="M306.27,50.12c-.54,69.91-13.56,80.33-13.56,80.33-17.44-25.38-14.2-64.32-11.83-80.69.66-.07,1.32-.12,2-.17q4.42-.33,8.93-.33A121.35,121.35,0,0,1,306.27,50.12Z"/><path class="cls-6" d="M292.71,131.45h-.15a1,1,0,0,1-.68-.42c-17.72-25.8-14.29-65.52-12-81.4a1,1,0,0,1,.88-.85c.66-.07,1.31-.12,2-.17a122.73,122.73,0,0,1,23.65.53,1,1,0,0,1,.88,1c-.54,69.58-13.39,80.66-13.94,81.1A1,1,0,0,1,292.71,131.45ZM281.76,50.68c-2.23,15.9-5.19,53.31,11.06,78.14,2.69-3.6,11.9-20.11,12.44-77.81a121.59,121.59,0,0,0-22.33-.42Z"/><path class="cls-6" d="M410.53,166.11q0,4-.27,7.77c-22.22-1-33.95-15.38-33.95-15.38,11,6,24,2,33.73-3.06C410.37,159,410.53,162.51,410.53,166.11Z"/><path class="cls-6" d="M410.26,174.88h0c-22.41-1-34.2-15.15-34.69-15.75a1,1,0,0,1,1.26-1.51c10.81,5.93,23.8,1.61,32.79-3.06a1,1,0,0,1,1.46.79c.33,3.53.49,7.15.49,10.76,0,2.7-.09,5.34-.27,7.85A1,1,0,0,1,410.26,174.88Zm-29.52-13.47a48.83,48.83,0,0,0,28.59,11.42c.13-2.16.2-4.42.2-6.72,0-3.05-.12-6.1-.35-9.1C401.18,161,390.56,164.31,380.74,161.41Z"/><path class="cls-6" d="M407.55,190.25A65.64,65.64,0,0,1,402,204.32c-8.8-4.19-21.21-12.57-21.22-26.42C380.75,177.9,393.19,188.17,407.55,190.25Z"/><path class="cls-6" d="M402,205.32a.94.94,0,0,1-.43-.1c-8.14-3.87-21.78-12.58-21.79-27.32a1,1,0,0,1,1.64-.77c.12.1,12.4,10.11,26.31,12.13a1,1,0,0,1,.69.44,1,1,0,0,1,.13.82,67.94,67.94,0,0,1-5.67,14.28A1,1,0,0,1,402,205.32ZM381.85,180c1.11,11.36,11,18.69,19.69,23a65.61,65.61,0,0,0,4.75-11.94C395.26,189.14,385.67,182.81,381.85,180Z"/><path class="cls-6" d="M393.8,215.89a61.71,61.71,0,0,1-7.2,6.79,44.52,44.52,0,0,1-8.37-19.84S384.64,212.17,393.8,215.89Z"/><path class="cls-6" d="M386.6,223.68h-.13a1,1,0,0,1-.67-.4A45.84,45.84,0,0,1,377.24,203a1,1,0,0,1,.62-1.08,1,1,0,0,1,1.19.36c.06.09,6.36,9.13,15.13,12.69a1,1,0,0,1,.59.7,1,1,0,0,1-.23.9,62.29,62.29,0,0,1-7.31,6.9A1,1,0,0,1,386.6,223.68Zm-6.55-17a44.09,44.09,0,0,0,6.73,14.51,62,62,0,0,0,5.34-5A39.06,39.06,0,0,1,380.05,206.73Z"/><path class="cls-6" d="M213.63,158.5s-14,17.18-40.32,15.29q-.26-3.72-.26-7.68a115.5,115.5,0,0,1,.86-14.12C183.67,158.17,200.17,165.88,213.63,158.5Z"/><path class="cls-6" d="M177.28,174.93c-1.31,0-2.66,0-4-.14a1,1,0,0,1-.92-.93c-.18-2.51-.27-5.11-.27-7.75a116.32,116.32,0,0,1,.87-14.24,1,1,0,0,1,.56-.78,1,1,0,0,1,1,.06c8.75,5.54,25.43,13.75,38.7,6.47a1,1,0,0,1,1.26,1.51C214.27,159.3,201.25,174.93,177.28,174.93Zm-3-2.08a49.34,49.34,0,0,0,35-11.44c-12.4,3.65-26.19-2.7-34.5-7.74a117.11,117.11,0,0,0-.67,12.44C174.05,168.39,174.12,170.66,174.25,172.85Z"/><path class="cls-6" d="M209.19,177.9c0,16.9-18.5,25.65-26.34,28.6a64.84,64.84,0,0,1-6.73-15.91C192.94,191.32,209.19,177.9,209.19,177.9Z"/><path class="cls-6" d="M182.85,207.5A1,1,0,0,1,182,207a66.29,66.29,0,0,1-6.83-16.16,1,1,0,0,1,.18-.89,1,1,0,0,1,.83-.38c16.25.71,32.22-12.33,32.38-12.46a1,1,0,0,1,1.64.77c0,17.5-18.87,26.49-27,29.54A1.13,1.13,0,0,1,182.85,207.5Zm-5.39-15.88a64.14,64.14,0,0,0,5.83,13.65c7.71-3,23.37-10.88,24.8-25.26-4.53,3.32-17.16,11.61-30.62,11.61Z"/><path class="cls-6" d="M211.72,202.84a44.71,44.71,0,0,1-10.79,22.79,64.83,64.83,0,0,1-9.88-8.38C202.84,215.76,211.72,202.84,211.72,202.84Z"/><path class="cls-6" d="M200.93,226.63a1,1,0,0,1-.57-.18,66.22,66.22,0,0,1-10-8.51,1,1,0,0,1-.22-1,1,1,0,0,1,.82-.65c11.2-1.42,19.89-13.86,20-14a1,1,0,0,1,1.81.72,46,46,0,0,1-11,23.31A1,1,0,0,1,200.93,226.63Zm-7.83-8.73a65,65,0,0,0,7.67,6.4,44.06,44.06,0,0,0,9.12-17.56C206.62,210.47,200.56,216.2,193.1,217.9Z"/><path class="cls-19" d="M360.22,152.15a22.56,22.56,0,0,1-4.84,14.38,13.46,13.46,0,0,1-10.32,5.27c-8.37,0-15.16-8.8-15.16-19.65a24.89,24.89,0,0,1,.29-3.8c1.36-9,7.5-15.84,14.87-15.84C353.43,132.51,360.22,141.3,360.22,152.15Z"/><path class="cls-19" d="M345.06,172.3c-8.64,0-15.66-9-15.66-20.15a26.36,26.36,0,0,1,.29-3.88c1.42-9.42,7.88-16.26,15.37-16.26,8.63,0,15.66,9,15.66,20.14a23.22,23.22,0,0,1-5,14.7A14,14,0,0,1,345.06,172.3Zm0-39.29c-7,0-13,6.48-14.38,15.41a24.36,24.36,0,0,0-.28,3.73c0,10.56,6.58,19.15,14.66,19.15a13,13,0,0,0,9.93-5.09,22.18,22.18,0,0,0,4.73-14.06C359.72,141.6,353.14,133,345.06,133Z"/><path class="cls-20" d="M304.94,207.67c-2,6.87-6.58,13.36-11.85,13.36-2.58,0-5-1.54-7-3.93a26.58,26.58,0,0,1-4.86-9.44A33.16,33.16,0,0,0,293,204.53a39.12,39.12,0,0,0,6.4,2.27A27.3,27.3,0,0,0,304.94,207.67Z"/><path class="cls-6" d="M293.09,222c-2.71,0-5.4-1.48-7.77-4.28a27.48,27.48,0,0,1-5.05-9.81,1,1,0,0,1,.9-1.28,32.37,32.37,0,0,0,11.4-3,1,1,0,0,1,.82,0,38.3,38.3,0,0,0,6.23,2.21,26.31,26.31,0,0,0,5.37.84,1,1,0,0,1,.76.42,1,1,0,0,1,.15.86C303.83,215,299.06,222,293.09,222Zm-10.53-13.47a24.74,24.74,0,0,0,4.29,7.89c1.38,1.64,3.58,3.58,6.24,3.58,4.6,0,8.55-5.73,10.51-11.46a29.44,29.44,0,0,1-4.47-.8,39.68,39.68,0,0,1-6.15-2.15A35.43,35.43,0,0,1,282.56,208.56Z"/><g class="cls-15"><ellipse class="cls-13" cx="340.87" cy="154.32" rx="4.19" ry="6.49"/></g><path class="cls-19" d="M257.61,152.15a24.14,24.14,0,0,1-2,9.74c-2.61,5.92-7.53,9.91-13.16,9.91-8.37,0-15.16-8.8-15.16-19.65s6.79-19.64,15.16-19.64c8,0,14.49,8,15.11,18.07h0C257.59,151.1,257.61,151.62,257.61,152.15Z"/><path class="cls-19" d="M242.45,172.3c-8.64,0-15.66-9-15.66-20.15s7-20.14,15.66-20.14c8.11,0,15,8.14,15.61,18.54,0,.53.05,1.06.05,1.6a24.85,24.85,0,0,1-2,9.94C253.29,168.39,248.07,172.3,242.45,172.3Zm0-39.29c-8.08,0-14.66,8.59-14.66,19.14s6.58,19.15,14.66,19.15c5.22,0,10.09-3.68,12.7-9.61a23.77,23.77,0,0,0,2-9.54c0-.52,0-1-.05-1.53C256.45,140.74,250,133,242.45,133Z"/><path class="cls-6" d="M279.87,208.7c-10.35,0-14.82-6.69-15-7a1,1,0,0,1,1.67-1.09c.19.29,4.49,6.63,14.64,6A32.08,32.08,0,0,0,292,203.88V188.62a1,1,0,0,1,2,0v15.91a1,1,0,0,1-.59.91,34.58,34.58,0,0,1-12.11,3.22C280.8,208.69,280.33,208.7,279.87,208.7Z"/><path class="cls-6" d="M306.09,208.7l-1.2,0a34.2,34.2,0,0,1-12.32-3.23,1,1,0,0,1-.59-.91V188.62a1,1,0,0,1,2,0v15.26a32,32,0,0,0,11,2.8c10,.49,14.27-5.79,14.45-6.06a1,1,0,0,1,1.67,1.09C320.92,202,316.44,208.7,306.09,208.7Z"/><path class="cls-19" d="M312.05,172.4c0,6.09-8.54,17.89-19.07,17.89s-19.07-11.8-19.07-17.89,8.54-11,19.07-11S312.05,166.31,312.05,172.4Z"/><path class="cls-19" d="M293,190.79c-11.11,0-19.57-12.26-19.57-18.39,0-6.35,8.78-11.52,19.57-11.52s19.57,5.17,19.57,11.52C312.55,178.53,304.09,190.79,293,190.79Zm0-28.91c-10.24,0-18.57,4.72-18.57,10.52s8.41,17.39,18.57,17.39,18.57-11.51,18.57-17.39S303.22,161.88,293,161.88Z"/><g class="cls-15"><ellipse class="cls-13" cx="246.4" cy="154.32" rx="4.19" ry="6.49"/></g><g class="cls-7"><path class="cls-13" d="M291.1,167.5c-2.66-.11-5.58.26-7.45,2.16a6,6,0,0,0,.64,8.62c-1.9.27-3.66-1.16-4.71-2.78-6.26-9.72,9.68-12.34,15.71-11.7,2.47.26,12.38,2.17,12.1,5.85-.16,2.1-4.16.82-5.34.41A36.5,36.5,0,0,0,291.1,167.5Z"/></g><g class="cls-21"><path class="cls-19" d="M304.94,207.67c-2,6.87-6.58,13.36-11.85,13.36-2.58,0-5-1.54-7-3.93a13.59,13.59,0,0,0,9.34-4.18,19.15,19.15,0,0,0,3.95-6.12A27.3,27.3,0,0,0,304.94,207.67Z"/></g><g class="cls-21"><path class="cls-6" d="M410.53,166.11q0,4-.27,7.77a85.55,85.55,0,0,1-2.7,16.37A66.18,66.18,0,0,1,402,204.32a59.19,59.19,0,0,1-8.17,11.57,61.71,61.71,0,0,1-7.2,6.79c-21.68,17.46-56.08,22.55-94.81,22.55-36.46,0-69.08-4.51-90.86-19.6a64.83,64.83,0,0,1-9.88-8.38,59.18,59.18,0,0,1-8.2-10.75,65.22,65.22,0,0,1-6.73-15.91,84.87,84.87,0,0,1-2.8-16.8q-.27-3.72-.27-7.68a115.23,115.23,0,0,1,27.29-74.53,29,29,0,0,1-2.84,6.31c-15.58,28.64-25,75.59-1.72,102.89,8.77,10.31,20.71,17.49,33.14,22.84a153.86,153.86,0,0,0,97.59,7.76,104.49,104.49,0,0,0,26.22-10.11c18.65-10.6,32.15-28.88,38.67-49.15,7-21.87,3.43-44.5-5.78-65.28a118.44,118.44,0,0,0-19.34-30.26c-1.17-1.33-2.39-2.67-3.44-4.1a116.29,116.29,0,0,1,47.21,83C410.37,159,410.53,162.51,410.53,166.11Z"/></g><g class="cls-21"><path class="cls-6" d="M369.85,81.58A184.43,184.43,0,0,0,236.79,70.34a61.71,61.71,0,0,0-10.54,4c-2.15,1.1-4.18,2.4-6.21,3.7L203,88.93c0-.1-.06-.19-.08-.29A119.15,119.15,0,0,1,242.45,59.8c1.31-.6,2.64-1.16,4-1.71a119.39,119.39,0,0,1,18.49-5.82q3.39-.78,6.86-1.35c3-.5,6-.9,9.1-1.16.66-.07,1.32-.12,2-.17q4.42-.33,8.93-.33a121.35,121.35,0,0,1,14.48.86l.74.09q4.13.52,8.16,1.32,2.61.51,5.17,1.13a119.09,119.09,0,0,1,19.92,6.74l2.41,1.09a118.44,118.44,0,0,1,20.17,12c.6.44,1.2.9,1.8,1.36A68.46,68.46,0,0,1,369.85,81.58Z"/></g><path class="cls-22" d="M294.74,241.45l2.21,4.49a1.08,1.08,0,0,0,.83.6l5,.72a1.09,1.09,0,0,1,.61,1.86l-3.59,3.5a1.09,1.09,0,0,0-.31,1l.84,4.93a1.09,1.09,0,0,1-1.58,1.15l-4.43-2.33a1.14,1.14,0,0,0-1,0l-4.43,2.33a1.1,1.1,0,0,1-1.59-1.15l.85-4.93a1.09,1.09,0,0,0-.32-1l-3.58-3.5a1.09,1.09,0,0,1,.6-1.86l5-.72a1.08,1.08,0,0,0,.82-.6l2.22-4.49A1.09,1.09,0,0,1,294.74,241.45Z"/><path class="cls-6" d="M299.21,260.8a2.15,2.15,0,0,1-1-.24l-4.43-2.33-4.52,2.33a2.09,2.09,0,0,1-3-2.21l.84-4.93-3.61-3.58a2.09,2.09,0,0,1,1.16-3.57l5-.72,2.28-4.54a2.09,2.09,0,0,1,3.75,0l2.22,4.49,5,.77a2.09,2.09,0,0,1,1.16,3.57l-3.58,3.5.82,5a2.09,2.09,0,0,1-2.06,2.45Zm-5.45-19-2.3,4.55a2.13,2.13,0,0,1-1.58,1.14l-4.95.72-.05.16,3.58,3.49a2.07,2.07,0,0,1,.6,1.85l-.84,4.94.6,1-.47-.88,4.43-2.33a2.1,2.1,0,0,1,2,0l4.43,2.33.14-.1-.85-4.93a2.1,2.1,0,0,1,.6-1.86l3.59-3.49.09-1.15-.14,1-5-.72a2.09,2.09,0,0,1-1.57-1.14l-2.22-4.49h0A.09.09,0,0,0,293.76,241.84Z"/><g class="cls-7"><path class="cls-23" d="M355.38,166.53c1.57-3.49,1.16-7.89.48-11.81-.71-4.13-1.62-8.37-4-11.82s-6.61-6-10.72-5.13c-3.21.64-5.72,3.11-7.76,5.66a26.71,26.71,0,0,0-3.18,4.92c1.36-9,7.5-15.84,14.87-15.84,8.37,0,15.16,8.79,15.16,19.64A22.56,22.56,0,0,1,355.38,166.53Z"/></g><g class="cls-7"><path class="cls-23" d="M231.65,150.37a20.65,20.65,0,0,0,1.92,11.51c1.86,3.48,5.4,6.22,9.35,6.37,4.85.19,9-3.32,12.54-6.61a1.28,1.28,0,0,1,.15.25c-2.61,5.92-7.53,9.91-13.16,9.91-8.37,0-15.16-8.8-15.16-19.65s6.79-19.64,15.16-19.64c8,0,14.49,8,15.11,18.07-.07-.19-.13-.39-.18-.58-1.89-7.23-10.08-15.92-18.25-12.57C234.28,139.43,232.09,145.14,231.65,150.37Z"/></g><g class="cls-24"><path class="cls-6" d="M231.9,315.16c-13.79,8.75-18-4.16-18-4.16-.37-1.13-3.8-3.3-4.69-4.41a31.83,31.83,0,0,1-4.15-6.87c-4.5-9.93-4.57-21.47-1.05-31.7a56.26,56.26,0,0,1,11-18.46,77.8,77.8,0,0,1,9.47-9.13c1-.81,3.51-3.56,5-2.68,2,1.18-.4,3.32-1.14,4.16-2.17,2.49-4.55,4.8-6.73,7.29a92.59,92.59,0,0,0-11.37,15.68c-3.27,5.84-6,12.12-6.74,18.77s.56,13.72,4.65,19a42.07,42.07,0,0,0,4.63,4.81l3.08,2.88a16.8,16.8,0,0,0,1.93,1.63c3.72,2.55,9.15,1.58,12.38-1.56s4.45-8,4-12.44a4.81,4.81,0,0,0-.72-2.38c-1.16-1.61-4-2-4.45-3.78C236.68,295.17,245.24,306.7,231.9,315.16Z"/></g><g class="cls-24"><path class="cls-6" d="M225.64,273.52a7.19,7.19,0,0,1-.86,5.82,2.49,2.49,0,0,1-1.94,1.34c-1.41,0-2-1.85-1.78-3.24s.91-2.79.49-4.13a7.8,7.8,0,0,0-1.14-1.89c-1.25-1.86-.61-3,1.28-2.67C223.41,269.07,225.21,272,225.64,273.52Z"/></g><g class="cls-24"><path class="cls-6" d="M237.34,254.44a14.55,14.55,0,0,1,0,1.72,39.32,39.32,0,0,1-.63,6.11,86.57,86.57,0,0,1-2.57,12c-1,3.46-2.23,7.09-1.31,10.57s3.84,6.05,6.27,8.74,4.62,6.26,3.64,9.75c2.76,6.47-4.1,12.42-3.68,19.43s7.53,12.88,6.59,19.9c-2.24.78-4.4-1.3-5.78-3.23a65.77,65.77,0,0,1-8.39-15.93,10.76,10.76,0,0,1-.8-3.56c0-4.12,4.07-6.85,6.56-10.13a13.63,13.63,0,0,0,2.42-11.62,11.7,11.7,0,0,0-8.32-8.25,5,5,0,0,1-1.78-.6c-2.25-1.57.11-9.68.7-11.83,1.42-5.15,3.57-10.13,4.2-15.48.32-2.67.09-6.76,2.3-8.66C237.14,253.05,237.29,253.69,237.34,254.44Z"/></g><g class="cls-24"><path class="cls-6" d="M362.63,270.2c-.44-.5-1.23.07-1.62.6-1.41,1.9-2.88,4-2.92,6.33a3,3,0,0,0,.58,2,1.62,1.62,0,0,0,1.89.53c.88-.42,1-1.63.85-2.6-.2-1.72-.59-3.68.52-5,.63-.76,1.74-1.33,1.67-2.31"/></g><g class="cls-24"><path class="cls-6" d="M349.25,282.87a9.34,9.34,0,0,1-.59,4.4c-.71,1.47-2.12,2.45-3.31,3.57A15.94,15.94,0,0,0,341.22,307c.77,2.37,2.1,4.52,3,6.84a28.77,28.77,0,0,1,1.43,13.48,46.48,46.48,0,0,1-4.38,15.44c1,.89,2.45-.3,3.22-1.39,4.46-6.29,9-12.68,11.66-19.91a5,5,0,0,0,.32-3.74,5.88,5.88,0,0,0-1.6-1.85,25.07,25.07,0,0,1-7.6-13,10.68,10.68,0,0,1-.19-4.7c.81-3.5,4.15-5.71,7.07-7.8a5.44,5.44,0,0,0,1.67-1.6,5.17,5.17,0,0,0,.56-1.84,34.82,34.82,0,0,0-.76-13.33c-.69-3-1.72-9.71-4.37-11.53-4-2.74-2.4,5-2.35,7.1Z"/></g><g class="cls-24"><path class="cls-6" d="M371.77,311s-6.48,12.69-19,4.27c-9.95-9.28-7.24-18.34-.58-22.68,1.77.55,3.24,2.26,2.95,4.08-.18,1.15-1,2.11-1.39,3.21a8.25,8.25,0,0,0,0,4.62c.71,3.22,2.17,6.51,5,8.23s7.18,1.06,8.51-2c.47-1.09.52-2.33,1-3.42.77-1.71,2.5-2.75,3.86-4,4.73-4.46,5-11.78,4.75-18.27A60.43,60.43,0,0,0,375,270.66c-1.44-5-4-9.53-6.53-14.05-2.17-3.92-6-9.24-6.15-13.85a3.46,3.46,0,0,1,.16-1.27C395.74,269.75,383.93,303,371.77,311Z"/></g><g class="cls-24"><path class="cls-6" d="M274,361.67l-18.25,18.07s-23.64,1.75-31.52.87-10.07-11.82-2.41-17.73L231.66,329s-.17-.79-.43-2.22a15.81,15.81,0,0,1,2.36,3.71c1.92,4,.82,7.94-.59,11.92l-6,16.82c-.75,2.11-1.51,4.37-1,6.54-2.33.36-3.77,3.11-3.26,5.41a7.36,7.36,0,0,0,4.72,4.9,21.5,21.5,0,0,0,7,1.05l16.53.67a4.83,4.83,0,0,0,1.61-.12,5,5,0,0,0,2-1.49A77.24,77.24,0,0,1,274,361.28C274,361.41,274,361.54,274,361.67Z"/></g><g class="cls-24"><path class="cls-6" d="M354.25,380.61c-18.39.25-28.67,0-28.67,0L308.47,362q0-.39-.06-.78l11,10.39c3.83,3.62,8.13,7.29,13.66,7.38,5.71.09,11.78-.95,17.38-1.95a15.54,15.54,0,0,0,5.19-1.61,5.78,5.78,0,0,0,3-4.3c.23-3-2.88-5.43-5.86-5.33s-5.6,2.1-7.4,4.47c-.34-2.21,1.44-4.17,3.24-5.5s3.9-2.58,4.69-4.68c.64-1.7.28-3.6-.06-5.38a144.41,144.41,0,0,1-2.55-29.34l-4.25,3.85,3.87-4.93a2.67,2.67,0,0,1,1.37-1.1,2.54,2.54,0,0,1,2.12.88l.08.08a85.62,85.62,0,0,1-3,9.57l7.44,29.34C363.66,364.19,372.64,380.37,354.25,380.61Z"/></g><g class="cls-25"><path class="cls-20" d="M351.65,183.57a13.87,13.87,0,0,1,6.71,5c1.55,2.37,1.88,5.68.24,8a9.34,9.34,0,0,1-5.16,3.16,24.29,24.29,0,0,1-23.39-5.92c-1.66-1.64-3.16-3.89-2.6-6.15.89-3.55,6.56-4.69,9.67-5.47C341.79,181,347.24,181.8,351.65,183.57Z"/></g><g class="cls-25"><path class="cls-20" d="M237.12,183.57a13.94,13.94,0,0,0-6.72,5c-1.54,2.37-1.87,5.68-.23,8a9.35,9.35,0,0,0,5.15,3.16,24.31,24.31,0,0,0,23.4-5.92c1.66-1.64,3.16-3.89,2.59-6.15-.88-3.55-6.56-4.69-9.67-5.47C247,181,241.53,181.8,237.12,183.57Z"/></g><g class="cls-21"><path class="cls-6" d="M217.53,73.7a2,2,0,0,1-.34.38C215,75.94,212.4,70.7,211,69.63a47.08,47.08,0,0,0-6.63-4.18,41.12,41.12,0,0,0-15.55-4.63C178.25,60,167.14,64,160.52,72.23l-.82,1a27.64,27.64,0,0,1,4.3-6.94c11.24-13.28,32.69-13.59,47.92-.71C213.22,66.73,219.17,71.27,217.53,73.7Z"/></g><g class="cls-21"><path class="cls-6" d="M418,68.53a31,31,0,0,0-6.48-4.79c-8.12-4.43-18.19-4.37-26.89-1.24a48,48,0,0,0-11,5.75c-2.42,1.68-6,5.77-9.08,6-6.33.54,2.49-7.51,3.84-8.65,15.23-12.88,36.68-12.57,47.92.71Q417.19,67.41,418,68.53Z"/></g><path class="cls-26" d="M119.26,178.86c0,12.49-9.43,24.58-23.12,27.34-12.49,0-25.87-9.1-25.87-21.59-.9-17.87,12.79-28.39,26.38-28.37A22.61,22.61,0,0,1,119.26,178.86Z"/><path class="cls-6" d="M96.11,206.24c-12.77,0-26.34-8.69-26.34-21.63-.4-8.06,2.08-15.16,7.19-20.53a27.22,27.22,0,0,1,19.64-8.34h.05a23.14,23.14,0,0,1,23.11,23.12c0,13.11-9.93,24.63-23.63,27.38Zm.49-49.5a26.2,26.2,0,0,0-18.91,8c-4.92,5.16-7.31,12-6.92,19.81,0,12.38,13.06,20.67,25.26,20.67,13.13-2.65,22.73-13.75,22.73-26.39a22.14,22.14,0,0,0-22.11-22.12Z"/><circle class="cls-10" cx="93.12" cy="183.12" r="23.08"/><circle class="cls-27" cx="93.12" cy="183.12" r="14.65"/><circle class="cls-28" cx="91.74" cy="181.13" r="11.97"/><circle class="cls-28" cx="93.12" cy="202.01" r="1.96"/><circle class="cls-28" cx="93.12" cy="164.61" r="1.96"/><circle class="cls-28" cx="79.78" cy="169.98" r="1.96"/><circle class="cls-28" cx="105.67" cy="196.92" r="1.96"/><circle class="cls-28" cx="80.59" cy="196.92" r="1.96"/><circle class="cls-28" cx="105.67" cy="169.98" r="1.96"/><circle class="cls-28" cx="74.22" cy="182.35" r="1.96"/><circle class="cls-28" cx="111.5" cy="182.35" r="1.96"/><path class="cls-6" d="M93.12,206.7a23.58,23.58,0,1,1,23.58-23.58A23.6,23.6,0,0,1,93.12,206.7Zm0-46.16a22.58,22.58,0,1,0,22.58,22.58A22.61,22.61,0,0,0,93.12,160.54Z"/><path class="cls-6" d="M93.12,198.4a15.29,15.29,0,1,1,15.28-15.28A15.3,15.3,0,0,1,93.12,198.4Zm0-29.57a14.29,14.29,0,1,0,14.28,14.29A14.3,14.3,0,0,0,93.12,168.83Z"/><path class="cls-26" d="M482,169.44c0,9.12-6.89,17.94-16.88,19.95-9.11,0-18.88-6.64-18.88-15.76-.66-13,9.34-20.71,19.25-20.7A16.51,16.51,0,0,1,482,169.44Z"/><path class="cls-6" d="M465.1,189.65c-9.42,0-19.4-6.44-19.4-16a19.59,19.59,0,0,1,19.72-21.2h0a17,17,0,0,1,17,17c0,9.53-7.46,18.22-17.34,20.21Zm.32-36.22a18.59,18.59,0,0,0-18.72,20.18c0,8.88,9.66,15,18.32,15,9.33-1.89,16.44-10.16,16.44-19.22a16,16,0,0,0-16-16Z"/><circle class="cls-10" cx="462.87" cy="172.54" r="16.84"/><circle class="cls-27" cx="462.87" cy="172.54" r="10.69"/><circle class="cls-28" cx="461.87" cy="171.1" r="8.73"/><circle class="cls-28" cx="462.87" cy="186.33" r="1.43"/><circle class="cls-28" cx="462.87" cy="159.04" r="1.43"/><circle class="cls-28" cx="453.14" cy="162.96" r="1.43"/><circle class="cls-28" cx="472.04" cy="182.62" r="1.43"/><circle class="cls-28" cx="453.73" cy="182.62" r="1.43"/><circle class="cls-28" cx="472.04" cy="162.96" r="1.43"/><circle class="cls-28" cx="449.09" cy="171.99" r="1.43"/><circle class="cls-28" cx="476.29" cy="171.99" r="1.43"/><path class="cls-6" d="M462.87,189.89a17.35,17.35,0,1,1,17.35-17.35A17.36,17.36,0,0,1,462.87,189.89Zm0-33.69a16.35,16.35,0,1,0,16.35,16.34A16.36,16.36,0,0,0,462.87,156.2Z"/><path class="cls-6" d="M462.87,183.83a11.29,11.29,0,1,1,11.29-11.29A11.29,11.29,0,0,1,462.87,183.83Zm0-21.57a10.29,10.29,0,1,0,10.29,10.28A10.29,10.29,0,0,0,462.87,162.26Z"/><path class="cls-26" d="M455.85,31.13c.75-9.08,8.34-17.31,18.46-18.48,9.09.75,18.27,8.18,17.51,17.26-.42,13.05-11,19.88-20.89,19A16.5,16.5,0,0,1,455.85,31.13Z"/><path class="cls-6" d="M472.58,49.52c-.56,0-1.13,0-1.69-.07a17,17,0,0,1-15.54-18.36h0c.8-9.64,8.93-17.78,18.91-18.94,9.23.76,18.86,8.26,18.06,17.81a19.54,19.54,0,0,1-19.74,19.56Zm1.69-36.37c-9.41,1.1-17.16,8.85-17.93,18h0A16,16,0,0,0,471,48.45a19,19,0,0,0,14.18-4.66,18.88,18.88,0,0,0,6.17-13.89C492.07,20.91,482.94,13.87,474.27,13.15Zm-18.42,18h0Z"/><circle class="cls-10" cx="475.12" cy="29.62" r="16.84"/><circle class="cls-27" cx="475.12" cy="29.62" r="10.69"/><circle class="cls-28" cx="476" cy="31.14" r="8.73"/><circle class="cls-28" cx="476.26" cy="15.88" r="1.43"/><circle class="cls-28" cx="474" cy="43.08" r="1.43"/><circle class="cls-28" cx="484.03" cy="39.98" r="1.43"/><circle class="cls-28" cx="466.82" cy="18.82" r="1.43"/><circle class="cls-28" cx="485.06" cy="20.34" r="1.43"/><circle class="cls-28" cx="465.19" cy="38.41" r="1.43"/><circle class="cls-28" cx="488.82" cy="31.31" r="1.43"/><circle class="cls-28" cx="461.7" cy="29.06" r="1.43"/><path class="cls-6" d="M475.15,47c-.49,0-1,0-1.46-.06a17.31,17.31,0,1,1,1.46.06ZM458.33,28.22l.5.05a16.35,16.35,0,1,0,28.76-9.21,16.34,16.34,0,0,0-28.76,9.21Z"/><path class="cls-6" d="M475.14,40.91c-.32,0-.64,0-.95,0a11.21,11.21,0,1,1,.95,0Zm0-21.58a10.14,10.14,0,1,0,.86,0C475.68,19.34,475.4,19.33,475.11,19.33Zm-10.74,9.4h0Z"/><g class="cls-29"><path class="cls-26" d="M6.91,223.71A17.13,17.13,0,0,1,22,208.58c7.43.62,14.94,6.7,14.33,14.13a15.63,15.63,0,0,1-17.1,15.58A13.52,13.52,0,0,1,6.91,223.71Z"/><path class="cls-6" d="M20.61,238.85c-.46,0-.93,0-1.39-.06a14,14,0,0,1-12.8-15.12C7.07,215.74,13.76,209,22,208.09c7.62.62,15.54,6.8,14.88,14.66a16.09,16.09,0,0,1-16.24,16.1ZM6.91,223.71l.5,0a13,13,0,0,0,11.89,14A15.12,15.12,0,0,0,35.86,222.7c.6-7.31-6.83-13-13.88-13.62C14.34,210,8,216.29,7.41,223.75Z"/><circle class="cls-10" cx="22.69" cy="222.47" r="13.78"/><circle class="cls-27" cx="22.69" cy="222.47" r="8.75"/><circle class="cls-28" cx="23.4" cy="223.72" r="7.15"/><circle class="cls-28" cx="23.62" cy="211.22" r="1.17"/><circle class="cls-28" cx="21.77" cy="233.49" r="1.17"/><circle class="cls-28" cx="29.98" cy="230.95" r="1.17"/><circle class="cls-28" cx="15.89" cy="213.64" r="1.17"/><circle class="cls-28" cx="30.82" cy="214.87" r="1.17"/><circle class="cls-28" cx="14.56" cy="229.67" r="1.17"/><circle class="cls-28" cx="33.89" cy="223.86" r="1.17"/><circle class="cls-28" cx="11.71" cy="222.01" r="1.17"/><path class="cls-6" d="M22.71,236.75c-.4,0-.8,0-1.21-.05a14.28,14.28,0,1,1,1.21.05Zm0-27.56a13.21,13.21,0,1,0,1.11,0C23.41,209.2,23,209.19,22.68,209.19Z"/><path class="cls-6" d="M22.69,231.8l-.78,0a9.35,9.35,0,1,1,.78,0Zm0-17.66a8.35,8.35,0,1,0,.71,0C23.14,214.15,22.91,214.14,22.67,214.14Zm-8.78,7.6h0Z"/></g><g class="cls-30"><path class="cls-26" d="M95,33.84a13.18,13.18,0,0,1,11.65-11.66c5.73.47,11.52,5.16,11,10.89a12,12,0,0,1-13.18,12A10.41,10.41,0,0,1,95,33.84Z"/><path class="cls-6" d="M105.52,45.62a9.94,9.94,0,0,1-1.09,0,10.91,10.91,0,0,1-10-11.77,13.72,13.72,0,0,1,12.09-12.12c6,.49,12.11,5.3,11.6,11.43a12.52,12.52,0,0,1-12.63,12.51Zm1-22.94a12.69,12.69,0,0,0-11.11,11.2h0a9.9,9.9,0,0,0,9.06,10.7,11.54,11.54,0,0,0,12.63-11.53C117.62,27.48,111.94,23.12,106.57,22.68ZM95,33.84h0Z"/><circle class="cls-10" cx="107.12" cy="32.88" r="10.62"/><circle class="cls-27" cx="107.12" cy="32.88" r="6.75"/><circle class="cls-28" cx="107.67" cy="33.84" r="5.51"/><circle class="cls-28" cx="107.84" cy="24.21" r="0.9"/><circle class="cls-28" cx="106.41" cy="41.37" r="0.9"/><circle class="cls-28" cx="112.74" cy="39.42" r="0.9"/><circle class="cls-28" cx="101.88" cy="26.07" r="0.9"/><circle class="cls-28" cx="113.39" cy="27.03" r="0.9"/><circle class="cls-28" cx="100.86" cy="38.43" r="0.9"/><circle class="cls-28" cx="115.76" cy="33.95" r="0.9"/><circle class="cls-28" cx="98.65" cy="32.53" r="0.9"/><path class="cls-6" d="M107.14,44c-.32,0-.63,0-.94,0A11.13,11.13,0,0,1,96,32h0a11.12,11.12,0,1,1,11.11,12ZM97,32a10.13,10.13,0,1,0,3.54-6.88A10.12,10.12,0,0,0,97,32Z"/><path class="cls-6" d="M107.13,40.19c-.21,0-.41,0-.62,0a7.3,7.3,0,0,1-6.67-7.88l.5,0-.5,0a7.3,7.3,0,1,1,7.29,7.91Zm0-13.61a6.26,6.26,0,1,0,.53,0A4.78,4.78,0,0,0,107.11,26.58Z"/></g><g class="cls-30"><path class="cls-26" d="M519.16,184.48a13.18,13.18,0,0,1,11.64-11.66c5.74.48,11.53,5.16,11.05,10.89a12,12,0,0,1-13.18,12A10.41,10.41,0,0,1,519.16,184.48Z"/><path class="cls-6" d="M529.71,196.26c-.36,0-.72,0-1.08,0a10.93,10.93,0,0,1-10-11.78h0a13.72,13.72,0,0,1,12.09-12.12,13.93,13.93,0,0,1,8.24,3.61,9.56,9.56,0,0,1,3.36,7.82,12.52,12.52,0,0,1-12.64,12.51Zm-10.55-11.78.49,0a9.93,9.93,0,0,0,9.06,10.7,11.54,11.54,0,0,0,12.64-11.53,8.6,8.6,0,0,0-3-7,12.86,12.86,0,0,0-7.55-3.34,12.71,12.71,0,0,0-11.11,11.2Z"/><circle class="cls-10" cx="531.31" cy="183.52" r="10.62"/><circle class="cls-27" cx="531.31" cy="183.52" r="6.75"/><circle class="cls-28" cx="531.87" cy="184.49" r="5.51"/><circle class="cls-28" cx="532.03" cy="174.86" r="0.9"/><circle class="cls-28" cx="530.61" cy="192.02" r="0.9"/><circle class="cls-28" cx="536.93" cy="190.06" r="0.9"/><circle class="cls-28" cx="526.08" cy="176.71" r="0.9"/><circle class="cls-28" cx="537.59" cy="177.67" r="0.9"/><circle class="cls-28" cx="525.05" cy="189.07" r="0.9"/><circle class="cls-28" cx="539.95" cy="184.59" r="0.9"/><circle class="cls-28" cx="522.85" cy="183.17" r="0.9"/><path class="cls-6" d="M531.33,194.65c-.31,0-.62,0-.94,0a11.13,11.13,0,0,1-10.16-12l.5,0-.5,0A11.12,11.12,0,1,1,538.5,192,11,11,0,0,1,531.33,194.65Zm0-21.25a10.07,10.07,0,1,0,.84,0Q531.73,173.4,531.31,173.4Z"/><path class="cls-6" d="M531.32,190.83c-.2,0-.41,0-.61,0a7.32,7.32,0,0,1-6.68-7.88h0a7.31,7.31,0,1,1,14.56,1.21A7.31,7.31,0,0,1,531.32,190.83ZM525,183a6.31,6.31,0,1,0,6.81-5.76A6.3,6.3,0,0,0,525,183Z"/></g></g></g></svg>